<svg width="20" height="20" viewBox="0 0 20 20" fill="none" xmlns="http://www.w3.org/2000/svg">
<path d="M13.81 0.854248H5.86625C2.87057 0.854248 0.441406 3.28341 0.441406 6.27909V14.2229C0.441406 17.2185 2.87057 19.6477 5.86625 19.6477H13.81C16.8057 19.6477 19.2349 17.2185 19.2349 14.2229V6.27909C19.2349 3.28341 16.807 0.854248 13.81 0.854248ZM17.5037 14.362C17.5037 16.3511 15.8914 17.9621 13.9023 17.9621H5.77267C3.78356 17.9621 2.17255 16.3498 2.17255 14.362V6.2323C2.17255 4.24319 3.78483 2.63218 5.77267 2.63218H13.9023C15.8914 2.63218 17.5037 4.24446 17.5037 6.2323V14.362Z" fill="#000000"/>
<path d="M9.41125 5.12549C6.81716 5.12549 4.71289 7.22854 4.71289 9.82385C4.71289 12.4192 6.81716 14.5222 9.41125 14.5222C12.0053 14.5222 14.1096 12.4192 14.1096 9.82385C14.1096 7.22854 12.0066 5.12549 9.41125 5.12549ZM9.41125 12.8688C7.72857 12.8688 6.36512 11.5053 6.36512 9.82385C6.36512 8.14238 7.72857 6.77771 9.41125 6.77771C11.0939 6.77771 12.4574 8.14117 12.4574 9.82385C12.4574 11.5065 11.0939 12.8688 9.41125 12.8688Z" fill="#000000"/>
<path d="M14.5363 4.27124C13.8285 4.27124 13.2549 4.84486 13.2549 5.55261C13.2549 6.26036 13.8285 6.83398 14.5363 6.83398C15.244 6.83398 15.8176 6.26036 15.8176 5.55261C15.8176 4.84486 15.244 4.27124 14.5363 4.27124Z" fill="#000000"/>
</svg>