<svg width="18" height="21" viewBox="0 0 18 21" fill="none" xmlns="http://www.w3.org/2000/svg">
<path d="M13.9603 9.50222C13.8701 9.45975 13.7787 9.41853 13.6872 9.37982C13.5259 6.46345 11.9061 4.79482 9.18494 4.77734C9.17223 4.77734 9.1608 4.77734 9.1481 4.77734C7.52072 4.77734 6.16648 5.46053 5.33438 6.70326L6.8309 7.71243C7.45339 6.78444 8.43032 6.58585 9.14936 6.58585C9.15826 6.58585 9.16588 6.58585 9.17477 6.58585C10.0704 6.59085 10.7462 6.84814 11.1845 7.34648C11.5034 7.70993 11.7156 8.21202 11.821 8.8465C11.027 8.71411 10.1669 8.67289 9.24973 8.7241C6.66321 8.87023 4.99899 10.354 5.11079 12.4148C5.16796 13.4602 5.69771 14.3595 6.60223 14.9478C7.367 15.4448 8.35283 15.6871 9.37804 15.6322C10.731 15.5598 11.7931 15.0514 12.5324 14.1234C13.0952 13.419 13.4509 12.506 13.6072 11.3544C14.2525 11.7366 14.7302 12.24 14.9932 12.8457C15.4416 13.8749 15.4683 15.5647 14.0645 16.9436C12.8348 18.1514 11.3573 18.6735 9.12396 18.6897C6.64669 18.6722 4.77286 17.8903 3.55456 16.3678C2.41375 14.9428 1.82428 12.8832 1.80269 10.2479C1.82428 7.61251 2.41375 5.55295 3.55456 4.12787C4.77286 2.60537 6.64669 1.82476 9.12396 1.80602C11.619 1.82476 13.5259 2.60911 14.7899 4.13911C15.4099 4.88974 15.8774 5.83272 16.1861 6.93307L17.9392 6.47345C17.5657 5.11956 16.9775 3.95301 16.1772 2.98505C14.5574 1.02541 12.1856 0.0212326 9.13031 0H9.1176C6.06866 0.0212326 3.72479 1.02916 2.1495 2.99879C0.746991 4.74986 0.0241375 7.18786 0 10.2429V10.2504V10.2578C0.0241375 13.3128 0.746991 15.7508 2.1495 17.5032C3.72479 19.4715 6.06993 20.4807 9.11888 20.502H9.13158C11.8426 20.4832 13.7533 19.7863 15.3273 18.2401C17.3866 16.2167 17.3243 13.6813 16.6459 12.1251C16.1594 11.0085 15.2307 10.1017 13.9603 9.50346V9.50222ZM9.28022 13.8287C8.14576 13.8911 6.9681 13.3915 6.90966 12.3199C6.86647 11.5256 7.48515 10.6388 9.34882 10.5326C9.56224 10.5201 9.77186 10.5151 9.97766 10.5151C10.6548 10.5151 11.2887 10.5801 11.8642 10.7037C11.6495 13.3416 10.3893 13.77 9.27894 13.8299L9.28022 13.8287Z" fill="#000000"/>
</svg>
