<svg width="70" height="66" viewBox="0 0 70 66" fill="none" xmlns="http://www.w3.org/2000/svg">
<path fill-rule="evenodd" clip-rule="evenodd" d="M43.6612 0.00483786C45.0398 -0.0600645 46.241 0.536737 46.986 1.27291C47.7741 2.05162 48.351 2.97732 48.7825 4.03962C49.0115 4.60333 49.1746 5.18146 49.3892 5.7227C50.4747 8.46128 52.4353 10.2601 56.1437 10.4146C56.9356 10.4475 57.6671 10.4153 58.3603 10.4953C61.0073 10.8009 62.9784 12.0693 63.3767 14.6338C63.5929 16.0263 63.2648 17.4858 62.91 18.5879C62.5445 19.7234 62.2048 20.9994 62.385 22.4959C62.6249 24.4866 63.6825 25.8081 64.8932 26.8419C65.3181 27.2047 65.7588 27.5113 66.1881 27.8333C66.6201 28.1573 67.0163 28.5018 67.4131 28.8939C68.1766 29.6484 68.8594 30.5518 69.1163 31.7643C69.4217 33.2063 68.9262 34.5053 68.3464 35.361C67.7382 36.2586 66.9312 37.0158 66.0598 37.6551C65.1739 38.3052 64.3132 38.9589 63.6683 39.8339C63.0005 40.74 62.5225 41.7416 62.4084 43.1424C62.2215 45.4374 63.2349 46.8723 63.4816 48.8603C63.9647 52.7519 61.5827 54.593 58.232 54.924C57.4899 54.9973 56.7458 54.9668 56.0154 55.0046C52.412 55.1911 50.4904 57.1423 49.4591 59.8925C49.2411 60.474 49.0792 61.0406 48.8525 61.5756C48.1935 63.1312 47.2521 64.5545 45.6094 65.1838C45.0178 65.4105 44.3248 65.5157 43.6028 65.4605C42.2028 65.3535 41.1763 64.8152 40.243 64.2385C39.7721 63.9476 39.34 63.6184 38.8781 63.3163C37.9179 62.688 36.9279 62.1872 35.6116 61.9906C33.3487 61.6526 31.6138 62.5609 30.327 63.4546C29.4235 64.0821 28.5751 64.7048 27.4221 65.1262C26.8526 65.3343 26.2111 65.5146 25.5206 65.5181C24.028 65.526 22.9894 65.0114 22.2074 64.2385C21.4209 63.4613 20.8564 62.5406 20.4225 61.4603C20.1949 60.8936 20.0321 60.3199 19.8159 59.7772C18.7496 57.1 16.7398 55.1809 13.038 55.1084C12.28 55.0935 11.5489 55.1001 10.8564 55.0162C8.19159 54.693 6.2289 53.4832 5.82841 50.8892C5.72937 50.2473 5.73298 49.4972 5.84008 48.7911C6.04248 47.4571 6.54855 46.4345 6.76169 45.1483C6.87496 44.4643 6.91556 43.7382 6.83168 43.0386C6.59475 41.0626 5.52836 39.7216 4.3235 38.6926C3.90877 38.3385 3.46617 38.0316 3.02858 37.7012C2.60067 37.3781 2.19889 37.0312 1.80365 36.6406C1.02366 35.8698 0.372002 35.0084 0.100418 33.7702C-0.216313 32.3265 0.266542 31.0481 0.847041 30.1735C1.44772 29.2683 2.26037 28.5262 3.13357 27.8794C4.0392 27.2085 4.84975 26.5675 5.51343 25.6891C6.18411 24.8014 6.70103 23.7665 6.79669 22.4036C6.84988 21.6461 6.77125 20.9468 6.64503 20.3055C6.39631 19.041 5.90191 18.029 5.72342 16.6627C5.63044 15.9506 5.63977 15.2238 5.77008 14.5531C6.24489 12.1098 8.24723 10.8597 10.9731 10.599C11.7058 10.5289 12.4527 10.5527 13.178 10.5068C16.8089 10.277 18.6939 8.41228 19.7459 5.63047C19.9666 5.04704 20.1139 4.47065 20.3409 3.93587C21.0004 2.3819 21.9525 0.969842 23.5957 0.339148C24.1875 0.112048 24.8546 0.00737401 25.5789 0.0624776C26.9568 0.167382 28.0149 0.706313 28.9504 1.27291C29.4259 1.56088 29.8567 1.89588 30.3153 2.19515C31.2608 2.81212 32.2858 3.33595 33.5701 3.53239C35.0337 3.75626 36.3898 3.39325 37.4082 2.92141C38.4478 2.43977 39.2799 1.7323 40.2314 1.15763C41.1848 0.581696 42.2238 0.0725069 43.6612 0.00483786ZM42.0979 3.48628C41.618 3.74646 41.2181 4.0191 40.8147 4.30476C39.1575 5.47819 37.3284 6.44861 34.62 6.54118C33.9474 6.56412 33.2874 6.47443 32.6951 6.35673C30.9443 6.0087 29.5689 5.27806 28.3204 4.40851C27.9236 4.13219 27.5113 3.8373 27.0488 3.5785C26.5924 3.32304 26.0781 3.07092 25.5089 3.0021C24.8117 2.91783 24.3479 3.18517 24.004 3.55544C23.3032 4.30983 22.997 5.32521 22.6274 6.36826C21.7133 8.94775 20.2325 10.9868 17.961 12.2129C17.0494 12.7049 16.0272 13.0713 14.8112 13.2735C14.2176 13.3722 13.5781 13.4261 12.8863 13.4579C12.218 13.4886 11.5262 13.4616 10.8681 13.5617C10.2489 13.6559 9.71096 13.8357 9.31654 14.115C8.88431 14.4211 8.68179 14.8292 8.63991 15.533C8.60048 16.1958 8.74875 16.7794 8.89656 17.3429C9.04087 17.8931 9.24234 18.4085 9.38653 18.9568C9.66931 20.0327 9.86519 21.3653 9.74818 22.7149C9.63875 23.9772 9.30557 25.0474 8.82656 25.9888C8.10899 27.3993 7.12193 28.4991 5.98007 29.4357C5.19786 30.0772 4.35068 30.5845 3.68187 31.3493C3.37016 31.7056 3.01411 32.14 2.97025 32.7327C2.92767 33.3077 3.26481 33.8452 3.56521 34.2082C4.20789 34.9849 5.06896 35.5127 5.85174 36.1334C7.76193 37.6481 9.41966 39.6734 9.78317 42.7043C9.94043 44.0152 9.76754 45.3523 9.50319 46.497C9.24047 47.6344 8.75832 48.5944 8.72157 49.8978C8.66173 52.0227 10.6999 52.1688 12.7697 52.1688C13.4549 52.1688 14.1215 52.224 14.7295 52.3186C18.9753 52.9793 21.3824 55.5069 22.7091 59.0625C23.1012 60.1134 23.3689 61.1201 24.0623 61.9099C24.4024 62.2972 24.8389 62.6277 25.4856 62.5785C26.67 62.4884 27.5947 61.7602 28.3437 61.2297C29.1583 60.6529 30.0682 60.1201 31.0502 59.7196C32.0635 59.3063 33.1958 59.0077 34.5267 58.9818C35.8919 58.9552 37.0333 59.2182 38.1082 59.6273C39.1075 60.0077 40.0488 60.5281 40.8497 61.0914C41.6571 61.6591 42.5472 62.3418 43.6495 62.5093C44.3752 62.6197 44.8264 62.3396 45.1777 61.979C45.8959 61.2422 46.2022 60.2223 46.566 59.1778C47.9993 55.0618 50.912 52.2648 56.2721 52.0535C56.9655 52.0262 57.6351 52.0603 58.302 51.9613C59.51 51.7819 60.5144 51.3594 60.5652 50.0246C60.6176 48.6438 60.1088 47.6977 59.8185 46.5777C59.5317 45.4709 59.352 44.1638 59.4569 42.8196C59.5585 41.5182 59.9184 40.495 60.3785 39.5457C61.0612 38.1373 62.0893 37.0378 63.225 36.0988C63.9997 35.4582 64.8622 34.9451 65.5232 34.1852C65.8264 33.8366 66.1906 33.37 66.2348 32.8018C66.2823 32.1917 65.9297 31.6832 65.6282 31.3147C64.9836 30.5275 64.1366 30.0189 63.3417 29.3896C62.1482 28.4447 61.1764 27.3695 60.4252 26.0003C59.9413 25.1186 59.5555 24.0273 59.4219 22.8071C59.2842 21.5493 59.3955 20.2219 59.6902 19.0029C59.9607 17.8841 60.4571 16.9117 60.4835 15.6137C60.5265 13.491 58.4969 13.3543 56.4237 13.3542C54.33 13.3542 52.6662 12.8908 51.2557 12.1899C48.9884 11.0632 47.376 8.96332 46.4843 6.46048C46.3022 5.94922 46.1409 5.41294 45.9244 4.91574C45.5599 4.07881 44.896 2.85086 43.6845 2.94446C43.0746 2.99161 42.5338 3.24995 42.0979 3.48628ZM40.873 17.3544C40.4782 18.0986 40.1018 18.8362 39.7414 19.5562C39.372 20.2944 38.9762 21.0143 38.6098 21.7465C37.4992 23.9657 36.3362 26.137 35.215 28.3405C34.4678 29.8092 33.677 31.2842 32.9401 32.7327C31.8226 34.9293 30.6461 37.127 29.5453 39.3266C29.179 40.0586 28.8058 40.8001 28.4137 41.5285C27.4596 43.3008 26.5261 45.2036 25.5789 47.0158C25.3964 47.3649 25.1324 47.7598 25.0656 48.1686C24.9748 48.724 25.2044 49.1449 25.4622 49.4136C25.7317 49.6945 26.1263 49.9058 26.6872 49.8632C27.6398 49.7907 27.9779 48.853 28.3204 48.1686C28.6969 47.4164 29.0866 46.6796 29.452 45.9667C30.9748 42.9962 32.4759 40.1358 33.9784 37.1824C34.7258 35.7133 35.5098 34.2517 36.2533 32.7903C37.7383 29.8713 39.251 26.937 40.7797 23.9945C41.7149 22.1943 42.6958 20.3432 43.6145 18.5072C43.7986 18.1393 44.0585 17.774 44.1278 17.3544C44.2151 16.8264 44.0149 16.3904 43.7545 16.1094C43.4977 15.8322 43.0459 15.6129 42.5296 15.6598C41.5167 15.7518 41.2546 16.635 40.873 17.3544ZM22.7907 19.1527C25.2703 19.036 27.0861 20.0587 28.3554 21.2163C29.0347 21.8358 29.5517 22.5403 29.977 23.395C30.3931 24.2316 30.6993 25.2873 30.7353 26.4154C30.8147 28.9129 29.8314 30.629 28.6471 31.9142C28.0461 32.5663 27.291 33.0959 26.4305 33.505C25.5604 33.9188 24.5462 34.2139 23.3857 34.2659C22.1563 34.321 21.0349 34.064 20.1426 33.6895C19.2306 33.3068 18.4713 32.8098 17.821 32.2024C17.1694 31.5936 16.614 30.8722 16.1995 30.0236C15.7833 29.1717 15.481 28.1752 15.4412 27.0033C15.3573 24.5287 16.3211 22.7972 17.5177 21.516C18.122 20.869 18.8511 20.3362 19.7226 19.9136C20.5729 19.5011 21.5907 19.2092 22.7907 19.1527ZM21.7758 22.2538C20.862 22.5133 20.173 23.0181 19.6293 23.591C18.923 24.3351 18.3077 25.5131 18.416 26.9917C18.5206 28.4199 19.1024 29.3798 19.9326 30.1158C20.7443 30.8355 21.8807 31.4052 23.3857 31.3263C24.7952 31.2522 25.7948 30.6079 26.5355 29.8276C27.2473 29.0777 27.8624 27.9165 27.7604 26.4384C27.664 25.0406 27.043 24.0257 26.2555 23.3028C25.4795 22.5903 24.3138 22.0041 22.8024 22.0924C22.4742 22.1115 22.0883 22.165 21.7758 22.2538ZM45.8194 31.2571C48.2991 31.1404 50.1147 32.163 51.384 33.3206C52.0633 33.9401 52.5804 34.6445 53.0056 35.4994C53.4215 36.3356 53.7281 37.3915 53.7639 38.5197C53.8431 41.0175 52.8601 42.733 51.6757 44.0185C51.0749 44.6707 50.3196 45.2002 49.4591 45.6094C48.5889 46.0231 47.5749 46.3181 46.4143 46.3702C45.185 46.4254 44.0634 46.1684 43.1712 45.7938C42.2593 45.411 41.4999 44.9141 40.8497 44.3067C40.198 43.6979 39.6426 42.9765 39.2281 42.1279C38.812 41.276 38.5096 40.2794 38.4698 39.1076C38.3859 36.633 39.3498 34.9015 40.5463 33.6203C41.1506 32.9734 41.8798 32.4405 42.7512 32.0179C43.6017 31.6055 44.6192 31.3136 45.8194 31.2571ZM44.8044 34.3581C43.8906 34.6177 43.2018 35.1223 42.6579 35.6953C41.9517 36.4394 41.3361 37.6176 41.4446 39.0961C41.5494 40.5243 42.1309 41.4841 42.9612 42.2202C43.7729 42.9399 44.9094 43.5098 46.4143 43.4306C47.8238 43.3565 48.8235 42.7124 49.5641 41.932C50.2759 41.1821 50.891 40.0209 50.7891 38.5427C50.6926 37.145 50.0716 36.1301 49.2842 35.4071C48.5081 34.6946 47.3425 34.1084 45.831 34.1967C45.5029 34.2158 45.117 34.2693 44.8044 34.3581Z" fill="black"/>
</svg>
