<svg width="63" height="65" viewBox="0 0 63 65" fill="none" xmlns="http://www.w3.org/2000/svg">
<path d="M61.2192 41.7213C59.7656 39.5405 56.8083 38.949 54.6276 40.403L48.896 44.2416C48.3545 44.6022 48.2086 45.3335 48.5692 45.8747C48.9302 46.4158 49.6611 46.5621 50.2023 46.2011L55.9342 42.3625C57.034 41.6291 58.526 41.9276 59.2597 43.0279C59.9934 44.1277 59.6948 45.62 58.5946 46.3533L41.3136 57.8921C41.1221 58.0198 40.9153 58.1192 40.699 58.1865C40.3725 58.289 40.0208 58.3183 39.6781 58.2741L23.0355 53.5116C22.9931 53.4988 22.9496 53.4875 22.9051 53.4792C21.6848 53.2548 20.4438 53.5109 19.4105 54.1998L18.42 54.8606L12.0141 45.2517L19.7135 40.0892C20.833 39.3431 22.1721 39.0691 23.4925 39.3121L41.4185 45.0609C41.4185 45.0609 41.4199 45.0612 41.4206 45.0612C41.4216 45.0612 41.422 45.0619 41.4227 45.0623C42.6651 45.4557 43.3767 46.7758 43.0081 48.0043C42.8286 48.6014 42.4228 49.0928 41.8647 49.3875C41.3005 49.6857 40.6493 49.7475 40.0308 49.5618C40.025 49.5601 40.0191 49.5591 40.0132 49.5573C40.0063 49.5556 40.0005 49.5529 39.9936 49.5515L31.2398 47.2313C30.6114 47.0646 29.9667 47.4394 29.8 48.0678C29.71 48.4074 29.778 48.7522 29.9588 49.0228C30.1124 49.2536 30.3477 49.431 30.6366 49.5073L39.3903 51.8278C39.3903 51.8278 39.3931 51.8278 39.3941 51.8285C40.5965 52.1785 41.8627 52.0521 42.9646 51.4703C44.0852 50.8784 44.9017 49.888 45.2641 48.6811C45.9995 46.2298 44.599 43.6025 42.1422 42.8198C42.1408 42.8198 42.1395 42.8187 42.1381 42.8184L24.2379 37.0778C24.1734 37.0523 24.1061 37.0312 24.0353 37.0171C22.0723 36.6243 20.0735 37.0195 18.4052 38.1318L10.7082 43.2926L10.027 42.271C9.66633 41.7299 8.93504 41.5836 8.3939 41.9446L0.524363 47.1906C-0.0167696 47.5512 -0.162751 48.2825 0.197889 48.8236L6.62246 58.4601C6.9831 59.0013 7.71438 59.1476 8.25517 58.787C8.7963 58.426 8.94263 57.695 8.58165 57.1539L2.81037 48.4972L8.72003 44.557L17.8113 58.1934L11.9016 62.1331L11.6176 61.7073C11.2566 61.1661 10.5257 61.0198 9.98452 61.3808C9.44339 61.7418 9.29706 62.4727 9.65804 63.0135L10.5954 64.4195C10.956 64.9606 11.6873 65.107 12.2284 64.746L20.098 59.4996C20.6391 59.1386 20.7851 58.4077 20.4244 57.8666L19.727 56.8205L20.7181 56.1589C21.2265 55.8201 21.8346 55.6906 22.4357 55.7897L39.1125 60.5619C39.1146 60.5625 39.1166 60.5626 39.1184 60.5636C39.1401 60.5695 39.1622 60.5739 39.1843 60.5784C39.2036 60.5829 39.2226 60.5877 39.2419 60.5908C39.2467 60.5915 39.2509 60.5929 39.2557 60.5936C39.9722 60.7047 40.7145 60.6495 41.403 60.4338C41.8326 60.2992 42.2423 60.1036 42.6202 59.8516L59.9012 48.3129C62.0816 46.8593 62.6731 43.902 61.2192 41.7216V41.7213Z" fill="black"/>
<path d="M45.3058 17.6971C45.1219 17.5942 44.1245 17.0662 42.5422 16.7525L42.4815 16.7404V10.7745L42.5743 10.7966C43.1824 10.9416 43.7439 11.2139 44.1973 11.5845C44.8817 12.1436 45.2658 12.879 45.2789 13.6548C45.29 14.3033 45.8276 14.8306 46.4782 14.8306H46.4954C47.1549 14.8192 47.6823 14.2733 47.6712 13.6137C47.6453 12.1222 46.9492 10.7435 45.7113 9.73161C44.8486 9.02689 43.7818 8.55582 42.6254 8.36946L42.5632 8.35945L42.5384 6.91309C42.527 6.26463 41.9893 5.7373 41.3388 5.7373H41.3219C40.6624 5.74869 40.135 6.29466 40.1464 6.95416L40.1713 8.40052L40.1095 8.4126C38.9603 8.63864 37.9101 9.14596 37.0725 9.88C35.8698 10.934 35.2214 12.3355 35.2469 13.827C35.2718 15.2827 35.9392 16.6373 37.125 17.6408L37.1385 17.6522C37.8501 18.2427 38.7933 18.6158 40.1068 18.8266L40.1703 18.8366V26.1016L40.074 26.0733C39.2478 25.831 38.5375 25.3993 38.0199 24.8246C37.4874 24.2335 37.1992 23.5332 37.1864 22.7992C37.175 22.1507 36.6377 21.6234 35.9872 21.6234H35.9699C35.6503 21.6289 35.3518 21.7587 35.1299 21.9882C34.9077 22.218 34.7886 22.5203 34.7941 22.8403C34.8083 23.6699 35.0133 24.4695 35.4032 25.2174C35.7718 25.9242 36.2881 26.5516 36.9383 27.0824C37.8062 27.7916 38.8744 28.2902 40.027 28.5242L40.0864 28.5363L40.1126 30.0524C40.1237 30.7005 40.66 31.2278 41.3081 31.2278H41.3291C41.6487 31.2223 41.9469 31.0925 42.1688 30.8627C42.3907 30.6328 42.5101 30.3305 42.5046 30.011L42.4808 28.6281L42.5481 28.6198C44.0303 28.4376 45.3749 27.8495 46.4364 26.9198C47.068 26.3663 47.5629 25.7216 47.9066 25.0031C48.2707 24.2424 48.4481 23.4359 48.4339 22.6063C48.3994 20.6053 47.2305 18.77 45.3065 17.6971H45.3058ZM42.5705 26.1968L42.4815 26.213V19.1883L42.5753 19.2121C43.5327 19.4561 44.0814 19.7536 44.1407 19.7867C45.311 20.4393 46.0212 21.5085 46.0409 22.647C46.0699 24.3287 44.6104 25.8213 42.5705 26.1965V26.1968ZM40.1699 10.8563V16.4067L40.0791 16.3877C39.4352 16.2525 38.9744 16.0651 38.6704 15.8145L38.6683 15.8131C38.0175 15.2599 37.6516 14.5404 37.6385 13.7863C37.6254 13.0102 37.984 12.262 38.6487 11.6798C39.0514 11.3267 39.5304 11.0603 40.0716 10.8877L40.1699 10.8563Z" fill="black"/>
<path d="M58.6433 11.2879C57.7122 9.08674 56.3801 7.11064 54.6828 5.41339C52.9859 3.71649 51.0095 2.38402 48.8084 1.45291C46.5293 0.488676 44.1087 0 41.6142 0C39.1197 0 36.6991 0.488676 34.4197 1.45291C32.2189 2.38367 30.2425 3.71614 28.5452 5.41339C26.8483 7.1103 25.5159 9.08674 24.5847 11.2879C23.6209 13.5673 23.1318 15.9876 23.1318 18.482C23.1318 20.9765 23.6205 23.3971 24.5847 25.6765C25.5159 27.8776 26.8483 29.8537 28.5452 31.551C30.2421 33.2479 32.2186 34.5804 34.4197 35.5115C36.6988 36.4757 39.1194 36.9644 41.6142 36.9644C44.109 36.9644 46.5293 36.4757 48.8087 35.5115C51.0098 34.5804 52.9863 33.2479 54.6832 31.551C56.3801 29.8541 57.7125 27.8776 58.6436 25.6765C59.6075 23.3974 60.0966 20.9768 60.0966 18.482C60.0966 15.9872 59.6079 13.567 58.6436 11.2879H58.6433ZM57.8119 18.482C57.8119 27.4135 50.5456 34.6798 41.6142 34.6798C32.6828 34.6798 25.4165 27.4135 25.4165 18.482C25.4165 9.55057 32.6828 2.28428 41.6142 2.28428C50.5456 2.28428 57.8119 9.55057 57.8119 18.482Z" fill="black"/>
</svg>
