<svg width="16" height="16" viewBox="0 0 16 16" fill="none" xmlns="http://www.w3.org/2000/svg">
<path d="M6.5 12.9977C2.91554 12.9977 0 10.0822 0 6.5C0 2.91785 2.91554 0 6.5 0C10.0845 0 13 2.91554 13 6.5C13 10.0845 10.0845 13 6.5 13V12.9977ZM6.5 1.1533C3.55216 1.1533 1.1533 3.55216 1.1533 6.5C1.1533 9.44783 3.55216 11.8467 6.5 11.8467C9.44783 11.8467 11.8467 9.44783 11.8467 6.5C11.8467 3.55216 9.44783 1.1533 6.5 1.1533Z" fill="black"/>
<path d="M15.3988 16C15.2452 16 15.0916 15.9424 14.974 15.8248L10.1764 11.0262C9.9412 10.791 9.9412 10.4117 10.1764 10.1764C10.4116 9.94119 10.7908 9.94119 11.026 10.1764L15.8236 14.975C16.0588 15.2102 16.0588 15.5895 15.8236 15.8248C15.706 15.9424 15.5524 16 15.3988 16Z" fill="black"/>
</svg>
