<svg width="12" height="16" viewBox="0 0 12 16" fill="none" xmlns="http://www.w3.org/2000/svg">
<path d="M10.4882 16H1.5127C1.05451 16 0.626288 15.7834 0.33724 15.4065C0.0460504 15.0229 -0.0652868 14.5264 0.037486 14.0435C0.64984 11.1212 3.15707 9 6.00045 9C8.84383 9 11.3511 11.1212 11.9634 14.0435C12.064 14.5264 11.9548 15.0229 11.6637 15.4065C11.3767 15.7834 10.9485 16 10.4882 16ZM6.00045 10.1283C3.65594 10.1283 1.58764 11.8772 1.08234 14.2872C1.05237 14.4339 1.08234 14.5851 1.17227 14.7002C1.22151 14.7634 1.33071 14.8717 1.5127 14.8717H10.4882C10.6702 14.8717 10.7794 14.7634 10.8286 14.7002C10.9164 14.5851 10.9485 14.4339 10.9186 14.2872C10.4133 11.8772 8.34495 10.1283 6.00045 10.1283Z" fill="black"/>
<path d="M6 7.99783C3.79445 7.99783 2 6.20337 2 3.99782C2 1.79228 3.79445 0 6 0C8.20555 0 10 1.79445 10 4C10 6.20555 8.20555 8 6 8V7.99783ZM6 1.08755C4.39478 1.08755 3.08755 2.3926 3.08755 4C3.08755 5.6074 4.3926 6.91245 6 6.91245C7.6074 6.91245 8.91245 5.6074 8.91245 4C8.91245 2.3926 7.6074 1.08755 6 1.08755Z" fill="black"/>
</svg>
