<svg width="60" height="60" viewBox="0 0 60 60" fill="none" xmlns="http://www.w3.org/2000/svg">
<path d="M58.8457 11.2725H46.4599C46.4813 11.2632 46.5053 11.2552 46.5266 11.2472C49.9594 9.81785 50.7082 6.39482 49.6725 3.75169C48.6434 1.12453 45.7819 -0.87446 42.3037 0.388548C37.0638 2.29171 31.9827 7.47416 29.9914 9.67278C28.0001 7.47416 22.919 2.29171 17.6791 0.388548C14.2009 -0.87446 11.3394 1.12453 10.3103 3.75169C9.27463 6.39482 10.0234 9.81785 13.4562 11.2472C13.4775 11.2565 13.5015 11.2645 13.5229 11.2725H1.13581C0.50851 11.2725 0 11.7796 0 12.4051V23.9598C0 24.5853 0.50851 25.0924 1.13581 25.0924H3.63564V58.8489C3.63564 59.4744 4.14415 59.9815 4.77145 59.9815H55.21C55.8373 59.9815 56.3458 59.4744 56.3458 58.8489V25.0924H58.8457C59.473 25.0924 59.9815 24.5853 59.9815 23.9598V12.4051C59.9815 11.7796 59.473 11.2725 58.8457 11.2725ZM43.0805 2.51663C45.2987 1.71011 46.927 2.97046 47.5557 4.5755C48.191 6.19652 47.848 8.24075 45.6511 9.1564C42.8616 10.3183 36.9077 10.8826 32.2977 10.5259C34.4732 8.22345 38.8109 4.06844 43.0805 2.51796V2.51663ZM12.4258 4.5755C12.9196 3.31383 14.0314 2.26642 15.5609 2.26642C15.9774 2.26642 16.4258 2.34494 16.9009 2.51663C21.1639 4.06444 25.5042 8.22212 27.6824 10.5245C23.0738 10.8826 17.1198 10.3169 14.3304 9.15507C12.1335 8.24075 11.7905 6.19519 12.4258 4.57417V4.5755ZM2.27161 13.5377H28.8543V22.8259H2.27161V13.5377ZM5.90726 25.0924H28.8543V57.7163H5.90726V25.0924ZM54.0742 57.7163H31.1272V25.0924H54.0742V57.7163ZM57.7099 22.8272H31.1272V13.539H57.7099V22.8272Z" fill="black"/>
</svg>
