<svg width="26" height="26" viewBox="0 0 26 26" fill="none" xmlns="http://www.w3.org/2000/svg">
<path d="M16.2522 19.5005C21.6387 19.5005 26.0044 15.1308 26.0044 9.74436C26.0044 4.35787 21.6387 0 16.2522 0C10.8657 0 6.50391 4.36572 6.50391 9.74828C6.50391 15.1308 10.8696 19.5044 16.2522 19.5044V19.5005ZM8.94196 9.74436C8.94196 5.71234 12.2241 2.4302 16.2522 2.4302C20.2803 2.4302 23.5663 5.71234 23.5663 9.74436C23.5663 13.7764 20.2842 17.0585 16.2522 17.0585C12.2202 17.0585 8.94196 13.7803 8.94196 9.74436Z" fill="#8D8D8D"/>
<path d="M4.16353 25.2874L10.1311 19.3199C8.74518 18.4365 7.57131 17.2587 6.68403 15.8807L0.712571 21.8365C-0.237524 22.7866 -0.237524 24.3334 0.712571 25.2874C1.66659 26.2375 3.20951 26.2375 4.16353 25.2874Z" fill="#8D8D8D"/>
</svg>
