<svg width="111" height="55" viewBox="0 0 111 55" fill="none" xmlns="http://www.w3.org/2000/svg">
<path fill-rule="evenodd" clip-rule="evenodd" d="M31.0825 44.425C35.0773 33.8332 45.4476 41.7019 40.6483 47.9921C39.5511 49.4297 37.069 51.0176 34.3224 50.2217C31.8695 49.5106 30.9487 47.6687 31.0686 44.6997C31.0721 44.6089 31.077 44.5177 31.0825 44.425ZM87.4021 48.4275C84.3335 42.1051 91.9007 37.1221 96.007 40.6218C98.077 42.3858 97.9868 45.6806 96.2864 47.8646C94.198 50.5455 88.6563 51.3653 87.4021 48.428V48.4275ZM83.8263 42.9531C83.1675 43.9489 80.4338 43.5363 79.3069 43.3781C78.8953 41.2541 81.9951 19.8008 82.2531 14.9483L92.7784 14.859C97.5539 14.8863 103.255 22.8314 105.883 26.3365C107.659 28.7055 106.818 31.4141 106.493 34.5582C106.332 36.1233 106.093 42.2905 105.051 42.9551C104.157 43.4535 102.525 43.2437 101.339 43.2472C100.609 42.7448 101.016 43.1757 100.685 42.0475C99.3277 37.4236 95.2219 35.3016 90.8263 36.3197C88.0178 36.9704 84.0933 40.0083 83.8263 42.9531ZM76.1398 41.993C76.0669 43.5809 75.4027 43.3632 73.2094 43.3607H60.7345C59.882 43.3607 45.7938 43.6846 45.3252 43.1485C44.9988 42.7746 45.1424 42.7537 45.0993 42.1968C43.7733 34.2989 31.2206 34.6406 28.5211 41.8943C28.4082 42.1814 28.3086 42.4056 28.1996 42.6714C28.0268 43.0924 28.0515 43.0592 27.949 43.3181L22.3131 43.3731C21.1065 43.325 20.8623 42.9085 20.9088 41.7103C20.9797 39.87 21.1159 31.434 23.0417 31.3427C23.7937 31.307 24.7348 31.3591 25.5115 31.3591C27.1535 31.3591 28.9867 31.4434 30.601 31.2951C32.3069 31.2108 32.3792 28.7739 31.4351 28.7491C25.1325 28.583 5.6046 28.2567 2.0506 28.1793C0.792952 28.4644 1.07678 28.8195 1 30.4174C1.14959 31.1786 1.57508 31.2242 1.99562 31.3675L18.6625 31.4013C18.8374 32.3227 18.5119 34.0008 18.4416 34.8037L17.7992 41.4182C17.607 43.8591 17.8328 45.142 20.1312 46.3585C21.5875 46.5237 22.8124 46.5256 24.2885 46.5247L27.208 46.5658L27.9104 48.0243C28.9694 51.093 30.3796 52.4414 33.3402 53.4908C35.0961 53.6242 35.6593 53.6936 37.4613 53.5443C39.2539 53.4437 41.4408 52.0045 42.3498 51.1669C43.7015 49.9207 44.1661 48.4786 45.1266 46.6447L83.1427 46.6605C84.2255 49.9291 85.0983 52.2733 88.8207 53.4357C93.8449 55.0043 98.501 52.0427 100.701 46.6551C102.591 46.609 108.651 47.2789 108.866 42.9248C109.087 38.0782 111.275 31.0586 109.908 26.7129C109.201 24.4649 108.233 23.9169 107.038 22.4837C105.94 21.1681 104.826 19.9213 103.746 18.6751C95.7891 9.49721 97.2052 12.0313 82.7192 11.6014C82.852 9.11337 83.7049 5.86166 82.9803 3.55814C82.7504 2.69227 82.2378 1.39992 80.4169 1.25263C76.4974 0.796885 38.189 1.09691 30.8932 1.09691C28.321 1.09691 25.2361 0.697702 23.5331 1.97171C19.9142 4.68039 22.7322 7.26063 20.574 7.79374L19.1603 7.86714C16.5529 7.83837 10.71 7.04342 12.2817 10.3259C12.7592 11.3232 13.8256 11.2527 15.2319 11.2433L38.9736 11.2448C43.6218 11.2706 41.9669 8.13245 40.417 7.88747L24.6917 7.86069C24.4985 4.24299 25.5134 4.49293 28.6915 4.49938C36.3136 4.51476 78.8249 4.20679 79.4877 4.71015C79.9231 5.11332 79.8721 4.87132 79.9132 5.62957C78.7036 17.7611 77.3414 29.8882 76.1407 41.993H76.1398Z" fill="black" stroke="white" stroke-width="0.6"/>
<path fill-rule="evenodd" clip-rule="evenodd" d="M84.4347 27.918C90.0746 27.918 96.5882 27.9016 102.533 27.9219C102.311 27.3477 95.123 19.172 94.6698 18.929C93.3101 18.201 86.9867 18.0602 85.4259 18.6221C85.0539 19.7845 84.3956 26.3881 84.4342 27.9175L84.4347 27.918Z" fill="black" stroke="white" stroke-width="0.6"/>
<path fill-rule="evenodd" clip-rule="evenodd" d="M7.89813 17.9821L34.5603 17.984C36.7844 17.984 37.2539 17.1301 36.6194 15.0879C36.1335 14.8479 35.6486 14.6113 34.805 14.6113H8.14282C6.62067 14.6133 5.46506 14.6014 5.38828 16.2042C5.31349 17.7688 6.44086 17.9821 7.89813 17.9821Z" fill="black" stroke="white" stroke-width="0.6"/>
<path fill-rule="evenodd" clip-rule="evenodd" d="M11.7909 24.7233L41.5836 24.7253C44.0692 24.7253 44.5933 23.8713 43.8849 21.8291C43.342 21.5891 42.8002 21.3525 41.857 21.3525H12.0644C10.3634 21.3545 9.07206 21.3426 8.98636 22.9454C8.90265 24.51 10.1623 24.7233 11.7909 24.7233Z" fill="black" stroke="white" stroke-width="0.6"/>
</svg>
