<svg width="16" height="16" viewBox="0 0 16 16" fill="none" xmlns="http://www.w3.org/2000/svg">
<path d="M11.0847 16H4.91525C2.75636 16 1 14.2474 1 12.093V9.52854C1 9.23679 1.23729 9 1.52966 9C1.82203 9 2.05932 9.23679 2.05932 9.52854V12.093C2.05932 13.6638 3.3411 14.9429 4.91525 14.9429H11.0847C12.6589 14.9429 13.9407 13.6638 13.9407 12.093V9.52854C13.9407 9.23679 14.178 9 14.4703 9C14.7627 9 15 9.23679 15 9.52854V12.093C15 14.2474 13.2436 16 11.0847 16Z" fill="black"/>
<path d="M9.49512 4C9.24686 4 9.03263 3.78935 8.9986 3.50086L8.72831 1.14253H6.26569L5.9954 3.50086C5.95936 3.81454 5.70909 4.03663 5.4348 3.99313C5.16051 3.95192 4.9683 3.66342 5.00434 3.35203L5.33269 0.496852C5.36473 0.212936 5.57695 0 5.82922 0H9.17078C9.42105 0 9.63527 0.212936 9.66731 0.496852L9.99566 3.35203C10.0317 3.66571 9.83949 3.95192 9.5652 3.99313C9.54318 3.99542 9.52115 3.99771 9.49913 3.99771L9.49512 4Z" fill="black"/>
<path d="M8.08008 10H7.92059C7.08016 10 6.28062 9.61357 5.72647 8.93896C5.17232 8.26435 4.91467 7.36487 5.02509 6.47412C5.0619 6.17503 5.3175 5.96544 5.59765 6.00474C5.87779 6.04403 6.0741 6.31693 6.03729 6.61603C5.96572 7.19458 6.1334 7.77968 6.49329 8.21851C6.85318 8.65733 7.37461 8.9084 7.92059 8.9084H8.08008C8.62606 8.9084 9.14545 8.65733 9.50738 8.21851C9.86932 7.77968 10.035 7.19458 9.96338 6.61603C9.92657 6.31693 10.1249 6.04403 10.403 6.00474C10.6832 5.96762 10.9388 6.17721 10.9756 6.47412C11.084 7.36487 10.8283 8.26217 10.2742 8.93896C9.72005 9.61357 8.92051 10 8.08008 10Z" fill="black"/>
<path d="M3.06427 10C2.04924 10 1.10073 9.49893 0.52991 8.65739C-0.0409108 7.81799 -0.158938 6.75589 0.216602 5.81585L1.0621 3.67024C1.93979 1.44111 4.05998 0 6.46344 0C6.61795 0 6.76387 0.0663812 6.86688 0.182013C6.96988 0.297645 7.01495 0.45182 6.99563 0.603854L6.6437 3.27409C6.60507 3.56745 6.33683 3.77516 6.04283 3.73448C5.74884 3.69593 5.54283 3.42612 5.58146 3.1349L5.84755 1.10921C4.15011 1.32762 2.7016 2.43897 2.05997 4.0621L1.21447 6.20985C0.967682 6.83083 1.04279 7.50321 1.41833 8.05782C1.79602 8.61242 2.39473 8.92934 3.06427 8.92934C4.06213 8.92934 4.91192 8.1863 5.04068 7.19914L5.13081 6.53961C5.17158 6.24625 5.43982 6.04283 5.73382 6.08137C6.02781 6.12206 6.23382 6.38972 6.19305 6.68308L6.10292 7.34047C5.90549 8.85653 4.59862 10 3.06212 10H3.06427Z" fill="black"/>
<path d="M12.9388 9.99572C11.402 9.99572 10.0948 8.85035 9.89729 7.33248L9.80929 6.67951C9.7685 6.38621 9.97456 6.11646 10.2686 6.07793C10.5627 6.03939 10.8331 6.24277 10.8718 6.53607L10.9619 7.19332C11.0907 8.1824 11.9407 8.92528 12.9388 8.92528C13.6085 8.92528 14.2095 8.60843 14.5851 8.05395C14.9608 7.50161 15.0359 6.82937 14.789 6.20852L13.9412 4.05909C13.5935 3.17491 12.9925 2.42346 12.2026 1.88825C11.5844 1.46864 10.8868 1.20317 10.1527 1.10897L10.4189 3.13423C10.4575 3.42753 10.2515 3.69514 9.95739 3.73368C9.66333 3.77435 9.39502 3.56669 9.35639 3.27339L9.00437 0.603725C8.98505 0.451723 9.03013 0.297581 9.13316 0.181974C9.23618 0.0663669 9.38214 0 9.53669 0C10.7086 0 11.8398 0.346821 12.8079 1.00621C13.7759 1.6656 14.5143 2.58617 14.9393 3.67159L15.785 5.81888C16.1585 6.75658 16.0404 7.8206 15.4695 8.65767C14.8985 9.4969 13.9498 10 12.9345 10L12.9388 9.99572Z" fill="black"/>
</svg>
