<svg width="235" height="73" viewBox="0 0 235 73" fill="none" xmlns="http://www.w3.org/2000/svg">
<path d="M200.228 69.8809C200.228 70.2764 200.176 70.6499 200.074 71.0015C199.976 71.3481 199.825 71.6509 199.62 71.9097C199.415 72.1685 199.153 72.3735 198.836 72.5249C198.523 72.6763 198.152 72.752 197.723 72.752C197.464 72.752 197.232 72.7275 197.027 72.6787C196.822 72.6348 196.634 72.564 196.463 72.4663C196.297 72.3638 196.141 72.2344 195.994 72.0781C195.853 71.9219 195.716 71.7363 195.584 71.5215L195.569 72.6494L194.28 72.4736L194.515 69.1191L195.599 69.1631C195.643 69.4219 195.711 69.6929 195.804 69.9761C195.896 70.2544 196.019 70.5107 196.17 70.7451C196.326 70.9795 196.517 71.1724 196.741 71.3237C196.971 71.4751 197.244 71.5508 197.562 71.5508C197.815 71.5508 198.028 71.5093 198.199 71.4263C198.375 71.3433 198.516 71.2285 198.624 71.082C198.731 70.9355 198.807 70.7622 198.851 70.562C198.899 70.3618 198.924 70.1445 198.924 69.9102C198.924 69.6465 198.88 69.4121 198.792 69.207C198.709 68.9971 198.592 68.814 198.44 68.6577C198.289 68.4966 198.111 68.3599 197.906 68.2476C197.706 68.1304 197.488 68.0303 197.254 67.9473C196.985 67.8545 196.727 67.7568 196.478 67.6543C196.233 67.5518 196.004 67.4395 195.789 67.3174C195.574 67.1904 195.376 67.0513 195.196 66.8999C195.02 66.7437 194.869 66.5654 194.742 66.3652C194.615 66.165 194.515 65.938 194.441 65.6841C194.373 65.4302 194.339 65.1396 194.339 64.8125C194.339 64.4072 194.4 64.0337 194.522 63.6919C194.644 63.3501 194.82 63.0571 195.049 62.813C195.279 62.564 195.557 62.3711 195.884 62.2344C196.211 62.0977 196.58 62.0293 196.99 62.0293C197.249 62.0293 197.471 62.0537 197.657 62.1025C197.847 62.1514 198.016 62.2271 198.162 62.3296C198.309 62.4321 198.443 62.5615 198.565 62.7178C198.687 62.8691 198.812 63.0498 198.938 63.2598L198.953 62.0586L200.228 62.0879L200.066 65.8232L198.924 65.7793C198.89 65.5986 198.851 65.4131 198.807 65.2227C198.768 65.0273 198.714 64.8394 198.646 64.6587C198.577 64.478 198.497 64.3071 198.404 64.146C198.311 63.98 198.199 63.8359 198.067 63.7139C197.94 63.5918 197.791 63.4966 197.62 63.4282C197.449 63.355 197.254 63.3184 197.034 63.3184C196.81 63.3184 196.614 63.3623 196.448 63.4502C196.287 63.5332 196.153 63.6479 196.045 63.7944C195.938 63.936 195.857 64.1021 195.804 64.2925C195.755 64.478 195.73 64.6709 195.73 64.8711C195.73 65.1543 195.777 65.396 195.87 65.5962C195.962 65.7964 196.087 65.9697 196.243 66.1162C196.404 66.2578 196.59 66.3799 196.8 66.4824C197.01 66.585 197.234 66.6777 197.474 66.7607C197.84 66.8926 198.189 67.0488 198.521 67.2295C198.853 67.4102 199.146 67.625 199.4 67.874C199.654 68.123 199.854 68.4136 200 68.7456C200.152 69.0728 200.228 69.4512 200.228 69.8809Z" fill="black"/>
<path d="M185.938 65.0615L184.854 65.1348L184.708 63.626L182.042 63.6846L182.013 66.9512H184.239V68.0059L181.998 68.1377L181.969 71.4043L184.708 71.3018V69.6904H185.792L185.865 72.6055L179.903 72.752L179.859 71.4043H180.724L180.709 63.6846L179.801 63.7139L179.874 62.293L185.865 62.2197L185.938 65.0615Z" fill="black"/>
<path d="M171.568 63.5381L170.719 63.6113L170.499 72.7227L169.225 72.752L165.929 64.7832L166.002 71.2432L166.998 71.2139V72.5322L163.863 72.6055L163.819 71.2432H164.684L164.596 63.7578L163.688 63.7871L163.761 62.3662H166.222L169.327 70.1445V63.6113L168.404 63.6406L168.478 62.2197H171.466L171.568 63.5381Z" fill="black"/>
<path d="M155.286 66.9658C155.286 67.3613 155.274 67.7837 155.25 68.2329C155.225 68.6821 155.171 69.1265 155.088 69.5659C155.01 70.0054 154.893 70.4302 154.737 70.8403C154.585 71.2456 154.38 71.6021 154.122 71.9097C153.868 72.2173 153.553 72.4639 153.177 72.6494C152.801 72.835 152.352 72.9277 151.829 72.9277C151.419 72.9277 151.062 72.8521 150.76 72.7007C150.457 72.5542 150.196 72.3564 149.976 72.1074C149.761 71.8584 149.583 71.5703 149.441 71.2432C149.3 70.916 149.188 70.5767 149.104 70.2251C149.021 69.8687 148.963 69.5098 148.929 69.1484C148.899 68.7871 148.885 68.4502 148.885 68.1377C148.885 67.7422 148.899 67.3149 148.929 66.856C148.958 66.397 149.017 65.9404 149.104 65.4863C149.192 65.0322 149.314 64.5952 149.471 64.1753C149.632 63.7554 149.842 63.3843 150.101 63.062C150.364 62.7397 150.684 62.4834 151.06 62.293C151.436 62.0977 151.883 62 152.4 62C152.811 62 153.167 62.0806 153.47 62.2417C153.777 62.3979 154.036 62.6104 154.246 62.8789C154.461 63.1426 154.634 63.4453 154.766 63.7871C154.903 64.1289 155.01 64.4854 155.088 64.8564C155.167 65.2227 155.218 65.5889 155.242 65.9551C155.271 66.3164 155.286 66.6533 155.286 66.9658ZM153.851 67.0537C153.851 66.8877 153.846 66.6826 153.836 66.4385C153.826 66.1895 153.804 65.9307 153.77 65.6621C153.736 65.3887 153.685 65.1152 153.616 64.8418C153.548 64.5684 153.453 64.3242 153.331 64.1094C153.213 63.8896 153.064 63.7139 152.884 63.582C152.708 63.4453 152.493 63.377 152.239 63.377C151.917 63.377 151.644 63.4648 151.419 63.6406C151.199 63.8115 151.016 64.0386 150.87 64.3218C150.723 64.605 150.608 64.9248 150.525 65.2812C150.442 65.6328 150.381 65.9893 150.342 66.3506C150.303 66.7119 150.279 67.061 150.269 67.3979C150.264 67.73 150.262 68.0156 150.262 68.2549C150.262 68.4355 150.267 68.6431 150.276 68.8774C150.286 69.1069 150.308 69.3438 150.342 69.5879C150.381 69.8271 150.438 70.064 150.511 70.2983C150.584 70.5278 150.679 70.7329 150.796 70.9136C150.918 71.0942 151.07 71.2407 151.25 71.353C151.431 71.4653 151.648 71.5215 151.902 71.5215C152.22 71.5215 152.488 71.4409 152.708 71.2798C152.928 71.1187 153.108 70.9087 153.25 70.6499C153.396 70.3862 153.509 70.0908 153.587 69.7637C153.67 69.4365 153.731 69.1094 153.77 68.7822C153.809 68.4502 153.831 68.1328 153.836 67.8301C153.846 67.5273 153.851 67.2686 153.851 67.0537Z" fill="black"/>
<path d="M140.667 65.3252L139.539 65.4717L139.466 63.4941L138.25 63.5381L138.177 71.2432L139.202 71.2139L139.129 72.5322L136.111 72.6055L136.067 71.2432H136.932L136.917 63.6113L135.599 63.6992L135.672 65.5449H134.456L134.529 62.3662L140.521 62.1465L140.667 65.3252Z" fill="black"/>
<path d="M126.121 69.8809C126.121 70.2764 126.07 70.6499 125.967 71.0015C125.87 71.3481 125.718 71.6509 125.513 71.9097C125.308 72.1685 125.047 72.3735 124.729 72.5249C124.417 72.6763 124.046 72.752 123.616 72.752C123.357 72.752 123.125 72.7275 122.92 72.6787C122.715 72.6348 122.527 72.564 122.356 72.4663C122.19 72.3638 122.034 72.2344 121.888 72.0781C121.746 71.9219 121.609 71.7363 121.478 71.5215L121.463 72.6494L120.174 72.4736L120.408 69.1191L121.492 69.1631C121.536 69.4219 121.604 69.6929 121.697 69.9761C121.79 70.2544 121.912 70.5107 122.063 70.7451C122.22 70.9795 122.41 71.1724 122.635 71.3237C122.864 71.4751 123.138 71.5508 123.455 71.5508C123.709 71.5508 123.921 71.5093 124.092 71.4263C124.268 71.3433 124.41 71.2285 124.517 71.082C124.625 70.9355 124.7 70.7622 124.744 70.562C124.793 70.3618 124.817 70.1445 124.817 69.9102C124.817 69.6465 124.773 69.4121 124.686 69.207C124.603 68.9971 124.485 68.814 124.334 68.6577C124.183 68.4966 124.004 68.3599 123.799 68.2476C123.599 68.1304 123.382 68.0303 123.147 67.9473C122.879 67.8545 122.62 67.7568 122.371 67.6543C122.127 67.5518 121.897 67.4395 121.683 67.3174C121.468 67.1904 121.27 67.0513 121.089 66.8999C120.914 66.7437 120.762 66.5654 120.635 66.3652C120.508 66.165 120.408 65.938 120.335 65.6841C120.267 65.4302 120.232 65.1396 120.232 64.8125C120.232 64.4072 120.293 64.0337 120.416 63.6919C120.538 63.3501 120.713 63.0571 120.943 62.813C121.172 62.564 121.451 62.3711 121.778 62.2344C122.105 62.0977 122.474 62.0293 122.884 62.0293C123.143 62.0293 123.365 62.0537 123.55 62.1025C123.741 62.1514 123.909 62.2271 124.056 62.3296C124.202 62.4321 124.336 62.5615 124.458 62.7178C124.581 62.8691 124.705 63.0498 124.832 63.2598L124.847 62.0586L126.121 62.0879L125.96 65.8232L124.817 65.7793C124.783 65.5986 124.744 65.4131 124.7 65.2227C124.661 65.0273 124.607 64.8394 124.539 64.6587C124.471 64.478 124.39 64.3071 124.297 64.146C124.205 63.98 124.092 63.8359 123.96 63.7139C123.833 63.5918 123.685 63.4966 123.514 63.4282C123.343 63.355 123.147 63.3184 122.928 63.3184C122.703 63.3184 122.508 63.3623 122.342 63.4502C122.181 63.5332 122.046 63.6479 121.939 63.7944C121.832 63.936 121.751 64.1021 121.697 64.2925C121.648 64.478 121.624 64.6709 121.624 64.8711C121.624 65.1543 121.67 65.396 121.763 65.5962C121.856 65.7964 121.98 65.9697 122.137 66.1162C122.298 66.2578 122.483 66.3799 122.693 66.4824C122.903 66.585 123.128 66.6777 123.367 66.7607C123.733 66.8926 124.083 67.0488 124.415 67.2295C124.747 67.4102 125.04 67.625 125.293 67.874C125.547 68.123 125.748 68.4136 125.894 68.7456C126.045 69.0728 126.121 69.4512 126.121 69.8809Z" fill="black"/>
<path d="M102.12 62.2197L102.003 63.6113H101.241L98.3262 67.2734L101.109 71.4043L101.915 71.3604L101.988 72.6787L98.9707 72.8252L98.8535 71.4775H99.7178L97.1836 67.625L97.1543 71.2432L98.1797 71.2139L98.1064 72.5322L95.0889 72.6055L95.0449 71.2432H95.9092L95.8945 63.7578L94.9863 63.7871L95.0596 62.3662H97.96L98.0771 63.6846L97.2275 63.7578L97.1982 66.9072L99.835 63.5381L98.9121 63.4209L99 62.1465L102.12 62.2197Z" fill="black"/>
<path d="M86.6357 65.0615L85.5518 65.1348L85.4053 63.626L82.7393 63.6846L82.71 66.9512H84.9365V68.0059L82.6953 68.1377L82.666 71.4043L85.4053 71.3018V69.6904H86.4893L86.5625 72.6055L80.6006 72.752L80.5566 71.4043H81.4209L81.4062 63.6846L80.498 63.7139L80.5713 62.293L86.5625 62.2197L86.6357 65.0615Z" fill="black"/>
<path d="M72.1494 65.0615L71.0654 65.1348L70.9189 63.626L68.2529 63.6846L68.2236 66.9512H70.4502V68.0059L68.209 68.1377L68.1797 71.4043L70.9189 71.3018V69.6904H72.0029L72.0762 72.6055L66.1143 72.752L66.0703 71.4043H66.9346L66.9199 63.6846L66.0117 63.7139L66.085 62.293L72.0762 62.2197L72.1494 65.0615Z" fill="black"/>
<path d="M57.8672 69.6904L57.7939 72.6787L52.0225 72.6055L51.9492 71.1846L52.8574 71.2139L52.8721 63.7139H52.0078L52.0518 62.3662H55.2305V63.6699L54.1904 63.7139L54.1172 71.2139L56.5635 71.2725L56.6367 69.6172L57.8672 69.6904Z" fill="black"/>
<path d="M43.416 69.8809C43.416 70.2764 43.3647 70.6499 43.2622 71.0015C43.1646 71.3481 43.0132 71.6509 42.8081 71.9097C42.603 72.1685 42.3418 72.3735 42.0244 72.5249C41.7119 72.6763 41.3408 72.752 40.9111 72.752C40.6523 72.752 40.4204 72.7275 40.2153 72.6787C40.0103 72.6348 39.8223 72.564 39.6514 72.4663C39.4854 72.3638 39.3291 72.2344 39.1826 72.0781C39.041 71.9219 38.9043 71.7363 38.7725 71.5215L38.7578 72.6494L37.4688 72.4736L37.7031 69.1191L38.7871 69.1631C38.8311 69.4219 38.8994 69.6929 38.9922 69.9761C39.085 70.2544 39.207 70.5107 39.3584 70.7451C39.5146 70.9795 39.7051 71.1724 39.9297 71.3237C40.1592 71.4751 40.4326 71.5508 40.75 71.5508C41.0039 71.5508 41.2163 71.5093 41.3872 71.4263C41.563 71.3433 41.7046 71.2285 41.812 71.082C41.9194 70.9355 41.9951 70.7622 42.0391 70.562C42.0879 70.3618 42.1123 70.1445 42.1123 69.9102C42.1123 69.6465 42.0684 69.4121 41.9805 69.207C41.8975 68.9971 41.7803 68.814 41.6289 68.6577C41.4775 68.4966 41.2993 68.3599 41.0942 68.2476C40.894 68.1304 40.6768 68.0303 40.4424 67.9473C40.1738 67.8545 39.915 67.7568 39.666 67.6543C39.4219 67.5518 39.1924 67.4395 38.9775 67.3174C38.7627 67.1904 38.5649 67.0513 38.3843 66.8999C38.2085 66.7437 38.0571 66.5654 37.9302 66.3652C37.8032 66.165 37.7031 65.938 37.6299 65.6841C37.5615 65.4302 37.5273 65.1396 37.5273 64.8125C37.5273 64.4072 37.5884 64.0337 37.7104 63.6919C37.8325 63.3501 38.0083 63.0571 38.2378 62.813C38.4673 62.564 38.7456 62.3711 39.0728 62.2344C39.3999 62.0977 39.7686 62.0293 40.1787 62.0293C40.4375 62.0293 40.6597 62.0537 40.8452 62.1025C41.0356 62.1514 41.2041 62.2271 41.3506 62.3296C41.4971 62.4321 41.6313 62.5615 41.7534 62.7178C41.8755 62.8691 42 63.0498 42.127 63.2598L42.1416 62.0586L43.416 62.0879L43.2549 65.8232L42.1123 65.7793C42.0781 65.5986 42.0391 65.4131 41.9951 65.2227C41.9561 65.0273 41.9023 64.8394 41.834 64.6587C41.7656 64.478 41.6851 64.3071 41.5923 64.146C41.4995 63.98 41.3872 63.8359 41.2554 63.7139C41.1284 63.5918 40.9795 63.4966 40.8086 63.4282C40.6377 63.355 40.4424 63.3184 40.2227 63.3184C39.998 63.3184 39.8027 63.3623 39.6367 63.4502C39.4756 63.5332 39.3413 63.6479 39.2339 63.7944C39.1265 63.936 39.0459 64.1021 38.9922 64.2925C38.9434 64.478 38.9189 64.6709 38.9189 64.8711C38.9189 65.1543 38.9653 65.396 39.0581 65.5962C39.1509 65.7964 39.2754 65.9697 39.4316 66.1162C39.5928 66.2578 39.7783 66.3799 39.9883 66.4824C40.1982 66.585 40.4229 66.6777 40.6621 66.7607C41.0283 66.8926 41.3774 67.0488 41.7095 67.2295C42.0415 67.4102 42.3345 67.625 42.5884 67.874C42.8423 68.123 43.0425 68.4136 43.189 68.7456C43.3403 69.0728 43.416 69.4512 43.416 69.8809Z" fill="black"/>
<path d="M50.8137 10.0098L48.5468 10.0213C45.9574 9.939 43.3607 11.2958 41.7537 12.628V10.4977H33.832V41.5641H41.7537V24.4379C41.7537 19.8021 44.5072 18.1005 47.6293 18.1005H50.8137V10.0106V10.0098Z" fill="black"/>
<path d="M97.1011 10.1043L97.0978 10.1488C94.4641 10.1907 91.9806 10.8227 89.7868 12.0816H89.7532L89.6867 12.1194C87.4642 13.4038 85.6939 15.2996 84.4242 17.629H84.3889L84.3093 17.7821C83.0511 20.1905 82.4512 22.9584 82.4512 25.9765C82.4512 28.9946 83.0487 31.7741 84.3003 34.2064L84.3052 34.2179L84.3167 34.2385L84.3257 34.25C85.5987 36.646 87.4075 38.5928 89.667 39.9373L89.7326 39.9768H89.7794C92.0463 41.2801 94.6037 41.9475 97.3162 41.9475C100.029 41.9475 102.735 41.267 104.928 39.883H104.972L105.042 39.8361C105.261 39.6938 105.399 39.5456 105.564 39.391V41.564H113.486V10.4968H105.564V12.6271C105.409 12.4831 105.283 12.3465 105.076 12.2149H105.073C102.863 10.7922 100.229 10.1085 97.3638 10.1085L97.1019 10.1035L97.1011 10.1043ZM97.921 17.6208H97.9916C99.4394 17.6208 100.647 17.9483 101.788 18.6205L101.855 18.6575C102.987 19.3224 103.843 20.2036 104.526 21.4716C105.201 22.7247 105.564 24.1984 105.564 26.0275C105.564 27.8567 105.201 29.3336 104.526 30.586C103.843 31.8531 102.987 32.7327 101.855 33.3975L101.788 33.437C100.647 34.1093 99.4385 34.4351 97.9916 34.4351C96.4618 34.4351 95.2143 34.1134 94.0858 33.4773H94.0825C92.9679 32.8174 92.1144 31.9239 91.4201 30.6419H91.4168C90.7692 29.3542 90.4171 27.8353 90.4171 25.9749C90.4171 24.1145 90.7783 22.5676 91.4119 21.3654C92.1078 20.0777 92.9556 19.208 94.0661 18.5786C95.1782 17.9483 96.4191 17.6389 97.9186 17.6274L97.9202 17.6208H97.921Z" fill="black"/>
<path d="M146.167 0.669768L138.246 0.694453V12.3077C138.032 12.116 137.842 11.9259 137.56 11.7556C135.33 10.4062 132.786 9.72737 130.092 9.72737C127.397 9.72737 124.785 10.3906 122.515 11.6939H122.482L122.416 11.7318C120.197 13.0145 118.429 14.907 117.159 17.2307H117.13L117.066 17.3541C117.066 17.3541 117.076 17.3426 117.086 17.3319C117.076 17.35 117.06 17.3631 117.051 17.3804C115.754 19.7913 115.131 22.5666 115.131 25.5921C115.131 28.6177 115.731 31.3889 116.982 33.822L116.986 33.8335L116.997 33.8541H117L117.005 33.8656C118.278 36.2633 120.09 38.2076 122.349 39.5521L122.416 39.5916H122.46C124.732 40.8974 127.306 41.5623 130.046 41.5623C132.785 41.5623 135.517 40.876 137.748 39.4624L137.772 39.4468L137.806 39.4139C137.988 39.2896 138.108 39.1629 138.25 39.028V41.1657H146.169L146.167 0.668945V0.669768ZM130.603 17.2315H130.674C132.122 17.2315 133.326 17.559 134.468 18.2312L134.534 18.2691H134.538C135.67 18.9331 136.529 19.8151 137.211 21.0823C137.885 22.3354 138.246 23.8099 138.246 25.6382C138.246 27.4665 137.885 28.9443 137.211 30.1966C136.529 31.4638 135.67 32.3434 134.538 33.0082H134.534L134.468 33.0477C133.326 33.72 132.121 34.0458 130.674 34.0458C129.146 34.0458 127.898 33.7224 126.77 33.088H126.767C125.654 32.4298 124.797 31.5395 124.105 30.2633C123.454 28.9739 123.101 27.4517 123.101 25.5856C123.101 23.7194 123.46 22.1783 124.094 20.9761C124.789 19.6876 125.637 18.8179 126.747 18.1892C127.859 17.559 129.103 17.2488 130.602 17.2372V17.2315H130.603Z" fill="black"/>
<path d="M158.541 10.4966V28.2645C158.541 32.3992 159.711 35.9546 162.223 38.433L162.236 38.4461C164.67 40.8076 167.932 41.9999 171.564 41.9999C173.897 41.9999 176.106 41.4782 178.066 40.4168C178.178 40.3559 178.226 40.2991 178.311 40.23V41.563H186.233V10.4966H178.311V27.1957C178.311 29.9719 177.667 31.6949 176.649 32.781C175.557 33.9453 174.274 34.4949 172.192 34.4949C170.11 34.4949 168.941 33.9757 167.928 32.9209C166.997 31.9187 166.413 30.38 166.413 27.877V10.4966H158.54H158.541Z" fill="black"/>
<path d="M152.466 0.00246846C151.247 0.00246846 150.021 0.520845 149.155 1.37246H149.148C148.241 2.24054 147.729 3.51426 147.729 4.74438C147.729 5.97449 148.232 7.25974 149.117 8.14756C149.986 9.0181 151.232 9.54059 152.463 9.54059C153.694 9.54059 154.941 9.0181 155.809 8.14756C156.695 7.25974 157.199 5.98601 157.199 4.74438C157.199 3.50274 156.685 2.24054 155.778 1.37246H155.775C154.91 0.520845 153.683 0.00082282 152.464 0L152.466 0.00246846ZM148.505 10.4975V41.5631H156.427V10.4975H148.505Z" fill="black"/>
<path d="M66.1352 9.73486H65.8734C63.0452 9.73486 60.3852 10.3972 58.0338 11.7261C55.7309 12.9965 53.8744 14.8742 52.5317 17.1978H52.5029L52.4209 17.3418C51.0412 19.7634 50.3789 22.5791 50.3789 25.6515C50.3789 28.7239 51.0207 31.5363 52.3544 33.9809L52.3675 34.0023L52.3741 34.0138H52.3815C53.7234 36.3654 55.5938 38.2653 57.8926 39.5942L57.9123 39.6098L57.9476 39.6312H57.9567C60.3072 40.923 62.9573 41.5632 65.779 41.5632C68.6007 41.5632 71.1925 40.9255 73.5455 39.6723H73.6292L73.7244 39.5794C76.0824 38.2497 77.9939 36.3342 79.3349 33.943C80.2927 32.2357 80.9058 30.349 81.1881 28.3273L81.2324 28.0039H73.1384L73.09 28.2261C72.9144 29.0135 72.6386 29.6833 72.3054 30.2881H72.2611L72.2258 30.4633C71.5101 31.7091 70.6566 32.5533 69.5601 33.1548C68.3988 33.7587 67.1824 34.0574 65.779 34.0574C64.3756 34.0574 63.165 33.7596 62.0061 33.1572C60.9466 32.5599 60.1004 31.7157 59.3814 30.4633H59.3782C58.7298 29.248 58.3523 27.6781 58.3523 25.6433C58.3523 23.6084 58.7331 22.0459 59.3765 20.8717C60.0988 19.5815 60.949 18.753 62.0307 18.1869L62.0595 18.1712L62.0751 18.1581C63.2331 17.5294 64.4355 17.2225 65.8282 17.2225C67.221 17.2225 68.4267 17.5278 69.5855 18.1581L69.6093 18.1762L69.6274 18.1877C70.7091 18.753 71.5561 19.5848 72.2783 20.875L72.2832 20.8882L72.2947 20.9063C72.6444 21.5193 72.916 22.2343 73.0974 23.0703L73.1458 23.2941H81.2357L81.1914 22.9707C80.9107 20.9417 80.2993 19.0566 79.3382 17.364C78.0185 14.9524 76.0988 13.0253 73.7121 11.7277H73.708C71.4346 10.445 68.8641 9.81303 66.1409 9.77189L66.1377 9.73569L66.1352 9.73486Z" fill="black"/>
<path d="M202.887 10.0135C200.641 10.0135 198.504 10.5484 196.611 11.6123H196.604C196.503 11.6674 196.459 11.7209 196.381 11.7826V10.4965H188.459V41.5629H196.381V24.9115C196.381 22.1279 197.018 20.363 198.026 19.2431C199.099 18.0508 200.308 17.516 202.305 17.516C204.303 17.516 205.398 18.0155 206.352 19.0613C207.261 20.0577 207.84 21.6161 207.84 24.134V41.5629H215.713V24.9115C215.713 22.1279 216.351 20.363 217.358 19.2431C218.431 18.0508 219.641 17.516 221.638 17.516C223.634 17.516 224.676 18.0097 225.636 19.0613C226.546 20.0577 227.127 21.6161 227.127 24.134V41.5629H235V23.7456C235 19.6257 233.857 16.095 231.38 13.6422C229.016 11.2395 225.8 10.0103 222.22 10.0103C219.637 10.0103 217.192 10.7047 215.083 12.0722C214.136 12.6811 213.351 13.471 212.648 14.3292C211.914 13.4447 211.09 12.6383 210.11 12.0188H210.106C208.008 10.671 205.537 10.0103 202.884 10.0103L202.887 10.0127V10.0135Z" fill="black"/>
<path d="M14.65 10.1043L14.6467 10.1488C12.013 10.1907 9.52944 10.8227 7.33564 12.0816H7.30282L7.23634 12.1194C5.01381 13.4038 3.24351 15.2996 1.97302 17.629H1.93773L1.85812 17.7821C0.59913 20.1896 0 22.9576 0 25.9757C0 28.9938 0.598309 31.7733 1.84909 34.2055L1.8532 34.2171L1.86469 34.2376L1.87372 34.2492C3.14666 36.6452 4.95554 38.592 7.215 39.9365L7.28066 39.976H7.32744C9.59428 41.2793 12.1517 41.9466 14.8633 41.9466C17.575 41.9466 20.2834 41.2662 22.4756 39.8822H22.5199L22.5905 39.8353C22.8088 39.6929 22.9483 39.5448 23.1125 39.3901V41.5632H31.0333V10.4968H23.1125V12.6271C22.9573 12.4831 22.8309 12.3465 22.6241 12.2149H22.6208C20.4106 10.7922 17.7769 10.1085 14.9118 10.1085L14.65 10.1035V10.1043ZM15.4699 17.6208H15.5404C16.9882 17.6208 18.1955 17.9483 19.3371 18.6205L19.4036 18.6575C20.5362 19.3224 21.3922 20.2036 22.0751 21.4716C22.7497 22.7247 23.1125 24.1984 23.1125 26.0275C23.1125 27.8567 22.7497 29.3336 22.0751 30.586C21.3922 31.8531 20.5362 32.7327 19.4036 33.3975L19.3371 33.437C18.1955 34.1093 16.9882 34.4351 15.5404 34.4351C14.0106 34.4351 12.7631 34.1134 11.6346 33.4773H11.6313C10.516 32.8174 9.66322 31.9239 8.96889 30.6419H8.96561C8.31805 29.3542 7.96596 27.8353 7.96596 25.9749C7.96596 24.1145 8.32708 22.5676 8.9615 21.3654C9.65666 20.0777 10.5053 19.208 11.6157 18.5786C12.7278 17.9483 13.9687 17.6389 15.4682 17.6274L15.4699 17.6208Z" fill="black"/>
</svg>
