<svg width="62" height="62" viewBox="0 0 62 62" fill="none" xmlns="http://www.w3.org/2000/svg">
<g clip-path="url(#clip0_77_105)">
<path d="M14.4303 46.5148C14.4303 47.1032 14.907 47.5813 15.4974 47.5813H18.3962C18.9849 47.5813 19.4633 47.1032 19.4633 46.5148C19.4633 45.9263 18.9865 45.4498 18.3962 45.4498H16.5628V43.7724C16.5628 43.1839 16.0861 42.7058 15.4958 42.7058C14.9054 42.7058 14.4287 43.1823 14.4287 43.7724V46.5163L14.4303 46.5148Z" fill="#060606"/>
<path d="M18.3956 31.8883H15.4968C14.908 31.8883 14.4297 32.3648 14.4297 32.9533V35.854C14.4297 36.4424 14.9064 36.9205 15.4968 36.9205C16.0871 36.9205 16.5638 36.444 16.5638 35.854V34.0183H18.3972C18.9859 34.0183 19.4626 33.5417 19.4642 32.9533C19.4642 32.3648 18.9875 31.8867 18.3972 31.8867L18.3956 31.8883Z" fill="#060606"/>
<path d="M30.1293 32.9549C30.1293 32.3664 29.6526 31.8899 29.0639 31.8883H25.8835C25.2947 31.8883 24.8164 32.3648 24.8164 32.9549C24.8164 33.5449 25.2931 34.0214 25.8835 34.0214H27.9968V35.8556C27.9968 36.444 28.4735 36.9221 29.0639 36.9221C29.6542 36.9221 30.1309 36.4456 30.1309 35.8556V32.9549H30.1293Z" fill="#060606"/>
<path d="M29.0635 42.7058C28.4748 42.7058 27.9964 43.1823 27.9964 43.7724V45.4498H25.8815C25.2928 45.4498 24.8145 45.9263 24.8145 46.5163C24.8145 47.1064 25.2912 47.5829 25.8815 47.5829H29.0619C29.6506 47.5829 30.129 47.1064 30.129 46.5163V43.774C30.129 43.1855 29.6506 42.7074 29.0619 42.7074L29.0635 42.7058Z" fill="#060606"/>
<path d="M15.4968 40.7998H17.7909C18.3796 40.7998 18.8579 40.3216 18.8579 39.7332C18.8579 39.1447 18.3812 38.6666 17.7909 38.6666H15.4968C14.908 38.6666 14.4297 39.1431 14.4297 39.7332C14.4297 40.3232 14.9064 40.7998 15.4968 40.7998Z" fill="#060606"/>
<path d="M29.0633 38.6682H26.7692C26.1805 38.6682 25.7021 39.1463 25.7021 39.7348C25.7021 40.3232 26.1805 40.8013 26.7692 40.8013H29.0633C29.652 40.8013 30.1304 40.3232 30.1304 39.7348C30.1304 39.1463 29.652 38.6682 29.0633 38.6682Z" fill="#060606"/>
<path d="M23.347 32.9549C23.347 32.3664 22.8687 31.8883 22.28 31.8883C21.6912 31.8883 21.2129 32.3664 21.2129 32.9549V35.2479C21.2129 35.8364 21.6896 36.3145 22.28 36.3145C22.8703 36.3145 23.347 35.8364 23.347 35.2479V32.9549Z" fill="#060606"/>
<path d="M22.28 43.1552C21.6912 43.1552 21.2129 43.6317 21.2129 44.2201V46.5132C21.2129 47.1016 21.6896 47.5797 22.2784 47.5797C22.8671 47.5797 23.3454 47.1032 23.3454 46.5132V44.2201C23.3454 43.6317 22.8687 43.1536 22.28 43.1536V43.1552Z" fill="#060606"/>
<path d="M25.1837 51.3774C33.8017 58.2725 41.6807 61.9999 47.0832 61.9999C49.2717 61.9999 51.0539 61.389 52.3129 60.129L60.1759 52.2696C65.5464 46.9 58.6769 31.6227 44.5348 17.4871C37.9148 10.8702 30.7461 5.57257 24.3502 2.56795C17.6262 -0.590177 12.4365 -0.844426 9.73764 1.85317C9.73764 1.85317 9.73764 1.85477 9.73604 1.85637L1.87466 9.71411C-2.51038 14.0955 0.946777 24.7644 10.6815 36.8964C10.8927 37.1586 11.2015 37.2961 11.5134 37.2961C11.747 37.2961 11.9838 37.2194 12.1805 37.0611C12.6397 36.6933 12.7133 36.0217 12.3453 35.5628C3.75282 24.8539 -0.0162986 14.6184 3.38166 11.222L7.91068 6.6951C7.7443 12.2918 11.7278 20.7284 19.106 29.7294C19.4804 30.1852 20.1523 30.2523 20.6066 29.8781C21.0626 29.5056 21.1298 28.834 20.7554 28.3782C11.7454 17.38 7.7443 6.8598 11.2446 3.36108C13.2316 1.37506 17.6774 1.79081 23.4431 4.4964C29.6215 7.39868 36.5774 12.546 43.0277 18.9934C57.2115 33.1706 62.566 46.8649 58.6689 50.7617C55.183 54.2461 44.6963 50.282 33.7361 41.3321C33.2802 40.9596 32.6083 41.0267 32.2355 41.4841C31.8628 41.9398 31.93 42.6114 32.3875 42.984C41.1752 50.1589 49.4253 54.1022 55.0038 54.1022C55.119 54.1022 55.2262 54.0942 55.3398 54.0894L50.8075 58.6211C47.4176 62.0079 37.2029 58.2613 26.5195 49.7128C26.0587 49.345 25.3884 49.4201 25.0205 49.8791C24.6525 50.338 24.7261 51.0096 25.1868 51.3774H25.1837Z" fill="#060606"/>
<path d="M50.7884 48.827C50.9516 49.2492 51.3548 49.5082 51.7835 49.5082C51.9115 49.5082 52.0427 49.4858 52.1691 49.4362C52.7178 49.2236 52.9914 48.6063 52.7786 48.0563C50.1165 41.1931 44.3045 32.9724 36.8302 25.5032C29.1592 17.8358 20.7635 11.9609 13.798 9.38481C13.2461 9.18173 12.6318 9.46316 12.427 10.0148C12.2222 10.5665 12.5054 11.1805 13.0573 11.3852C19.7444 13.8574 27.8586 19.5532 35.3216 27.0111C42.5927 34.2804 48.2304 42.2309 50.7884 48.8286V48.827Z" fill="#060606"/>
</g>
<defs>
<clipPath id="clip0_77_105">
<rect width="62" height="62" fill="white"/>
</clipPath>
</defs>
</svg>
