<svg width="68" height="63" viewBox="0 0 68 63" fill="none" xmlns="http://www.w3.org/2000/svg">
<g clip-path="url(#clip0_77_86)">
<path d="M30.1978 17.2191C30.1978 17.7315 30.6138 18.1478 31.1288 18.1478H52.6044L64.8126 30.2329H52.8459C52.3323 30.2329 51.915 30.6478 51.915 31.1617C51.915 31.6755 52.3323 32.0904 52.8459 32.0904H64.8727L39.0061 58.696L49.9219 31.507C50.0154 31.2731 50.0098 31.0113 49.9079 30.7815L45.0593 19.9872C44.8485 19.5194 44.2986 19.3091 43.8297 19.5194C43.3607 19.7296 43.1513 20.2783 43.3607 20.7461L47.6218 30.2315H26.4169L30.678 20.7461C30.8887 20.2783 30.678 19.7296 30.209 19.5194C29.74 19.3091 29.1887 19.5194 28.9794 19.9872L24.1307 30.7815C24.0274 31.0113 24.0219 31.2731 24.1168 31.507L35.0312 58.696L9.16321 32.089H21.1593C21.6729 32.089 22.0902 31.6727 22.0902 31.1603C22.0902 30.6478 21.6743 30.2315 21.1593 30.2315H9.22323L21.7036 17.8777C22.0679 17.517 22.0707 16.9294 21.7092 16.5646C21.3477 16.2012 20.7587 16.1984 20.393 16.559L6.309 30.5002C5.94751 30.8581 5.94193 31.4401 6.29644 31.805L36.3487 62.7174C36.5232 62.897 36.7646 62.9986 37.0172 62.9986C37.2699 62.9986 37.5099 62.897 37.6858 62.7174L67.738 31.805C68.0925 31.4401 68.087 30.8581 67.7255 30.5002L53.6414 16.559C53.467 16.3864 53.2311 16.2903 52.9855 16.2903H31.1274C30.6138 16.2903 30.1964 16.7052 30.1964 17.2191H30.1978ZM37.0172 58.6514L26.3541 32.089H47.6818L37.0186 58.6514H37.0172Z" fill="#000000"/>
<path d="M18.4265 10.2053C22.0414 11.3638 24.0316 13.6753 25.0798 17.9361C25.1817 18.3511 25.5543 18.6435 25.9828 18.6435C26.4113 18.6435 26.7839 18.3511 26.8858 17.9361C27.934 13.6753 29.9243 11.3638 33.5391 10.2053C33.9244 10.0813 34.1854 9.72487 34.1854 9.32106C34.1854 8.91725 33.9244 8.56078 33.5391 8.43685C29.9243 7.27834 27.934 4.96687 26.8858 0.707365C26.7839 0.292414 26.4099 0 25.9828 0C25.5557 0 25.1817 0.292414 25.0798 0.707365C24.0316 4.96826 22.0414 7.27973 18.4265 8.43685C18.0413 8.56078 17.7803 8.91725 17.7803 9.32106C17.7803 9.72487 18.0413 10.0813 18.4265 10.2053ZM25.9828 3.90861C27.0477 6.40249 28.6207 8.15419 30.8385 9.32106C28.6207 10.4879 27.0477 12.241 25.9828 14.7335C24.9179 12.2396 23.3449 10.4879 21.1272 9.32106C23.3449 8.15419 24.9165 6.40249 25.9828 3.90861Z" fill="#000000"/>
<path d="M0.64621 17.4376C3.20732 18.2578 4.61977 19.9023 5.36648 22.9364C5.46836 23.3514 5.84241 23.6438 6.26949 23.6438C6.69658 23.6438 7.07063 23.3514 7.17251 22.9364C7.91921 19.9023 9.33027 18.2578 11.8928 17.4376C12.278 17.3137 12.539 16.9572 12.539 16.5534C12.539 16.1496 12.278 15.7931 11.8928 15.6692C9.33027 14.8477 7.91921 13.2032 7.17251 10.169C7.07063 9.75408 6.69797 9.46167 6.26949 9.46167C5.84101 9.46167 5.46836 9.75408 5.36648 10.169C4.61977 13.2032 3.20872 14.8477 0.64621 15.6692C0.260996 15.7931 0 16.1496 0 16.5534C0 16.9572 0.260996 17.3137 0.64621 17.4376ZM6.26949 13.1767C6.99526 14.6583 7.99458 15.7625 9.32608 16.5534C7.99458 17.3443 6.99665 18.4472 6.26949 19.9301C5.54373 18.4472 4.54441 17.3443 3.21291 16.5534C4.54441 15.7625 5.54233 14.6583 6.26949 13.1767Z" fill="#000000"/>
<path d="M10.7055 59.2682C10.8074 59.6832 11.18 59.9756 11.6085 59.9756C12.037 59.9756 12.4097 59.6832 12.5115 59.2682C13.1661 56.6114 14.3999 55.1716 16.6372 54.4545C17.0224 54.3306 17.2834 53.9741 17.2834 53.5703C17.2834 53.1665 17.0224 52.81 16.6372 52.6861C14.3999 51.969 13.1661 50.5292 12.5115 47.8724C12.4097 47.4575 12.037 47.165 11.6085 47.165C11.18 47.165 10.8074 47.4575 10.7055 47.8724C10.0523 50.5292 8.81851 51.969 6.5798 52.6847C6.19459 52.8086 5.93359 53.1651 5.93359 53.5689C5.93359 53.9727 6.19459 54.3292 6.5798 54.4531C8.81851 55.1702 10.0509 56.6086 10.7055 59.2668V59.2682ZM11.6099 50.8021C12.2282 51.9913 13.0531 52.8991 14.1264 53.5717C13.0531 54.2429 12.2282 55.1507 11.6099 56.3413C10.9916 55.1521 10.1668 54.2443 9.09346 53.5717C10.1668 52.9005 10.9916 51.9927 11.6099 50.8021Z" fill="#000000"/>
</g>
<defs>
<clipPath id="clip0_77_86">
<rect width="68" height="63" fill="white"/>
</clipPath>
</defs>
</svg>
