<svg width="53" height="62" viewBox="0 0 53 62" fill="none" xmlns="http://www.w3.org/2000/svg">
<g clip-path="url(#clip0_77_94)">
<path d="M6.85268 51.9791H46.1478C46.7007 51.9791 47.1499 51.5299 47.1499 50.9772C47.1499 50.4244 46.7007 49.9752 46.1478 49.9752H6.85268C6.2998 49.9752 5.85059 50.4229 5.85059 50.9772C5.85059 51.5315 6.2983 51.9791 6.85268 51.9791Z" fill="#060606"/>
<path d="M6.59401 62H46.406C50.0418 62 53 59.3036 53 55.9884V52.6551C53 51.6051 52.68 50.0188 52.2728 49.0439L44.6888 31L52.2728 12.9546C52.68 11.9812 53 10.3949 53 9.34491V6.01163C53 2.69637 50.0418 0 46.406 0H6.59401C2.95822 0 0 2.69637 0 6.01163V9.34491C0 10.3949 0.32001 11.9812 0.727159 12.9561L8.31125 31L0.727159 49.0454C0.32001 50.0188 0 51.6051 0 52.6551V55.9884C0 59.3036 2.95822 62 6.59401 62ZM2.00269 52.6551C2.00269 51.8574 2.26411 50.5581 2.5736 49.8205L10.063 32.0019H13.1625C13.7154 32.0019 14.1646 31.5543 14.1646 31C14.1646 30.4457 13.7169 29.9981 13.1625 29.9981H10.063L2.57511 12.1825C2.26561 11.4419 2.00269 10.1426 2.00269 9.34491V6.01163C2.00269 3.80046 4.06248 2.00237 6.59401 2.00237H46.406C48.9375 2.00237 50.9973 3.80046 50.9973 6.01163V9.34491C50.9973 10.1426 50.7359 11.4419 50.4264 12.181L42.937 29.9996H39.8796C39.3267 29.9996 38.8775 30.4472 38.8775 31.0015C38.8775 31.5558 39.3267 32.0034 39.8796 32.0034H42.937L50.4264 49.8205C50.7359 50.5611 50.9973 51.8605 50.9973 52.6566V55.9899C50.9973 58.201 48.9375 59.9991 46.406 59.9991H6.59401C4.06248 59.9991 2.00269 58.201 2.00269 55.9899V52.6566V52.6551Z" fill="#060606"/>
<path d="M18.9064 12.0232H43.3459C43.5472 12.0232 43.6719 12.0758 43.7079 12.1269C43.7425 12.178 43.7455 12.3147 43.6734 12.5009L40.6491 20.2445C40.4477 20.7598 40.7016 21.3396 41.2185 21.5409C41.3387 21.5875 41.4619 21.61 41.582 21.61C41.9832 21.61 42.3618 21.3682 42.515 20.9731L45.5394 13.2295C45.8504 12.4318 45.7857 11.6177 45.3621 10.9973C44.9384 10.3769 44.2037 10.0209 43.3459 10.0209H18.9064C18.3535 10.0209 17.9043 10.4685 17.9043 11.0228C17.9043 11.5771 18.352 12.0247 18.9064 12.0247V12.0232Z" fill="#060606"/>
<path d="M15.4517 11.0228C15.4517 10.47 15.0025 10.0209 14.4496 10.0209H9.35651C8.49263 10.0209 7.76096 10.3799 7.3478 11.0048C6.93615 11.6297 6.89558 12.4439 7.23512 13.237L10.5674 21.0047C10.7297 21.3847 11.0993 21.6115 11.4884 21.6115C11.6191 21.6115 11.7543 21.586 11.882 21.5304C12.3913 21.3126 12.6257 20.7237 12.4079 20.216L9.07556 12.4484C8.99293 12.2546 9.00194 12.1344 9.01847 12.1074C9.035 12.0818 9.14317 12.0248 9.3535 12.0248H14.4466C14.9995 12.0248 15.4487 11.5771 15.4487 11.0228H15.4517Z" fill="#060606"/>
<path d="M28.5633 19.166H24.4377C24.1147 19.166 23.8112 19.3222 23.6234 19.5836L21.5606 22.4648C21.2782 22.8583 21.3187 23.3961 21.6553 23.7446L25.7808 28.0092C25.9701 28.2045 26.2301 28.3141 26.5005 28.3141C26.7709 28.3141 27.0323 28.2045 27.2201 28.0092L31.3472 23.7446C31.6837 23.3976 31.7228 22.8583 31.4419 22.4648L29.3776 19.5836C29.1898 19.3207 28.8863 19.166 28.5633 19.166ZM26.5005 25.8731L23.6745 22.9514L24.9515 21.1684H28.0495L29.328 22.9514L26.502 25.8731H26.5005Z" fill="#060606"/>
<path d="M11.5667 44.922C11.7169 44.922 11.8687 44.8874 12.0129 44.8168C16.2391 42.7108 21.2481 41.5962 26.5005 41.5962C31.7529 41.5962 36.6837 42.6928 40.892 44.7688C41.3877 45.0151 41.9887 44.8093 42.2336 44.3136C42.4785 43.8179 42.2742 43.217 41.7784 42.9722C39.66 41.9267 37.3568 41.123 34.9395 40.5567C35.7523 39.1146 36.1834 37.4953 36.1834 35.8159C36.1834 32.0155 33.9434 28.55 30.4788 26.9877C29.9755 26.7609 29.3821 26.9847 29.1537 27.488C28.9269 27.9927 29.1507 28.5845 29.6555 28.8129C32.4049 30.0536 34.1808 32.8011 34.1808 35.8159C34.1808 37.3676 33.7195 38.8578 32.8511 40.1316C30.7929 39.7786 28.667 39.5923 26.502 39.5923C20.9416 39.5923 15.6232 40.779 11.1205 43.0233C10.6262 43.2696 10.4234 43.872 10.6713 44.3662C10.847 44.7177 11.2001 44.9205 11.5682 44.9205L11.5667 44.922Z" fill="#060606"/>
<path d="M18.1475 39.1927C18.2377 39.1927 18.3293 39.1807 18.421 39.1537C18.9528 39.0035 19.2623 38.4492 19.1106 37.9174C18.9168 37.2369 18.8191 36.5309 18.8191 35.8174C18.8191 32.7605 20.6295 29.9965 23.433 28.7753C23.9408 28.5545 24.1721 27.9641 23.9513 27.4564C23.7304 26.9486 23.14 26.7173 22.6337 26.9381C19.1 28.4778 16.8164 31.9628 16.8164 35.8159C16.8164 36.7142 16.9396 37.6049 17.183 38.4627C17.3077 38.9028 17.7088 39.1912 18.146 39.1912L18.1475 39.1927Z" fill="#060606"/>
</g>
<defs>
<clipPath id="clip0_77_94">
<rect width="53" height="62" fill="white"/>
</clipPath>
</defs>
</svg>
