<svg width="213" height="53" viewBox="0 0 213 53" fill="none" xmlns="http://www.w3.org/2000/svg">
<path d="M0.958542 38.3126L0.5 38.3507V38.8108V39.0722V39.5722H1H5.64558H6.14558V39.0722V38.8108V38.3478L5.68387 38.3123C5.32952 38.2851 5.03853 38.2471 4.82757 38.1105C4.66843 38.0075 4.47523 37.7945 4.47523 37.1919V7.2595L19.0297 37.4105L19.0302 37.4115C21.7457 43.0034 24.8031 46.5902 28.3877 48.7702C31.9721 50.9501 36.028 51.6891 40.6733 51.6891C47.9057 51.6891 55.0617 49.9043 62.1527 48.1356L62.2029 48.1231C69.3328 46.3448 76.398 44.5868 83.5296 44.5868C91.1653 44.5868 98.0335 46.598 103.559 51.4098L103.966 51.7636L104.288 51.332L104.445 51.1228L104.698 50.7843L104.406 50.4784C98.8625 44.6655 91.6719 42.2286 83.3205 42.2286C76.096 42.2286 68.9758 44.0221 62.0743 45.7955C61.9331 45.8318 61.7919 45.8681 61.6508 45.9043C54.8746 47.6462 48.3208 49.3309 41.9775 49.3309C37.1202 49.3309 33.5844 48.3173 30.6162 46.0271C27.6698 43.7538 25.2318 40.1848 22.6451 34.9441L36.4137 6.32619V37.1919C36.4137 37.8054 36.2256 38.0173 36.0798 38.1156C35.8848 38.247 35.6118 38.2851 35.2572 38.3123L34.7955 38.3478V38.8108V39.0722V39.5722H35.2955H41.8205H42.3205V39.0722V38.8108V38.3507L41.862 38.3126C41.5347 38.2853 41.2568 38.2483 41.0519 38.113C40.896 38.0101 40.7023 37.7948 40.7023 37.1919V2.88033C40.7023 2.27737 40.896 2.06214 41.0519 1.95918C41.2568 1.82393 41.5347 1.78686 41.862 1.75963L42.3205 1.72147V1.26135V1V0.5H41.8205H36.9137H36.5997L36.4633 0.782895L21.306 32.2282L6.14873 0.782895L6.01237 0.5H5.69832H1H0.5V1V1.26135V1.7028L0.938046 1.7575C1.25204 1.7967 1.53491 1.93004 1.74165 2.17279C1.94798 2.41506 2.11823 2.81332 2.11823 3.45455V37.1919C2.11823 37.7948 1.92453 38.0101 1.76861 38.113C1.56378 38.2483 1.28581 38.2853 0.958542 38.3126Z" fill="#231F20" stroke="black"/>
<path d="M60.1946 18.3634C61.1445 19.1545 61.8075 20.3034 61.9993 21.8283C58.9332 21.9669 54.7414 22.4553 51.226 23.8672C47.505 25.3616 44.4004 27.9602 44.4004 32.3867C44.4004 35.084 45.5636 37.0343 47.2945 38.2944C49.0065 39.5406 51.2452 40.0939 53.4091 40.0939C56.1047 40.0939 59.4767 39.2766 62.0362 36.2593C62.097 37.256 62.3003 38.0677 62.6593 38.6886C63.2168 39.6528 64.1121 40.0939 65.2064 40.0939C66.4926 40.0939 67.7893 39.5156 68.8143 38.8675L69.0471 38.7203V38.4449V38.1314V37.3931L68.3615 37.6671C68.3346 37.6778 68.3077 37.6886 68.2808 37.6994C68.0398 37.796 67.7986 37.8926 67.5636 37.9691C67.2972 38.0559 67.0835 38.1013 66.9289 38.1013C66.7166 38.1013 66.633 38.0539 66.5944 38.0215C66.5504 37.9846 66.4873 37.9016 66.4354 37.6915C66.3831 37.4796 66.3548 37.1911 66.342 36.8002C66.3315 36.4782 66.3319 36.1109 66.3323 35.686C66.3324 35.5983 66.3325 35.5082 66.3325 35.4155V24.3961C66.3325 21.2523 65.4717 18.7962 63.79 17.1278C62.1092 15.4601 59.6816 14.6521 56.6977 14.6521C51.6478 14.6521 48.5498 16.9025 45.3746 20.3421L44.8921 20.8263L45.5113 21.136L48.2259 22.4936L48.7347 22.7481L48.9217 22.2109C50.0559 18.9545 52.7445 17.0104 56.0189 17.0104C57.6763 17.0104 59.1344 17.4804 60.1946 18.3634ZM53.4649 25.4784C56.1623 24.4798 59.4558 24.2218 62.0433 24.1721V31.5505C62.0433 33.2121 61.1565 34.6702 59.773 35.7299C58.387 36.7914 56.5368 37.4222 54.7134 37.4222C53.1871 37.4222 51.635 36.9654 50.4749 36.0199C49.3289 35.0861 48.532 33.6501 48.532 31.6027C48.532 29.96 49.063 28.704 49.9257 27.7262C50.7974 26.7381 52.0307 26.0093 53.4649 25.4784Z" fill="#231F20" stroke="black"/>
<path d="M93.8688 0.5H94.0208H94.2821H94.7821V1V27.3342L103.934 17.2723C103.934 17.2722 103.934 17.2722 103.934 17.2721C104.025 17.1713 104.059 17.1022 104.071 17.0661C104.08 17.0374 104.077 17.0272 104.076 17.0244L104.076 17.024C104.071 17.0034 104.028 16.9204 103.842 16.8073C103.479 16.5861 102.909 16.4568 102.645 16.4348L102.187 16.3966V15.9365V15.6751V15.1751H102.687H109.055H109.555V15.6751V15.9365V16.3966L109.097 16.4348C109.054 16.4383 109.012 16.4416 108.971 16.4448C108.681 16.4673 108.41 16.4883 108.109 16.5921C107.779 16.7053 107.396 16.9267 106.982 17.4108L106.973 17.4204L106.973 17.4203L99.6016 25.598L110 37.1182L110.009 37.1277L110.009 37.1279C110.567 37.7793 111.29 38.224 112.184 38.3133L112.635 38.3583V38.8108V39.0722V39.5722H112.135H103.939H103.439V39.0722V38.8108V38.3508L103.898 38.3126C104.147 38.2918 104.527 38.1706 104.72 38.0029C104.804 37.93 104.805 37.8917 104.805 37.8876V37.8874C104.805 37.8793 104.804 37.7825 104.62 37.5878L104.612 37.5792L104.612 37.5791L96.6837 28.7986L94.7821 30.908V37.1919C94.7821 37.7945 94.9753 38.0075 95.1344 38.1105C95.3454 38.2471 95.6364 38.2851 95.9907 38.3123L96.4524 38.3478V38.8108V39.0722V39.5722H95.9524H89.4274H88.9274V39.0722V38.8108V38.3507L89.3859 38.3126C89.7132 38.2853 89.9912 38.2483 90.196 38.113C90.3519 38.0101 90.5456 37.7948 90.5456 37.1919V5.31885L88.6051 6.58797L93.8688 0.5ZM93.8688 0.5L93.7426 0.584593L88.0527 4.39614L88.0504 4.3977C87.7405 4.60782 87.4321 4.81247 87.1281 5.01417C85.8817 5.84127 84.7101 6.6188 83.8137 7.52106C82.6625 8.67975 81.9327 10.0688 81.9327 12.0709C81.9327 13.0434 82.0943 14.1029 82.3887 15.1528M93.8688 0.5L82.3887 15.1528M82.3887 15.1528C81.244 14.8199 80.1014 14.6518 78.9877 14.6518C77.0013 14.6518 74.8645 15.1943 73.209 16.3031C71.541 17.4201 70.3445 19.1295 70.3445 21.4186C70.3445 23.42 71.2755 24.8265 72.6133 25.8894C73.9256 26.932 75.657 27.6664 77.3089 28.3501C77.3827 28.3807 77.4564 28.4111 77.5299 28.4415C79.1333 29.1045 80.645 29.7296 81.782 30.5555C82.9457 31.401 83.6557 32.4121 83.6557 33.8484C83.6557 35.0144 83.2061 35.9685 82.411 36.639C81.6081 37.316 80.4135 37.7354 78.8835 37.7354C77.3653 37.7354 76.0919 37.322 74.9868 36.4688C73.8719 35.608 72.897 34.2752 72.0298 32.3864L71.5275 31.2924L71.1069 32.4203L69.802 35.9196L69.6953 36.2058L69.9012 36.4313C72.2118 38.9636 75.7024 40.0936 78.9877 40.0936C81.1424 40.0936 83.327 39.5968 84.9884 38.4445C86.6719 37.2769 87.7873 35.4544 87.7873 32.9091C87.7873 30.6549 86.904 29.0203 85.5932 27.771C84.3027 26.5409 82.6014 25.6879 80.9676 24.9523C80.6146 24.7934 80.266 24.6404 79.9247 24.4905C78.6531 23.9323 77.4813 23.4179 76.5517 22.8047C75.3913 22.0392 74.7373 21.2023 74.7373 20.0615C74.7373 19.1469 75.1216 18.4021 75.7876 17.8746C76.4632 17.3396 77.4551 17.0101 78.6744 17.0101C81.4973 17.0101 83.8576 18.7126 85.5279 22.3587L86.0298 23.4544L86.4509 22.3252L87.7558 18.8258L87.8682 18.5245L87.6406 18.2973L87.6211 18.2778C87.3278 17.9849 86.9559 17.6136 86.5729 17.3328C85.2964 15.9941 84.2896 14.1395 84.2896 11.9145C84.2896 10.6165 84.6297 9.79964 85.2956 9.0645C85.9811 8.30784 87.0128 7.63164 88.4874 6.66516C88.5261 6.63973 88.5653 6.6141 88.6047 6.58827L82.3887 15.1528Z" fill="#231F20" stroke="black"/>
<path d="M127.793 18.3628C128.743 19.1539 129.406 20.3027 129.598 21.8277C126.532 21.9662 122.34 22.4546 118.825 23.8665C115.104 25.361 111.999 27.9595 111.999 32.3861C111.999 35.0834 113.162 37.0337 114.893 38.2937C116.605 39.54 118.844 40.0933 121.008 40.0933C123.688 40.0933 127.207 39.3 129.801 36.3234C130.416 42.4022 132.584 46.2308 135.698 48.5466C139.005 51.0059 143.286 51.6875 147.63 51.6875C154.668 51.6875 161.708 49.9219 168.72 48.1632L168.887 48.1214C175.977 46.3432 183.042 44.5852 190.174 44.5852C197.809 44.5852 204.679 46.5962 210.258 51.4097L210.664 51.76L210.985 51.3304L211.141 51.1212L211.394 50.7827L211.102 50.4768C205.558 44.6633 198.315 42.227 189.965 42.227C182.74 42.227 175.633 44.0205 168.758 45.794C168.603 45.8338 168.449 45.8737 168.294 45.9135C161.559 47.6517 155.058 49.3293 148.779 49.3293C144.876 49.3293 141.193 48.6791 138.48 46.2821C135.779 43.8948 133.932 39.6756 133.932 32.2818V24.3961C133.932 21.2523 133.071 18.7962 131.389 17.1278C129.708 15.4601 127.281 14.6521 124.297 14.6521C119.244 14.6521 116.145 16.9056 112.967 20.3491L113.237 20.5978L113.11 21.1354L115.825 22.493L116.333 22.7474L116.52 22.2103C117.655 18.9539 120.343 17.0097 123.618 17.0097C125.275 17.0097 126.733 17.4798 127.793 18.3628ZM116.131 31.6027C116.131 29.96 116.662 28.704 117.525 27.7262C118.397 26.7381 119.63 26.0093 121.064 25.4784C123.762 24.4797 127.056 24.2217 129.643 24.1721V31.5505C129.643 33.2135 128.755 34.6857 127.382 35.7589C126.007 36.8337 124.183 37.4743 122.418 37.4743C120.839 37.4743 119.261 37.0044 118.088 36.0464C116.928 35.0995 116.131 33.6504 116.131 31.6027Z" fill="#231F20" stroke="black"/>
<path d="M137.264 39.0712V39.3538V39.5712H137.764H144.289H144.789V39.0712V38.8099V38.3468L144.328 38.3113C143.973 38.2841 143.7 38.246 143.505 38.1146C143.359 38.0163 143.171 37.8044 143.171 37.1909V20.945C144.161 19.9473 145.277 19.0041 146.44 18.3027C147.662 17.5655 148.902 17.1147 150.084 17.1147C151.364 17.1147 152.39 17.6428 153.111 18.5942C153.842 19.5597 154.282 20.9964 154.282 22.8292V37.1909C154.282 37.6098 154.159 37.8582 153.999 38.0108C153.832 38.1706 153.557 38.2885 153.137 38.3106L152.664 38.3355V38.8099V39.0712V39.5712H153.164H159.689H160.189V39.0712V38.8099V38.3342L159.714 38.3105C159.263 38.288 158.975 38.1672 158.803 38.0067C158.64 37.8549 158.518 37.6091 158.518 37.1909V22.2023C158.518 19.9211 157.893 18.0247 156.67 16.694C155.442 15.3575 153.667 14.6521 151.493 14.6521C148.15 14.6521 145.35 16.3154 143.171 18.2714V15.6748V15.1748H142.671H142.358H142.206L142.08 15.2594L136.39 19.0716L136.168 19.2201V19.487V20.8446V21.7691L136.942 21.2631L138.883 19.9936V37.1915C138.883 37.7945 138.689 38.0097 138.533 38.1127C138.328 38.2479 138.05 38.285 137.723 38.3122L137.764 38.8099H137.264V38.8105V39.0712Z" fill="#231F20" stroke="black"/>
</svg>
