<svg width="260" height="50" viewBox="0 0 260 50" fill="none" xmlns="http://www.w3.org/2000/svg">
<path d="M246.823 49.6261C246.575 49.6261 246.403 49.5185 246.306 49.3032C246.274 49.2386 246.258 49.1687 246.258 49.0934V41.3443C246.258 41.0968 246.371 40.9353 246.597 40.86C246.661 40.8492 246.748 40.8385 246.855 40.8277C246.963 40.817 247.07 40.8546 247.178 40.9407C247.286 41.0268 247.339 41.1614 247.339 41.3443V48.722H251.343C251.505 48.722 251.618 48.7705 251.682 48.8673C251.757 48.9534 251.795 49.0557 251.795 49.1741C251.795 49.2817 251.757 49.3839 251.682 49.4808C251.607 49.5777 251.494 49.6261 251.343 49.6261H246.823Z" fill="black"/>
<path d="M234.57 48.9478C234.581 49.0123 234.586 49.0769 234.586 49.1415C234.586 49.2061 234.57 49.2706 234.537 49.3352C234.505 49.3998 234.462 49.4482 234.408 49.4805C234.301 49.5774 234.182 49.6258 234.053 49.6258C233.795 49.6258 233.623 49.5128 233.537 49.2868L232.746 47.3334H228.387L227.612 49.2868C227.536 49.5128 227.386 49.6258 227.16 49.6258C226.934 49.6258 226.762 49.5289 226.643 49.3352C226.611 49.2706 226.595 49.2114 226.595 49.1576C226.595 49.1038 226.611 49.0339 226.643 48.9478L229.565 41.7799C229.78 41.2418 230.028 40.935 230.308 40.8597C230.383 40.8489 230.48 40.8328 230.598 40.8113C230.814 40.8113 230.975 40.8597 231.083 40.9566C231.255 41.0857 231.427 41.3602 231.599 41.7799L234.57 48.9478ZM228.693 46.4778H232.455L230.566 41.7315L228.693 46.4778Z" fill="black"/>
<path d="M208.336 41.7315C208.175 41.7315 208.057 41.683 207.981 41.5862C207.906 41.4893 207.868 41.3871 207.868 41.2794C207.868 41.1611 207.906 41.0534 207.981 40.9566C208.057 40.8597 208.175 40.8113 208.336 40.8113H214.229C214.38 40.8113 214.493 40.8597 214.568 40.9566C214.643 41.0534 214.681 41.1611 214.681 41.2794C214.681 41.3871 214.638 41.4893 214.552 41.5862C214.476 41.683 214.369 41.7315 214.229 41.7315H211.84V49.0931C211.84 49.3406 211.732 49.5074 211.517 49.5935C211.452 49.615 211.366 49.6258 211.258 49.6258C211.151 49.6258 211.038 49.5827 210.919 49.4966C210.801 49.4105 210.742 49.276 210.742 49.0931V41.7315H208.336Z" fill="black"/>
<path d="M190.4 43.0397C190.4 43.2657 190.475 43.481 190.626 43.6855C190.777 43.8792 190.97 44.0407 191.207 44.1698C191.444 44.299 191.713 44.412 192.014 44.5088C192.316 44.6057 192.633 44.7079 192.967 44.8156C193.3 44.9232 193.629 45.0416 193.951 45.1707C194.274 45.2999 194.554 45.4613 194.791 45.655C195.308 46.0748 195.566 46.6452 195.566 47.3663C195.566 47.7107 195.485 48.0389 195.324 48.3511C195.162 48.6524 194.936 48.9053 194.646 49.1098C194.054 49.5403 193.263 49.7556 192.273 49.7556C191.336 49.7556 190.513 49.5188 189.803 49.0452C189.361 48.7654 189.141 48.5286 189.141 48.3349C189.141 48.1627 189.227 48.0228 189.399 47.9152C189.442 47.8721 189.496 47.8506 189.56 47.8506C189.625 47.8506 189.695 47.8775 189.77 47.9313C189.846 47.9851 189.932 48.0497 190.029 48.125C190.136 48.2004 190.265 48.2865 190.416 48.3833C190.577 48.4694 190.744 48.5502 190.916 48.6255C191.347 48.7977 191.767 48.8784 192.176 48.8677C192.585 48.8569 192.913 48.8246 193.16 48.7708C193.408 48.717 193.629 48.6255 193.822 48.4963C194.231 48.2165 194.441 47.8614 194.452 47.4309C194.452 46.8927 194.188 46.4784 193.661 46.1878C193.424 46.0586 193.155 45.9456 192.854 45.8488C192.563 45.7411 192.251 45.6389 191.917 45.542C191.594 45.4452 191.272 45.3268 190.949 45.1869C190.626 45.0469 190.341 44.8801 190.093 44.6864C189.566 44.2667 189.302 43.7285 189.302 43.072C189.302 42.7276 189.383 42.4047 189.544 42.1034C189.716 41.802 189.948 41.5545 190.238 41.3608C190.798 40.9626 191.498 40.7581 192.337 40.7473C193.553 40.7473 194.533 41.1401 195.275 41.9258C195.318 41.9904 195.34 42.0657 195.34 42.1518C195.34 42.2272 195.334 42.2917 195.324 42.3456C195.324 42.3994 195.297 42.4532 195.243 42.507C195.168 42.6039 195.065 42.6523 194.936 42.6523C194.818 42.6523 194.689 42.5716 194.549 42.4101C194.194 42.1518 193.908 41.985 193.693 41.9097C193.263 41.7375 192.843 41.6514 192.434 41.6514C191.907 41.6514 191.455 41.759 191.078 41.9742C190.626 42.2325 190.4 42.5877 190.4 43.0397Z" fill="black"/>
<path d="M174.466 45.8804V49.0931C174.466 49.3406 174.353 49.5074 174.127 49.5935C174.063 49.615 173.976 49.6258 173.869 49.6258C173.761 49.6258 173.648 49.5827 173.53 49.4966C173.411 49.4105 173.352 49.276 173.352 49.0931V45.8966L170.495 41.5539C170.441 41.4893 170.414 41.4194 170.414 41.344C170.414 41.2687 170.43 41.1987 170.462 41.1342C170.495 41.0696 170.543 41.0104 170.608 40.9566C170.737 40.8597 170.866 40.8113 170.995 40.8113C171.232 40.8113 171.404 40.9081 171.512 41.1019L173.982 45.0248H173.998L176.484 41.0696C176.592 40.8974 176.742 40.8113 176.936 40.8113C177.151 40.8113 177.302 40.8974 177.388 41.0696C177.431 41.1234 177.453 41.1772 177.453 41.231C177.453 41.2956 177.426 41.3709 177.372 41.457L174.466 45.8804Z" fill="black"/>
<path d="M151.688 41.3602C151.688 41.1449 151.806 40.9781 152.043 40.8597C152.107 40.8274 152.177 40.8113 152.253 40.8113H154.884C156.305 40.8113 157.262 41.188 157.758 41.9413C157.93 42.2535 158.016 42.6517 158.016 43.136C158.016 43.6095 157.86 44.0131 157.548 44.3468C157.236 44.6804 156.789 44.9064 156.208 45.0248V45.0732C156.767 45.1701 157.166 45.38 157.402 45.7029C157.585 45.9719 157.698 46.3325 157.741 46.7845C157.795 47.2365 157.838 47.5917 157.871 47.85C157.903 48.2267 157.935 48.641 157.967 49.0931C157.967 49.276 157.908 49.4105 157.79 49.4966C157.682 49.5827 157.558 49.6258 157.419 49.6258C157.279 49.6258 157.155 49.5881 157.047 49.5128C156.94 49.4267 156.875 49.3029 156.854 49.1415C156.81 48.6464 156.773 48.2105 156.741 47.8338C156.708 47.4464 156.671 47.1235 156.628 46.8652C156.584 46.5961 156.525 46.3755 156.45 46.2033C156.375 46.0311 156.272 45.8966 156.143 45.7997C155.928 45.6383 155.503 45.5468 154.868 45.5253H152.785V49.0931C152.785 49.3514 152.672 49.5182 152.446 49.5935C152.382 49.615 152.296 49.6258 152.188 49.6258C152.091 49.6258 151.983 49.5827 151.865 49.4966C151.747 49.4105 151.688 49.276 151.688 49.0931V41.3602ZM154.4 44.6858C155.422 44.6858 156.111 44.5244 156.466 44.2015C156.724 43.9755 156.864 43.6364 156.886 43.1844C156.886 42.5494 156.649 42.1297 156.175 41.9252C155.917 41.7961 155.659 41.7261 155.401 41.7153C155.142 41.6938 154.938 41.683 154.787 41.683H152.785V44.6858H154.4Z" fill="black"/>
<path d="M132.96 45.2676C132.96 44.7079 133.041 44.1429 133.202 43.5725C133.364 43.0021 133.611 42.5124 133.945 42.1034C134.655 41.1993 135.667 40.7473 136.98 40.7473C137.733 40.7473 138.465 40.9141 139.175 41.2478C139.358 41.3231 139.45 41.4469 139.45 41.6191C139.45 41.942 139.321 42.1088 139.062 42.1195C139.009 42.1195 138.96 42.1142 138.917 42.1034C138.174 41.8451 137.582 41.7159 137.141 41.7159C136.711 41.7159 136.35 41.7644 136.06 41.8612C135.769 41.9581 135.516 42.0926 135.301 42.2648C135.086 42.437 134.903 42.6361 134.752 42.8622C134.601 43.0882 134.483 43.3411 134.397 43.6209C134.214 44.1375 134.122 44.6864 134.122 45.2676C134.122 46.2147 134.332 47.0111 134.752 47.6569C135.247 48.421 136.011 48.8031 137.044 48.8031C137.755 48.8031 138.433 48.6147 139.078 48.238C139.165 48.2165 139.245 48.2058 139.321 48.2058C139.407 48.2058 139.482 48.2434 139.547 48.3188C139.622 48.3941 139.66 48.491 139.66 48.6094C139.66 48.7277 139.617 48.8407 139.53 48.9484C139.444 49.0452 139.326 49.1367 139.175 49.2228C139.035 49.2982 138.874 49.3681 138.691 49.4327C138.519 49.4973 138.336 49.5511 138.142 49.5941C137.733 49.7017 137.346 49.7556 136.98 49.7556C135.656 49.7556 134.644 49.3089 133.945 48.4156C133.288 47.6084 132.96 46.5591 132.96 45.2676Z" fill="black"/>
<path d="M114.233 45.2676C114.233 44.7079 114.314 44.1429 114.476 43.5725C114.637 43.0021 114.885 42.5124 115.218 42.1034C115.928 41.1993 116.94 40.7473 118.253 40.7473C119.007 40.7473 119.738 40.9141 120.449 41.2478C120.632 41.3231 120.723 41.4469 120.723 41.6191C120.723 41.942 120.594 42.1088 120.336 42.1195C120.282 42.1195 120.234 42.1142 120.19 42.1034C119.448 41.8451 118.856 41.7159 118.415 41.7159C117.984 41.7159 117.624 41.7644 117.333 41.8612C117.042 41.9581 116.79 42.0926 116.574 42.2648C116.359 42.437 116.176 42.6361 116.025 42.8622C115.875 43.0882 115.756 43.3411 115.67 43.6209C115.487 44.1375 115.396 44.6864 115.396 45.2676C115.396 46.2147 115.606 47.0111 116.025 47.6569C116.52 48.421 117.285 48.8031 118.318 48.8031C119.028 48.8031 119.706 48.6147 120.352 48.238C120.438 48.2165 120.519 48.2058 120.594 48.2058C120.68 48.2058 120.756 48.2434 120.82 48.3188C120.895 48.3941 120.933 48.491 120.933 48.6094C120.933 48.7277 120.89 48.8407 120.804 48.9484C120.718 49.0452 120.599 49.1367 120.449 49.2228C120.309 49.2982 120.147 49.3681 119.964 49.4327C119.792 49.4973 119.609 49.5511 119.416 49.5941C119.007 49.7017 118.619 49.7556 118.253 49.7556C116.929 49.7556 115.918 49.3089 115.218 48.4156C114.562 47.6084 114.233 46.5591 114.233 45.2676Z" fill="black"/>
<path d="M101.125 41.3443C101.125 41.1183 101.233 40.9569 101.448 40.86C101.512 40.8492 101.604 40.8385 101.722 40.8277C101.841 40.817 101.948 40.8546 102.045 40.9407C102.153 41.0268 102.207 41.1614 102.207 41.3443V49.0934C102.207 49.3517 102.094 49.5185 101.868 49.5938C101.803 49.6153 101.717 49.6261 101.609 49.6261C101.502 49.6261 101.394 49.583 101.286 49.4969C101.179 49.4108 101.125 49.2763 101.125 49.0934V41.3443Z" fill="black"/>
<path d="M83.6577 43.0397C83.6577 43.2657 83.733 43.481 83.8837 43.6855C84.0343 43.8792 84.2281 44.0407 84.4648 44.1698C84.7016 44.299 84.9707 44.412 85.272 44.5088C85.5734 44.6057 85.8909 44.7079 86.2245 44.8156C86.5582 44.9232 86.8864 45.0416 87.2093 45.1707C87.5322 45.2999 87.812 45.4613 88.0488 45.655C88.5654 46.0748 88.8237 46.6452 88.8237 47.3663C88.8237 47.7107 88.743 48.0389 88.5815 48.3511C88.4201 48.6524 88.1941 48.9053 87.9035 49.1098C87.3115 49.5403 86.5205 49.7556 85.5303 49.7556C84.594 49.7556 83.7707 49.5188 83.0603 49.0452C82.6191 48.7654 82.3984 48.5286 82.3984 48.3349C82.3984 48.1627 82.4845 48.0228 82.6567 47.9152C82.6998 47.8721 82.7536 47.8506 82.8182 47.8506C82.8827 47.8506 82.9527 47.8775 83.028 47.9313C83.1034 47.9851 83.1895 48.0497 83.2863 48.125C83.394 48.2004 83.5231 48.2865 83.6738 48.3833C83.8352 48.4694 84.0021 48.5502 84.1743 48.6255C84.6048 48.7977 85.0245 48.8784 85.4335 48.8677C85.8425 48.8569 86.1707 48.8246 86.4182 48.7708C86.6658 48.717 86.8864 48.6255 87.0801 48.4963C87.4891 48.2165 87.699 47.8614 87.7097 47.4309C87.7097 46.8927 87.4461 46.4784 86.9187 46.1878C86.6819 46.0586 86.4129 45.9456 86.1115 45.8488C85.8209 45.7411 85.5088 45.6389 85.1752 45.542C84.8523 45.4452 84.5294 45.3268 84.2065 45.1869C83.8837 45.0469 83.5985 44.8801 83.3509 44.6864C82.8236 44.2667 82.5599 43.7285 82.5599 43.072C82.5599 42.7276 82.6406 42.4047 82.802 42.1034C82.9742 41.802 83.2056 41.5545 83.4962 41.3608C84.0559 40.9626 84.7554 40.7581 85.5949 40.7473C86.8111 40.7473 87.7905 41.1401 88.5331 41.9258C88.5761 41.9904 88.5977 42.0657 88.5977 42.1518C88.5977 42.2272 88.5923 42.2917 88.5815 42.3456C88.5815 42.3994 88.5546 42.4532 88.5008 42.507C88.4255 42.6039 88.3232 42.6523 88.1941 42.6523C88.0757 42.6523 87.9465 42.5716 87.8066 42.4101C87.4514 42.1518 87.1662 41.985 86.951 41.9097C86.5205 41.7375 86.1008 41.6514 85.6918 41.6514C85.1644 41.6514 84.7124 41.759 84.3357 41.9742C83.8837 42.2325 83.6577 42.5877 83.6577 43.0397Z" fill="black"/>
<path d="M64.9301 43.0397C64.9301 43.2657 65.0055 43.481 65.1561 43.6855C65.3068 43.8792 65.5005 44.0407 65.7373 44.1698C65.9741 44.299 66.2431 44.412 66.5445 44.5088C66.8458 44.6057 67.1633 44.7079 67.497 44.8156C67.8306 44.9232 68.1589 45.0416 68.4818 45.1707C68.8046 45.2999 69.0845 45.4613 69.3212 45.655C69.8378 46.0748 70.0961 46.6452 70.0961 47.3663C70.0961 47.7107 70.0154 48.0389 69.854 48.3511C69.6925 48.6524 69.4665 48.9053 69.1759 49.1098C68.584 49.5403 67.793 49.7556 66.8028 49.7556C65.8665 49.7556 65.0431 49.5188 64.3328 49.0452C63.8915 48.7654 63.6709 48.5286 63.6709 48.3349C63.6709 48.1627 63.757 48.0228 63.9292 47.9152C63.9723 47.8721 64.0261 47.8506 64.0906 47.8506C64.1552 47.8506 64.2252 47.8775 64.3005 47.9313C64.3758 47.9851 64.4619 48.0497 64.5588 48.125C64.6664 48.2004 64.7956 48.2865 64.9463 48.3833C65.1077 48.4694 65.2745 48.5502 65.4467 48.6255C65.8772 48.7977 66.297 48.8784 66.7059 48.8677C67.1149 48.8569 67.4432 48.8246 67.6907 48.7708C67.9382 48.717 68.1589 48.6255 68.3526 48.4963C68.7616 48.2165 68.9715 47.8614 68.9822 47.4309C68.9822 46.8927 68.7185 46.4784 68.1912 46.1878C67.9544 46.0586 67.6853 45.9456 67.384 45.8488C67.0934 45.7411 66.7813 45.6389 66.4476 45.542C66.1248 45.4452 65.8019 45.3268 65.479 45.1869C65.1561 45.0469 64.8709 44.8801 64.6234 44.6864C64.096 44.2667 63.8323 43.7285 63.8323 43.072C63.8323 42.7276 63.9131 42.4047 64.0745 42.1034C64.2467 41.802 64.4781 41.5545 64.7687 41.3608C65.3283 40.9626 66.0279 40.7581 66.8674 40.7473C68.0835 40.7473 69.0629 41.1401 69.8055 41.9258C69.8486 41.9904 69.8701 42.0657 69.8701 42.1518C69.8701 42.2272 69.8647 42.2917 69.854 42.3456C69.854 42.3994 69.8271 42.4532 69.7733 42.507C69.6979 42.6039 69.5957 42.6523 69.4665 42.6523C69.3481 42.6523 69.219 42.5716 69.0791 42.4101C68.7239 42.1518 68.4387 41.985 68.2235 41.9097C67.793 41.7375 67.3732 41.6514 66.9642 41.6514C66.4369 41.6514 65.9848 41.759 65.6082 41.9742C65.1561 42.2325 64.9301 42.5877 64.9301 43.0397Z" fill="black"/>
<path d="M51.9829 48.9478C51.9936 49.0123 51.999 49.0769 51.999 49.1415C51.999 49.2061 51.9829 49.2706 51.9506 49.3352C51.9183 49.3998 51.8752 49.4482 51.8214 49.4805C51.7138 49.5774 51.5954 49.6258 51.4663 49.6258C51.208 49.6258 51.0358 49.5128 50.9497 49.2868L50.1586 47.3334H45.7998L45.0249 49.2868C44.9495 49.5128 44.7989 49.6258 44.5728 49.6258C44.3468 49.6258 44.1746 49.5289 44.0562 49.3352C44.024 49.2706 44.0078 49.2114 44.0078 49.1576C44.0078 49.1038 44.024 49.0339 44.0562 48.9478L46.9783 41.7799C47.1935 41.2418 47.4411 40.935 47.7209 40.8597C47.7962 40.8489 47.8931 40.8328 48.0115 40.8113C48.2267 40.8113 48.3882 40.8597 48.4958 40.9566C48.668 41.0857 48.8402 41.3602 49.0124 41.7799L51.9829 48.9478ZM46.1065 46.4778H49.868L47.9792 41.7315L46.1065 46.4778Z" fill="black"/>
<path d="M26.7828 49.6261C26.5353 49.6261 26.3631 49.5185 26.2662 49.3032C26.2339 49.2386 26.2178 49.1687 26.2178 49.0934V41.3443C26.2178 41.0968 26.3308 40.9353 26.5568 40.86C26.6214 40.8492 26.7075 40.8385 26.8151 40.8277C26.9227 40.817 27.0303 40.8546 27.138 40.9407C27.2456 41.0268 27.2994 41.1614 27.2994 41.3443V48.722H31.3031C31.4645 48.722 31.5775 48.7705 31.6421 48.8673C31.7174 48.9534 31.7551 49.0557 31.7551 49.1741C31.7551 49.2817 31.7174 49.3839 31.6421 49.4808C31.5668 49.5777 31.4537 49.6261 31.3031 49.6261H26.7828Z" fill="black"/>
<path d="M7.28125 45.2676C7.28125 44.7079 7.36197 44.1429 7.52341 43.5725C7.68485 43.0021 7.93238 42.5124 8.26602 42.1034C8.97635 41.1993 9.98803 40.7473 11.3011 40.7473C12.0544 40.7473 12.7863 40.9141 13.4966 41.2478C13.6796 41.3231 13.7711 41.4469 13.7711 41.6191C13.7711 41.942 13.6419 42.1088 13.3836 42.1195C13.3298 42.1195 13.2814 42.1142 13.2383 42.1034C12.4957 41.8451 11.9038 41.7159 11.4625 41.7159C11.032 41.7159 10.6715 41.7644 10.3809 41.8612C10.0903 41.9581 9.83735 42.0926 9.6221 42.2648C9.40685 42.437 9.22389 42.6361 9.07321 42.8622C8.92254 43.0882 8.80415 43.3411 8.71805 43.6209C8.53509 44.1375 8.4436 44.6864 8.4436 45.2676C8.4436 46.2147 8.65347 47.0111 9.07321 47.6569C9.56829 48.421 10.3324 48.8031 11.3656 48.8031C12.076 48.8031 12.754 48.6147 13.3998 48.238C13.4859 48.2165 13.5666 48.2058 13.6419 48.2058C13.728 48.2058 13.8033 48.2434 13.8679 48.3188C13.9433 48.3941 13.9809 48.491 13.9809 48.6094C13.9809 48.7277 13.9379 48.8407 13.8518 48.9484C13.7657 49.0452 13.6473 49.1367 13.4966 49.2228C13.3567 49.2982 13.1953 49.3681 13.0123 49.4327C12.8401 49.4973 12.6571 49.5511 12.4634 49.5941C12.0544 49.7017 11.667 49.7556 11.3011 49.7556C9.97727 49.7556 8.96559 49.3089 8.26602 48.4156C7.60951 47.6084 7.28125 46.5591 7.28125 45.2676Z" fill="black"/>
<path fill-rule="evenodd" clip-rule="evenodd" d="M254.751 23.5205L247.383 16.6409L231.75 2.04239V0.705837C231.75 0.316008 232.066 0 232.453 0H235.888C236.073 0 236.231 0.0621654 236.367 0.189087L253.903 16.5645C254.078 16.729 254.306 16.7678 254.525 16.672C254.746 16.5749 254.871 16.3832 254.871 16.141V0.705837C254.871 0.316008 255.187 0 255.573 0H258.664C259.052 0 259.366 0.317303 259.366 0.705837V23.0025C259.366 23.3923 259.05 23.7083 258.664 23.7083H255.228C255.044 23.7083 254.885 23.6462 254.75 23.5193L254.751 23.5205ZM236.245 23.0025V13.0431C236.245 12.6533 235.93 12.3372 235.543 12.3372H232.454C232.066 12.3372 231.751 12.6546 231.751 13.0431V23.0025C231.751 23.3923 232.067 23.7083 232.454 23.7083H235.543C235.931 23.7083 236.245 23.391 236.245 23.0025Z" fill="black"/>
<path fill-rule="evenodd" clip-rule="evenodd" d="M56.8791 23.7096C53.0179 23.7096 49.8555 20.5327 49.8555 16.6526V7.05578C49.8555 3.17691 53.0192 0 56.8804 0H72.8318C76.693 0 79.8567 3.17691 79.8567 7.05578V16.6526C79.8567 20.5314 76.6943 23.7096 72.8331 23.7096H56.8817H56.8791ZM56.8791 4.51606C55.4996 4.51606 54.351 5.67001 54.351 7.05578V16.6526C54.351 18.0383 55.4996 19.1923 56.8791 19.1923H72.8305C74.21 19.1923 75.36 18.0383 75.36 16.6526V7.05578C75.36 5.67001 74.2113 4.51606 72.8318 4.51606H56.8804H56.8791Z" fill="black"/>
<path fill-rule="evenodd" clip-rule="evenodd" d="M96.3107 0H117.223C121.084 0 124.248 3.17691 124.248 7.05707V16.6539C124.248 20.5327 121.086 23.7096 117.224 23.7096H96.312C95.9252 23.7096 95.6094 23.3923 95.6094 23.0038V19.9007C95.6094 19.5109 95.9252 19.1949 96.312 19.1949H117.224C118.604 19.1949 119.754 18.0409 119.754 16.6552V7.05707C119.754 5.6713 118.605 4.51735 117.226 4.51735H96.3133C95.9252 4.51735 95.6107 4.20005 95.6107 3.81152V0.705837C95.6107 0.316008 95.9265 0 96.3133 0H96.3107Z" fill="black"/>
<path fill-rule="evenodd" clip-rule="evenodd" d="M141.783 14.1128H160.476C160.864 14.1128 161.179 13.7955 161.179 13.407V10.3039C161.179 9.91409 160.863 9.59808 160.476 9.59808H141.783C141.395 9.59808 141.08 9.91539 141.08 10.3039V13.407C141.08 13.7968 141.396 14.1128 141.783 14.1128ZM141.783 23.7096H166.655C167.044 23.7096 167.358 23.3923 167.358 23.0038V19.9007C167.358 19.5109 167.042 19.1949 166.655 19.1949H141.783C141.396 19.1949 141.08 19.5122 141.08 19.9007V23.0038C141.08 23.3936 141.396 23.7096 141.783 23.7096ZM141.783 4.51606H166.655C167.044 4.51606 167.358 4.19876 167.358 3.81022V0.705837C167.358 0.316008 167.042 0 166.655 0H141.783C141.396 0 141.08 0.317303 141.08 0.705837V3.80893C141.08 4.19876 141.396 4.51476 141.783 4.51476V4.51606Z" fill="black"/>
<path fill-rule="evenodd" clip-rule="evenodd" d="M17.7138 17.6899L29.006 7.14514C29.1813 6.98195 29.4095 6.9431 29.6287 7.03894C29.8491 7.13607 29.9755 7.32775 29.9755 7.56994V23.0038C29.9755 23.3936 30.2913 23.7096 30.6781 23.7096H33.7671C34.1551 23.7096 34.4697 23.3923 34.4697 23.0038V0.705837C34.4697 0.316008 34.1538 0 33.7671 0H30.3313C30.147 0 29.9884 0.0621654 29.853 0.189087L17.2368 11.9707L4.61796 0.189087C4.48259 0.0621654 4.32402 0 4.13966 0H0.702621C0.315857 0 0 0.317303 0 0.705837V2.04239L16.7559 17.6899L16.7701 17.7029C17.0408 17.9425 17.4469 17.9386 17.7138 17.6899ZM4.49549 23.0038V13.0444C4.49549 12.6546 4.17963 12.3385 3.79286 12.3385H0.702621C0.314568 12.3385 0 12.6558 0 13.0444V23.0038C0 23.3936 0.315857 23.7096 0.702621 23.7096H3.79158C4.17963 23.7096 4.4942 23.3923 4.4942 23.0038H4.49549Z" fill="black"/>
<path fill-rule="evenodd" clip-rule="evenodd" d="M186.73 0H206.621C210.482 0 213.646 3.17691 213.646 7.05578C213.646 7.54274 213.596 8.0297 213.495 8.5076C212.812 11.7557 209.928 14.1128 206.621 14.1128H205.294L213.419 22.4858C213.624 22.6982 213.703 22.9857 213.594 23.2615C213.486 23.5374 213.235 23.7096 212.94 23.7096H208.422C208.23 23.7096 208.065 23.6423 207.928 23.5063L198.426 14.1128H194.95C194.563 14.1128 194.247 13.7955 194.247 13.407V10.3039C194.247 9.91409 194.563 9.59808 194.95 9.59808H206.619C207.998 9.59808 209.147 8.44414 209.147 7.05837C209.147 5.6726 207.998 4.51865 206.619 4.51865H186.727C186.339 4.51865 186.025 4.20135 186.025 3.81281V0.705837C186.025 0.316008 186.34 0 186.727 0H186.73ZM186.705 23.7096H186.618C186.23 23.7096 185.915 23.3923 185.915 23.0038V12.3152H186.027V10.3039C186.027 9.91409 186.343 9.59808 186.73 9.59808H189.819C190.207 9.59808 190.521 9.91539 190.521 10.3039V23.0038C190.521 23.3923 190.206 23.7096 189.819 23.7096H186.705Z" fill="black"/>
</svg>
