<svg width="55" height="69" viewBox="0 0 55 69" fill="none" xmlns="http://www.w3.org/2000/svg">
<path d="M27.0241 68.2358C12.1231 68.2358 0 56.1127 0 41.2117C0 36.361 1.30064 31.6022 3.76004 27.4513C6.14849 23.4228 9.55937 20.0634 13.6227 17.7389C14.122 17.4524 14.7605 17.6262 15.0457 18.127C15.3323 18.6278 15.1584 19.2649 14.6576 19.5501C10.9059 21.6965 7.75794 24.7972 5.55311 28.5155C3.28429 32.345 2.08381 36.7352 2.08381 41.2117C2.08381 54.9623 13.2707 66.1492 27.0214 66.1492C40.772 66.1492 51.9589 54.9623 51.9589 41.2117C51.9589 36.7867 50.7848 32.4396 48.5647 28.642C46.4086 24.9543 43.3218 21.862 39.6397 19.6975C39.1431 19.4054 38.9775 18.7655 39.2682 18.2689C39.5604 17.7723 40.1989 17.6068 40.6969 17.8975C44.6864 20.2428 48.0305 23.5939 50.3661 27.5876C52.7741 31.7052 54.0469 36.4153 54.0469 41.2103C54.0469 56.1113 41.9238 68.2344 27.0227 68.2344L27.0241 68.2358Z" fill="#060606"/>
<path d="M27.0237 64.5093C15.7937 64.5093 6.65723 55.3728 6.65723 44.1428C6.65723 32.9127 15.7937 23.7762 27.0237 23.7762C38.2538 23.7762 47.3903 32.9127 47.3903 44.1428C47.3903 55.3728 38.2538 64.5093 27.0237 64.5093ZM27.0237 25.8628C16.9441 25.8628 8.74382 34.0631 8.74382 44.1428C8.74382 54.2224 16.9441 62.4227 27.0237 62.4227C37.1034 62.4227 45.3037 54.2224 45.3037 44.1428C45.3037 34.0631 37.1034 25.8628 27.0237 25.8628Z" fill="#060606"/>
<path d="M34.2043 21.9025C34.1208 21.9025 34.0374 21.8928 33.9539 21.8719C29.8586 20.8606 26.3281 20.9065 24.0871 21.1249C21.65 21.3614 20.1643 21.8455 20.1504 21.8497C19.6037 22.0305 19.0139 21.7342 18.8317 21.1875C18.6508 20.6408 18.9443 20.0524 19.491 19.8688C19.7526 19.7812 25.9901 17.7544 34.4547 19.8452C35.0139 19.9829 35.3561 20.549 35.217 21.1082C35.1001 21.584 34.6731 21.9012 34.2043 21.9012V21.9025Z" fill="#060606"/>
<path d="M32.9198 21.4084C32.5846 21.4084 32.2563 21.2471 32.0546 20.9494C31.7319 20.4722 31.8571 19.824 32.3356 19.5013C34.9647 17.7249 36.5338 14.7745 36.5338 11.607C36.5338 6.35715 32.2633 2.08659 27.0134 2.08659C21.7635 2.08659 17.4944 6.35715 17.4944 11.607C17.4944 14.7745 19.0635 17.7263 21.6926 19.5013C22.1697 19.824 22.2963 20.4722 21.9736 20.9494C21.6509 21.4265 21.0026 21.5517 20.5255 21.2304C17.3219 19.0659 15.4092 15.4686 15.4092 11.607C15.4064 5.20674 20.6131 0 27.0134 0C33.4137 0 38.6204 5.20674 38.6204 11.607C38.6204 15.4686 36.7077 19.0659 33.5041 21.2304C33.3246 21.3514 33.1216 21.4098 32.9212 21.4098L32.9198 21.4084Z" fill="#060606"/>
<path d="M33.7236 12.692C33.1477 12.692 32.6803 12.2246 32.6803 11.6487C32.6803 9.74571 31.7316 7.98185 30.143 6.92881C29.6631 6.61026 29.5309 5.96342 29.8495 5.48211C30.168 5.0022 30.8149 4.87004 31.2962 5.1886C33.469 6.62835 34.7669 9.04323 34.7669 11.6473C34.7669 12.2232 34.2995 12.6906 33.7236 12.6906V12.692Z" fill="#060606"/>
</svg>
