<svg width="189" height="39" viewBox="0 0 189 39" fill="none" xmlns="http://www.w3.org/2000/svg">
<path d="M62.0898 2.23009C59.3424 0.744467 56.1358 0 52.472 0C48.8082 0 45.7399 0.812627 42.9575 2.43722C40.1744 4.06247 38.006 6.34352 36.4503 9.28168C34.896 12.2212 34.1172 15.5908 34.1172 19.3932C34.1172 23.1956 34.8768 26.6618 36.3987 29.4789C37.9193 32.2966 40.0539 34.4486 42.802 35.9343C45.5493 37.4212 48.7559 38.1637 52.4204 38.1637C56.0849 38.1637 59.1518 37.3524 61.9343 35.7265C64.7161 34.1025 66.8858 31.8208 68.4414 28.882C69.9971 25.9438 70.7745 22.5742 70.7745 18.7712C70.7745 14.9681 70.0136 11.5038 68.493 8.68545C66.9718 5.86838 64.8378 3.71572 62.0898 2.23009ZM61.0013 28.4671C60.2238 31.2332 59.1088 33.3852 57.6571 34.9224C56.2046 36.461 54.5279 37.2306 52.6275 37.2306C50.7271 37.2306 49.1271 36.4868 47.6244 35.0005C46.1204 33.5149 44.9273 31.4059 44.0466 28.6749C43.1646 25.9438 42.7245 22.7814 42.7245 19.1854C42.7245 15.5895 43.113 12.462 43.8905 9.6966C44.6693 6.93115 45.7829 4.77915 47.236 3.24058C48.6871 1.70334 50.3638 0.933065 52.2649 0.933065C54.166 0.933065 55.7646 1.67687 57.2693 3.16316C58.772 4.64944 59.9651 6.75844 60.8464 9.48881C61.7272 12.2205 62.1685 15.383 62.1685 18.9776C62.1685 22.5722 61.7788 25.7016 61.0013 28.4671Z" fill="black"/>
<path d="M103.552 2.46691L94.5088 26.2581L84.5807 2.31934C82.4182 2.41794 79.829 2.46691 76.8137 2.46691C75.0119 2.46691 73.5859 2.41794 72.5371 2.31934V3.30269C73.6183 3.36887 74.4124 3.49923 74.9212 3.69577C75.4287 3.89297 77.3543 5.51492 77.3543 5.51492L90.6253 37.171H91.412L103.257 6.20314V31.9114C103.257 33.1568 103.159 34.0581 102.962 34.6153C102.766 35.1732 102.398 35.549 101.857 35.7456C101.316 35.9421 100.455 36.0731 99.2756 36.1393V37.122C100.947 37.0234 103.535 36.9744 107.043 36.9744C110.55 36.9744 112.956 37.0234 114.759 37.122V36.1393C113.677 36.0738 112.883 35.9421 112.375 35.7456C111.866 35.549 111.522 35.1732 111.344 34.6153C111.162 34.0581 111.073 33.1568 111.073 31.9114V7.52994C111.073 6.28519 111.162 5.38455 111.344 4.8267C111.523 4.26951 111.859 3.89297 112.351 3.69577C112.843 3.49923 113.645 3.36887 114.759 3.30269V2.31934C112.956 2.41794 110.385 2.46691 107.043 2.46691H103.552Z" fill="black"/>
<path d="M77.4042 27.4374C74.7171 27.4374 72.5381 29.6165 72.5381 32.3045C72.5381 34.9926 74.7171 37.171 77.4042 37.171C80.0914 37.171 82.271 34.9919 82.271 32.3045C82.271 29.6172 80.092 27.4374 77.4042 27.4374Z" fill="black"/>
<path d="M5.13345 27.8964C2.2994 27.8964 0 30.1946 0 33.0309C0 35.8671 2.29874 38.1647 5.13345 38.1647C7.96816 38.1647 10.2676 35.8658 10.2676 33.0309C10.2676 30.1959 7.96882 27.8964 5.13345 27.8964Z" fill="black"/>
<path d="M34.1174 1.34741C33.0455 1.45131 31.5428 1.50292 29.6066 1.50292C27.2219 1.50292 25.3552 1.45131 24.0073 1.34741V2.38503C25.563 2.55841 26.6859 2.86017 27.3767 3.29229C28.0682 3.72507 28.5181 4.4166 28.7246 5.36687C28.9324 6.3178 29.0356 7.81269 29.0356 9.8522V26.0829L8.97094 1.34741C7.72629 1.45131 6.24012 1.50292 4.51177 1.50292C2.61005 1.50292 1.10667 1.45131 0.000976562 1.34741V2.38503C1.14108 2.45518 1.97945 2.59216 2.51609 2.79995C3.0514 3.00774 3.41401 3.40479 3.60458 3.99242C3.79316 4.58138 3.74618 8.31761 3.74618 8.31761L27.5851 38.1644L28.9846 38.1122L30.2293 38.1644V9.2295C30.2293 7.4666 30.3239 6.13582 30.5145 5.23651C30.7037 4.33851 31.0677 3.68074 31.603 3.26648C32.1383 2.85157 32.978 2.55775 34.1181 2.38503V1.34741H34.1174Z" fill="black"/>
<path d="M124.492 27.4374C121.806 27.4374 119.626 29.6165 119.626 32.3045C119.626 34.9926 121.806 37.171 124.492 37.171C127.179 37.171 129.36 34.9919 129.36 32.3045C129.36 29.6172 127.18 27.4374 124.492 27.4374Z" fill="black"/>
<path d="M147.338 33.0417L135.394 2.27039C135.067 2.30347 134.51 2.31935 133.724 2.31935C132.937 2.31935 132.364 2.30347 132.003 2.27039L129.36 9.05066L138.344 32.0583C138.737 33.041 138.934 33.8278 138.934 34.4175C138.934 35.0402 138.671 35.4743 138.147 35.7204C137.623 35.966 136.738 36.1215 135.493 36.1876V37.1703C137.131 37.0717 139.622 37.0228 142.964 37.0228C145.978 37.0228 148.47 37.0717 150.435 37.1703V36.1876C149.911 36.1552 149.369 35.8925 148.813 35.4008C148.255 34.9091 147.763 34.123 147.338 33.0417Z" fill="black"/>
<path d="M183.337 12.004C186.025 12.004 188.204 9.82491 188.204 7.13755C188.204 4.45019 186.025 2.27039 183.337 2.27039C180.649 2.27039 178.471 4.44952 178.471 7.13755C178.471 9.82557 180.65 12.004 183.337 12.004Z" fill="black"/>
<path d="M184.666 33.1892L172.213 14.9561C171.177 16.0539 170.232 16.891 169.379 17.4595C168.298 18.1808 167.101 18.5738 165.791 18.6387V7.57889C165.791 6.33414 165.881 5.4335 166.062 4.87565C166.242 4.31846 166.578 3.94192 167.069 3.74472C167.561 3.54818 168.363 3.41782 169.477 3.35164V2.36829C167.707 2.46689 165.233 2.51586 162.056 2.51586C158.55 2.51586 155.961 2.46689 154.29 2.36829V3.35164C155.371 3.41782 156.165 3.54818 156.674 3.74472C157.182 3.94192 157.526 4.31846 157.706 4.87565C157.885 5.4335 157.976 6.33414 157.976 7.57889V31.9603C157.976 33.2058 157.885 34.1071 157.706 34.6643C157.525 35.2221 157.182 35.598 156.674 35.7945C156.165 35.9911 155.371 36.1221 154.29 36.1883V37.171C155.961 37.0724 158.549 37.0234 162.056 37.0234C165.233 37.0234 167.708 37.0724 169.477 37.171V36.1883C168.363 36.1227 167.56 35.9911 167.069 35.7945C166.578 35.598 166.242 35.2221 166.062 34.6643C165.881 34.1071 165.791 33.2058 165.791 31.9603V19.6717C166.545 19.7379 167.144 19.9503 167.585 20.3109C168.028 20.6722 168.575 21.3763 169.231 22.4246L176.359 33.976C176.718 34.5339 176.899 34.9435 176.899 35.2049C176.899 35.5325 176.694 35.7628 176.284 35.8931C175.875 36.0248 175.211 36.1221 174.294 36.1883V37.171C176.291 37.0724 178.373 37.0234 180.536 37.0234C183.354 37.0234 185.909 37.0724 188.203 37.171V36.1883C187.384 35.8607 186.712 35.4676 186.188 35.0084C185.663 34.5498 185.156 33.9436 184.665 33.1899L184.666 33.1892Z" fill="black"/>
</svg>
