<svg width="189" height="55" viewBox="0 0 189 55" fill="none" xmlns="http://www.w3.org/2000/svg">
<path d="M22.9912 44.5836V54.067H24.4815V50.0026H24.9968C25.3401 50.0026 25.5799 50.0882 25.7148 50.2594C25.8594 50.4307 25.9313 50.7336 25.9313 51.1673V54.067H27.4223V51.2489C27.4223 50.6892 27.3448 50.2417 27.1913 49.9081C27.0468 49.5737 26.7948 49.3524 26.4329 49.2441V49.2167C27.0831 48.955 27.4078 48.3322 27.4078 47.3468V46.7637C27.4078 46.023 27.2317 45.477 26.8796 45.1248C26.5274 44.7637 25.9676 44.5836 25.1995 44.5836H22.9912ZM24.4815 45.9382H25.1591C25.4208 45.9382 25.6106 46.0149 25.7286 46.1684C25.8546 46.3218 25.9184 46.5698 25.9184 46.9131V47.6449C25.9184 48.0059 25.8416 48.2636 25.6882 48.417C25.5436 48.5705 25.3231 48.6481 25.025 48.6481H24.4823V45.9382H24.4815Z" fill="black"/>
<path d="M39.0781 44.5836H43.1426V45.9381H40.5684V48.4445H42.6143V49.799H40.5684V52.7116H43.1426V54.0662H39.0781V44.5828V44.5836Z" fill="black"/>
<path d="M134.245 44.5836H132.755V54.067H134.245V44.5836Z" fill="black"/>
<path d="M86.4424 44.5836H87.9326V52.7125H90.3849V54.067H86.4424V44.5836Z" fill="black"/>
<path d="M161.621 44.5836H163.491L164.941 49.9396L164.968 44.5836H166.296V54.067H164.766L162.957 47.8823L162.949 54.067H161.621V44.5836Z" fill="black"/>
<path d="M147.781 54.2035C147.05 54.2035 146.489 53.9959 146.101 53.58C145.712 53.1648 145.519 52.5776 145.519 51.8191V46.8331C145.519 46.0747 145.713 45.4875 146.101 45.0715C146.489 44.6563 147.049 44.4487 147.781 44.4487C148.513 44.4487 149.073 44.6563 149.461 45.0715C149.85 45.4866 150.044 46.0739 150.044 46.8331V51.8191C150.044 52.5776 149.85 53.1648 149.461 53.58C149.073 53.9951 148.513 54.2035 147.781 54.2035ZM147.781 52.849C148.296 52.849 148.553 52.5372 148.553 51.9145V46.7386C148.553 46.1159 148.295 45.8041 147.781 45.8041C147.266 45.8041 147.009 46.1159 147.009 46.7386V51.9145C147.009 52.5372 147.266 52.849 147.781 52.849Z" fill="black"/>
<path d="M118.67 45.9391H117.112V44.5846H121.719V45.9391H120.161V54.068H118.67V45.9391Z" fill="black"/>
<path d="M103.709 54.2037C102.986 54.2037 102.436 54.0002 102.056 53.5939C101.677 53.1779 101.487 52.5866 101.487 51.8193V44.5846H102.978V51.9276C102.978 52.2523 103.041 52.4873 103.167 52.6319C103.303 52.7765 103.493 52.8492 103.737 52.8492C103.981 52.8492 104.166 52.7765 104.293 52.6319C104.428 52.4873 104.496 52.2523 104.496 51.9276V44.5846H105.932V51.8193C105.932 52.5866 105.742 53.1787 105.364 53.5939C104.984 54.0002 104.433 54.2037 103.711 54.2037H103.709Z" fill="black"/>
<path d="M54.1836 44.5836H55.6876L56.6633 50.9678L57.6657 44.5836H59.0339L57.5978 54.067H55.6197L54.1836 44.5836Z" fill="black"/>
<path d="M72.8814 54.2035C72.1496 54.2035 71.5899 53.9959 71.2013 53.58C70.8128 53.1648 70.6182 52.5776 70.6182 51.8191V46.8331C70.6182 46.0747 70.8128 45.4875 71.2013 45.0715C71.5899 44.6563 72.1496 44.4487 72.8814 44.4487C73.6132 44.4487 74.1729 44.6563 74.5614 45.0715C74.95 45.4866 75.1438 46.0739 75.1438 46.8331V51.8191C75.1438 52.5776 74.95 53.1648 74.5614 53.58C74.1729 53.9951 73.6132 54.2035 72.8814 54.2035ZM72.8814 52.849C73.3967 52.849 73.6536 52.5372 73.6536 51.9145V46.7386C73.6536 46.1159 73.3959 45.8041 72.8814 45.8041C72.3669 45.8041 72.1092 46.1159 72.1092 46.7386V51.9145C72.1092 52.5372 72.3669 52.849 72.8814 52.849Z" fill="black"/>
<path d="M106.153 0.542236H113.618L119.406 21.929L119.514 0.542236H124.816V38.4096H118.703L111.483 13.7169L111.453 38.4096H106.152V0.542236H106.153Z" fill="black"/>
<path d="M170.516 0.542236V38.4072H176.465V22.181H178.521C179.891 22.181 180.847 22.521 181.388 23.206C181.965 23.8909 182.253 25.1009 182.253 26.8318V38.4072H188.204V27.1557C188.204 24.9199 187.896 23.1365 187.284 21.8022C186.706 20.4678 185.698 19.5834 184.256 19.1504V19.0414C186.852 17.9954 188.149 15.5092 188.149 11.5781V9.25023C188.149 6.29318 187.446 4.11235 186.039 2.7053C184.633 1.26272 182.397 0.543044 179.332 0.543044H170.515L170.516 0.542236ZM176.465 5.95233H179.17C180.215 5.95233 180.973 6.25764 181.442 6.8707C181.947 7.48376 182.201 8.47483 182.201 9.84552V12.7662C182.201 14.2088 181.893 15.237 181.279 15.8501C180.702 16.4631 179.82 16.7709 178.631 16.7709H176.465V5.95233Z" fill="black"/>
<path d="M137.922 38.9503C135.073 38.9503 132.892 38.1385 131.377 36.5158C129.898 34.8931 129.159 32.6024 129.159 29.6454V9.30544C129.159 6.34838 129.898 4.0577 131.377 2.43499C132.891 0.812291 135.072 0.00134277 137.922 0.00134277C140.772 0.00134277 142.935 0.813098 144.414 2.4358C145.928 4.05851 146.686 6.34919 146.686 9.30624V13.3093H141.059V8.92743C141.059 6.58343 140.067 5.41143 138.084 5.41143C136.102 5.41143 135.109 6.58343 135.109 8.92743V30.0791C135.109 32.3876 136.101 33.541 138.084 33.541C140.068 33.541 141.059 32.3868 141.059 30.0791V24.291H146.686V29.647C146.686 32.604 145.928 34.8939 144.414 36.5174C142.935 38.1401 140.771 38.9519 137.922 38.9519V38.9503Z" fill="black"/>
<path d="M22.7988 0.542236H39.0275V5.95233H28.7493V15.9599H36.9177V21.37H28.7493V33.0003H39.0275V38.4096H22.7988V0.542236Z" fill="black"/>
<path d="M8.76373 38.9503C5.87857 38.9503 3.69692 38.1385 2.21799 36.5158C0.739061 34.8568 0 32.495 0 29.4289V27.265H5.62575V29.8618C5.62575 32.3141 6.65317 33.5402 8.70961 33.5402C9.71926 33.5402 10.4761 33.2518 10.9817 32.6751C11.5221 32.0621 11.7927 31.088 11.7927 29.7544C11.7927 28.1672 11.4316 26.7788 10.7111 25.589C9.98985 24.3629 8.6555 22.9017 6.70809 21.2071C4.25586 19.0433 2.54269 17.0959 1.56939 15.3649C0.595288 13.5968 0.108234 11.6139 0.108234 9.41367C0.108234 6.42027 0.865873 4.11182 2.38034 2.48911C3.89481 0.830868 6.09503 0.00134277 8.9802 0.00134277C11.8654 0.00134277 13.9751 0.830868 15.4177 2.48992C16.8958 4.11262 17.6357 6.45662 17.6357 9.5219V11.0913H12.0099V9.14389C12.0099 7.84589 11.7579 6.90813 11.2523 6.33142C10.7475 5.71836 10.0084 5.41143 9.03432 5.41143C7.05137 5.41143 6.05869 6.61978 6.05869 9.03566C6.05869 10.4064 6.41974 11.6866 7.14022 12.8764C7.89786 14.0661 9.24998 15.5095 11.1974 17.2041C13.686 19.368 15.3991 21.3332 16.3361 23.1004C17.2738 24.8677 17.7423 26.9411 17.7423 29.3215C17.7423 32.4231 16.9669 34.8035 15.4161 36.4625C13.9016 38.1216 11.6828 38.9511 8.76212 38.9511L8.76373 38.9503Z" fill="black"/>
<path d="M73.2675 38.9508C70.3823 38.9508 68.1821 38.139 66.6676 36.5163C65.1531 34.8573 64.3955 32.4955 64.3955 29.4294V0.542236H70.346V29.8624C70.346 31.1604 70.598 32.0981 71.1036 32.6748C71.6448 33.2524 72.4016 33.5399 73.3757 33.5399C74.3498 33.5399 75.0889 33.2516 75.5937 32.6748C76.1349 32.0973 76.4055 31.1604 76.4055 29.8624V0.542236H82.1394V29.4294C82.1394 32.4947 81.3818 34.8573 79.8673 36.5163C78.3529 38.139 76.1526 38.9508 73.2675 38.9508Z" fill="black"/>
<path d="M51.2723 0C48.3516 0 46.1134 0.829525 44.5626 2.48858C43.0117 4.14763 42.2363 6.49243 42.2363 9.52137V29.43C42.2363 32.4589 43.0117 34.8013 44.5626 36.4603C46.1134 38.1194 48.3516 38.9489 51.2723 38.9489C53.3126 38.9489 55.0104 38.5362 56.3819 37.7277L56.7454 38.4094H63.0205L59.8954 32.8418C60.1628 31.82 60.305 30.6876 60.305 29.4292V9.52137C60.305 6.49243 59.5304 4.14763 57.9795 2.48858C56.4287 0.829525 54.193 0 51.2723 0ZM51.2723 5.40928C53.3279 5.40928 54.3537 6.65397 54.3537 9.14174V25.208H49.6924L53.6187 32.5567C53.105 33.2093 52.3255 33.5388 51.2723 33.5388C49.2166 33.5388 48.1884 32.2966 48.1884 29.8088V9.14255C48.1884 6.65397 49.2166 5.41009 51.2723 5.41009V5.40928Z" fill="black"/>
<path d="M86.7139 0.542236H102.943V5.95233H92.6643V15.9599H100.833V21.37H92.6643V33.0003H102.943V38.4096H86.7139V0.542236Z" fill="black"/>
<path d="M150.499 0.542236H166.728V5.95233H156.449V15.9599H164.618V21.37H156.449V33.0003H166.728V38.4096H150.499V0.542236Z" fill="black"/>
<path d="M10.0344 49.7335C10.0344 50.6688 9.27675 51.4265 8.34141 51.4265C7.40608 51.4265 6.64844 50.6688 6.64844 49.7335C6.64844 48.7982 7.40608 48.0405 8.34141 48.0405C9.27675 48.0405 10.0344 48.7982 10.0344 49.7335Z" fill="black"/>
<path d="M181.558 49.7335C181.558 50.6688 180.8 51.4265 179.865 51.4265C178.93 51.4265 178.172 50.6688 178.172 49.7335C178.172 48.7982 178.93 48.0405 179.865 48.0405C180.8 48.0405 181.558 48.7982 181.558 49.7335Z" fill="black"/>
</svg>
