<svg width="227" height="44" viewBox="0 0 227 44" fill="none" xmlns="http://www.w3.org/2000/svg">
<path d="M215.452 7.88369L224.585 33.728L223.364 32.9229L227 33.7002L226.861 35.5324H216.479L216.618 33.6447C217.525 33.2561 218.626 32.9322 219.922 32.6731L219.561 33.4504L211.788 9.79911L210.844 8.02249C211.492 7.92996 212.232 7.87444 213.065 7.85593C213.898 7.83743 214.693 7.84668 215.452 7.88369ZM213.787 8.05025L205.237 33.728L205.042 32.8952L208.429 33.7002L208.29 35.5324H199.546L199.685 33.7557C200.147 33.5152 200.666 33.3116 201.239 33.145C201.813 32.96 202.405 32.8119 203.016 32.7009L201.767 33.728L210.844 8.02249L213.787 8.05025ZM205.931 27.7319L206.847 25.0669H218.645L219.588 27.7319H205.931Z" fill="white"/>
<path d="M191.718 35.6994L174.174 10.9378L177.283 8.05078L194.827 32.868L195.049 35.5606C194.068 35.7642 192.958 35.8105 191.718 35.6994ZM173.952 35.1165V8.43942L177.449 10.0772V35.1165H173.952ZM177.671 12.8255L174.423 11.1876L170.731 9.88292L170.87 8.05078H177.283L177.671 12.8255ZM195.049 35.5606L191.551 34.3115V8.43942H195.049V35.5606ZM170.842 35.5329L170.981 33.7563C171.944 33.3676 173.119 33.0068 174.507 32.6736L173.952 34.7556V30.8693H177.449V34.7556L176.922 32.8957L181.058 33.7007L180.919 35.5329H170.842ZM197.991 8.05078L197.853 9.8274C196.761 10.2901 195.632 10.6509 194.466 10.91L195.049 8.82805V12.7144H191.551V8.82805L192.023 10.688L188.331 9.88292L188.47 8.05078H197.991Z" fill="white"/>
<path d="M126.309 7.88369L135.442 33.728L134.22 32.9229L137.857 33.7002L137.718 35.5324H127.336L127.475 33.6447C128.381 33.2561 129.483 32.9322 130.778 32.6731L130.417 33.4504L122.644 9.79911L121.701 8.02249C122.348 7.92996 123.089 7.87444 123.921 7.85593C124.754 7.83743 125.55 7.84668 126.309 7.88369ZM124.643 8.05025L116.093 33.728L115.899 32.8952L119.285 33.7002L119.147 35.5324H110.402L110.541 33.7557C111.004 33.5152 111.522 33.3116 112.096 33.145C112.669 32.96 113.262 32.8119 113.872 32.7009L112.623 33.728L121.701 8.02249L124.643 8.05025ZM116.787 27.7319L117.703 25.0669H129.501L130.445 27.7319H116.787Z" fill="white"/>
<path d="M82.5033 35.6994L74.9526 9.8274L76.2851 10.688L72.5098 9.88292L72.6486 8.05078H83.2528L83.114 9.88292C82.2442 10.2531 81.0598 10.5677 79.5607 10.8268L79.8938 9.99396L86.112 33.3954L86.6672 35.5606C86.0935 35.6532 85.418 35.7087 84.6408 35.7272C83.882 35.7642 83.1695 35.755 82.5033 35.6994ZM86.6672 35.5606L83.8357 35.1443L91.2476 8.68925L94.3289 8.71701L86.6672 35.5606ZM98.3541 35.6994L91.4141 10.4659L91.2476 8.68925C91.7657 8.59672 92.4042 8.5412 93.163 8.5227C93.9218 8.48568 94.5972 8.48568 95.1894 8.5227L101.907 33.3954L102.518 35.5606C101.944 35.6532 101.269 35.7087 100.492 35.7272C99.7143 35.7642 99.0018 35.755 98.3541 35.6994ZM102.518 35.5606L99.6865 35.1443L106.599 9.85516L106.904 10.688L103.184 9.88292L103.323 8.05078H112.262L112.123 9.8274C111.716 10.0495 111.225 10.2531 110.652 10.4381C110.078 10.6047 109.458 10.7435 108.792 10.8545L109.985 9.88292L102.518 35.5606Z" fill="white"/>
<path d="M60.546 35.9769C57.2148 35.9769 54.5129 35.1996 52.4402 33.6451C52.0515 30.9616 51.959 28.6761 52.1626 26.7884H54.189L57.1871 33.7561L55.0218 31.6741C57.0205 32.803 59.0748 33.3675 61.1845 33.3675C62.8316 33.3675 64.09 32.9973 64.9598 32.2571C65.8481 31.5168 66.2923 30.4712 66.2923 29.1202C66.2923 27.9913 65.9499 27.0753 65.2652 26.372C64.5804 25.6503 63.47 25.058 61.934 24.5954L59.2135 23.7348C54.5314 22.2543 52.1903 19.6079 52.1903 15.7956C52.1903 13.2972 53.0601 11.3077 54.7998 9.82722C56.5394 8.3467 58.8897 7.60645 61.8507 7.60645C64.4971 7.60645 66.8845 8.16164 69.0127 9.27203C69.3458 11.4743 69.4384 13.4822 69.2903 15.2959H67.1528L64.71 9.6329L67.3749 11.9092C65.2096 10.7803 63.1554 10.2159 61.2122 10.2159C58.1957 10.2159 56.6874 11.5391 56.6874 14.1855C56.6874 15.3514 57.0483 16.3045 57.77 17.0447C58.5103 17.785 59.6947 18.4142 61.3233 18.9324L64.0437 19.793C68.6148 21.2365 70.9004 23.8366 70.9004 27.5934C70.9004 30.1658 69.9658 32.2108 68.0967 33.7283C66.2275 35.2274 63.7106 35.9769 60.546 35.9769Z" fill="white"/>
<path d="M33.7236 29.7706C32.2747 32.3778 31.5687 35.7677 28.8919 35.8122C26.2542 35.8568 25.8465 33.1581 23.8126 31.9842C23.6533 31.892 23.4931 31.8225 23.3315 31.7686C26.1238 31.0852 28.4779 29.2793 29.8901 26.8572C29.7894 27.864 29.894 28.9443 29.88 29.8136C29.8526 31.4718 29.2129 33.1136 28.1108 34.3524C28.0882 34.5266 28.2983 34.6594 28.4709 34.6266C28.6435 34.5938 28.7755 34.4571 28.8896 34.3227C29.7917 33.2581 30.3478 31.9053 30.4541 30.5134C30.5103 29.7784 30.4447 29.0388 30.497 28.3038C30.5634 27.368 30.8993 26.1683 31.8139 25.727C34.1501 24.6023 35.617 26.3675 38.5022 24.8725C39.3239 24.4468 39.923 23.7532 40.3354 22.9948C40.3526 22.9651 40.369 22.9339 40.3846 22.9034C40.6705 22.3496 40.8478 21.7443 40.9072 21.1249C40.9111 21.0859 40.9142 21.0468 40.9165 21.0085C40.9267 20.85 40.9298 20.6899 40.9259 20.529C40.9259 20.4938 40.9236 20.4579 40.9228 20.4227C40.7447 16.1057 35.8591 11.1303 37.4119 7.09762C37.4119 7.09762 31.6421 10.004 34.3555 14.5319C35.8888 17.0907 38.4718 19.3964 37.1721 21.7373C35.8919 24.0438 33.3511 23.0479 31.3172 24.2219C31.1578 24.314 31.0164 24.4179 30.8891 24.532C31.1609 23.6017 31.3093 22.6191 31.3093 21.6029C31.3093 19.7081 30.8009 17.9303 29.9159 16.3955C30.7376 16.9868 31.7249 17.4359 32.4716 17.8827C33.8939 18.7356 34.996 20.1103 35.5178 21.6842C35.6576 21.7912 35.8771 21.6756 35.9349 21.5092C35.9934 21.3428 35.9403 21.1609 35.881 20.9945C35.4108 19.6807 34.5164 18.5232 33.3643 17.7351C32.7559 17.3187 32.0826 17.0063 31.4726 16.5931C30.6954 16.0675 29.8237 15.177 29.9003 14.164C30.094 11.5786 32.3568 11.1912 32.5044 7.9443C32.5466 7.02029 32.2451 6.15408 31.7952 5.41753C31.778 5.38785 31.7592 5.35817 31.7405 5.32849C31.4038 4.8036 30.9688 4.34746 30.4619 3.9866C30.4299 3.96317 30.3978 3.9413 30.3658 3.92021C30.233 3.83195 30.0963 3.74915 29.9557 3.67183C29.9253 3.65543 29.8933 3.63824 29.862 3.62184C26.034 1.6176 19.2831 3.36096 16.5666 0C16.5666 0 16.1979 6.45011 21.4764 6.36419C24.4585 6.31576 27.7469 5.23163 29.1247 7.52799C30.4822 9.78998 28.3491 11.4919 28.3491 13.8406C28.3491 14.0289 28.3694 14.2069 28.4053 14.3772C26.5065 12.3902 23.836 11.1467 20.8797 11.1365C21.799 10.7202 22.6785 10.0923 23.4361 9.67126C24.8858 8.86519 26.6276 8.59884 28.2514 8.93392C28.4139 8.86675 28.4233 8.61837 28.3092 8.4848C28.1944 8.35124 28.0101 8.30594 27.8367 8.27391C26.4636 8.02475 25.0139 8.22002 23.7556 8.82379C23.0909 9.14247 22.4832 9.56893 21.8209 9.89152C20.9773 10.3024 19.7705 10.6109 18.9309 10.0391C16.7892 8.57853 17.5843 6.42589 14.8466 4.67394C14.0671 4.17562 13.1666 4.003 12.3043 4.02487C12.2699 4.02487 12.2347 4.02565 12.2004 4.028C11.5779 4.05768 10.9655 4.20608 10.3992 4.46462C10.3633 4.48102 10.3281 4.49742 10.2938 4.51461C10.1516 4.5849 10.011 4.66223 9.87355 4.7458C9.84387 4.76377 9.81341 4.7833 9.78295 4.80204C6.13455 7.11949 4.26857 13.8375 0 14.5092C0 14.5092 5.40191 18.053 7.96617 13.4392C9.41506 10.8319 10.1212 7.44207 12.7979 7.39755C15.4356 7.35303 15.8433 10.0516 17.8772 11.2256C18.0366 11.3178 18.1967 11.3873 18.3584 11.4412C15.566 12.1246 13.2119 13.9304 11.7997 16.3526C11.9004 15.3458 11.7958 14.2655 11.8098 13.3962C11.8372 11.738 12.4769 10.0962 13.579 8.85738C13.6016 8.6832 13.3915 8.55041 13.2189 8.58322C13.0463 8.61602 12.9143 8.75271 12.8002 8.88706C11.8981 9.95166 11.342 11.3045 11.2357 12.6964C11.1795 13.4313 11.2451 14.171 11.1928 14.906C11.1264 15.8417 10.7905 17.0415 9.8759 17.4828C7.5397 18.6075 6.07285 16.8423 3.18756 18.3373C2.36587 18.763 1.76679 19.4565 1.35438 20.215C1.3372 20.2446 1.3208 20.2759 1.30517 20.3064C1.0193 20.8601 0.841998 21.4655 0.782636 22.0849C0.778731 22.1239 0.775606 22.163 0.773263 22.2012C0.763109 22.3598 0.759985 22.5199 0.76389 22.6808C0.76389 22.716 0.766233 22.7519 0.767014 22.787C0.945099 27.104 5.83072 32.0795 4.27794 36.1122C4.27794 36.1122 10.0477 33.2058 7.33428 28.6779C5.80103 26.1191 3.21802 23.8134 4.51773 21.4725C5.79791 19.166 8.33874 20.1619 10.3727 18.9879C10.532 18.8957 10.6734 18.7919 10.8007 18.6778C10.5289 19.6081 10.3805 20.5907 10.3805 21.6068C10.3805 23.5017 10.8897 25.2794 11.7739 26.8143C10.9522 26.223 9.96494 25.7739 9.21823 25.3271C7.79512 24.4742 6.6938 23.0995 6.17204 21.5256C6.03223 21.4186 5.81275 21.5342 5.75495 21.7006C5.69637 21.8669 5.74948 22.0489 5.80885 22.2153C6.27983 23.5291 7.17338 24.6866 8.32546 25.4747C8.93392 25.891 9.60721 26.2035 10.2172 26.6166C10.9944 27.1423 11.8661 28.0327 11.7895 29.0458C11.5958 31.6311 9.33305 32.0186 9.18543 35.2655C9.14325 36.1895 9.44474 37.0557 9.89464 37.7923C9.91183 37.8219 9.93057 37.8516 9.94932 37.8813C10.286 38.4062 10.721 38.8623 11.2279 39.2224C11.26 39.2458 11.292 39.2677 11.324 39.2888C11.4568 39.3771 11.5935 39.4598 11.7341 39.5372C11.7645 39.5536 11.7966 39.5708 11.8278 39.5872C15.6558 41.5914 22.4067 39.848 25.1232 43.209C25.1232 43.209 25.4911 36.7589 20.2134 36.8448C17.2313 36.8932 13.9429 37.9774 12.5651 35.681C11.2076 33.419 13.3407 31.7171 13.3407 29.3684C13.3407 29.1801 13.3204 29.002 13.2845 28.8318C15.1833 30.8188 17.8538 32.0623 20.8101 32.0724C19.8908 32.4888 19.0113 33.1167 18.2537 33.5377C16.804 34.3438 15.0622 34.6102 13.4384 34.2751C13.2759 34.3423 13.2665 34.5906 13.3806 34.7242C13.4954 34.8578 13.6797 34.9031 13.8531 34.9351C15.2263 35.1842 16.6759 34.989 17.9342 34.3852C18.5989 34.0665 19.2066 33.6401 19.869 33.3175C20.7125 32.9066 21.9193 32.5981 22.7589 33.1699C24.9006 34.6305 24.1055 36.7831 26.8432 38.5351C27.6227 39.0334 28.5233 39.206 29.3856 39.1841C29.4199 39.1841 29.4551 39.1833 29.4894 39.181C30.112 39.1513 30.7243 39.0029 31.2906 38.7444C31.3265 38.728 31.3617 38.7116 31.396 38.6944C31.5382 38.6241 31.6788 38.5468 31.8163 38.4632C31.8459 38.4452 31.8764 38.4257 31.9069 38.407C35.5568 36.0942 37.4228 29.3762 41.6914 28.7037C41.6914 28.7037 36.2895 25.1599 33.7252 29.7737L33.7236 29.7706ZM11.1241 21.6045C11.1241 16.2448 15.4848 11.884 20.8445 11.884C26.2042 11.884 30.565 16.2448 30.565 21.6045C30.565 26.9642 26.2042 31.325 20.8445 31.325C15.4848 31.325 11.1241 26.9642 11.1241 21.6045Z" fill="#C49A6C"/>
<path d="M21.862 27.8621C25.3187 27.301 27.666 24.0439 27.1049 20.5873C26.5438 17.1306 23.2868 14.7833 19.8301 15.3444C16.3735 15.9055 14.0261 19.1625 14.5872 22.6192C15.1483 26.0758 18.4054 28.4232 21.862 27.8621Z" fill="#C49A6C"/>
<path fill-rule="evenodd" clip-rule="evenodd" d="M150.613 9.6684C152.722 10.0489 155.329 11.787 155.329 16.3256C155.329 19.347 154.26 21.0418 153.155 21.8524C152.678 22.1971 152.296 22.3698 151.571 22.44V24.5049C152.05 25.0575 153.745 27.5628 155.219 29.5892C157.282 32.4262 158.682 34.1574 160.266 35.0051C161.224 35.5212 162.145 35.7049 164.208 35.7049H167.708C168.151 35.7049 168.408 35.6313 168.408 35.3368C168.408 35.1524 168.261 35.0423 167.966 35.0423C167.672 35.0423 167.34 35.0058 166.935 34.9315C166.382 34.8207 164.872 34.5634 162.808 32.4262C160.635 30.1417 158.092 26.863 154.813 22.7365C158.535 19.7152 159.677 17.2098 159.677 14.4836C159.677 12.0155 158.203 10.1363 157.172 9.43651C155.245 8.11608 152.869 7.86699 150.613 7.85254V9.6684ZM142.877 32.8679C142.729 33.9365 142.545 34.7471 141.808 34.8944C141.476 34.968 141.035 35.0416 140.481 35.0416C140.039 35.0416 139.892 35.1524 139.892 35.3361C139.892 35.5941 140.15 35.7042 140.629 35.7042C142.102 35.7042 144.423 35.5934 145.123 35.5934C145.676 35.5934 148.402 35.7042 150.539 35.7042C151.018 35.7042 151.276 35.5934 151.276 35.3361C151.276 35.1517 151.129 35.0416 150.834 35.0416C150.392 35.0416 149.581 34.968 149.028 34.8944C147.923 34.7471 147.701 33.9365 147.591 32.8679C147.197 29.5548 147.407 25.0279 147.407 21.4464V18.6761L143.083 20.9544C143.147 24.9013 143.295 29.3463 142.875 32.8679H142.877Z" fill="white"/>
<path d="M149.887 7.85156H140.578V8.54034H149.887V7.85156Z" fill="#C49A6C"/>
<path d="M149.347 9.00488H141.119V9.69366H149.347V9.00488Z" fill="#C49A6C"/>
<path d="M143.682 11.4085C143.682 11.7518 143.542 12.0642 143.316 12.2913H143.315V12.2926C143.088 12.519 142.776 12.6587 142.432 12.6587C142.089 12.6587 141.777 12.519 141.55 12.2926V12.2913C141.323 12.0642 141.184 11.7518 141.184 11.4085C141.184 11.0651 141.324 10.7527 141.55 10.5256V10.5243C141.777 10.2979 142.089 10.1582 142.432 10.1582H148.036C148.38 10.1582 148.691 10.2979 148.918 10.5243L148.919 10.5256C149.145 10.7527 149.285 11.0651 149.285 11.4085C149.285 11.7518 149.145 12.0642 148.919 12.2913H148.918V12.2926C148.691 12.519 148.379 12.6587 148.036 12.6587C147.692 12.6587 147.38 12.519 147.153 12.2926L147.152 12.2913C146.926 12.0642 146.786 11.7518 146.786 11.4085H147.475C147.475 11.5647 147.537 11.705 147.638 11.8062L147.639 11.8075C147.74 11.9087 147.881 11.9706 148.037 11.9706C148.193 11.9706 148.334 11.908 148.435 11.8075L148.436 11.8062C148.536 11.705 148.599 11.5647 148.599 11.4085C148.599 11.2523 148.536 11.1119 148.436 11.0107L148.435 11.0094C148.334 10.9082 148.193 10.8463 148.037 10.8463H142.431C142.275 10.8463 142.135 10.9089 142.034 11.0094L142.033 11.0107C141.932 11.1119 141.87 11.2523 141.87 11.4085C141.87 11.5647 141.932 11.705 142.033 11.8062L142.034 11.8075C142.135 11.9087 142.276 11.9706 142.431 11.9706C142.587 11.9706 142.728 11.908 142.829 11.8075L142.83 11.8062C142.931 11.705 142.993 11.5647 142.993 11.4085H143.682Z" fill="#C49A6C"/>
<path fill-rule="evenodd" clip-rule="evenodd" d="M146.697 12.6211V18.0315L147.385 17.6689V12.6211H146.697Z" fill="#C49A6C"/>
<path fill-rule="evenodd" clip-rule="evenodd" d="M145.491 11.2158V18.6657L146.18 18.3031V11.2158H145.491Z" fill="#C49A6C"/>
<path fill-rule="evenodd" clip-rule="evenodd" d="M144.286 11.2158V19.3008L144.974 18.9382V11.2158H144.286Z" fill="#C49A6C"/>
<path fill-rule="evenodd" clip-rule="evenodd" d="M143.081 12.6211V19.9368L143.77 19.5735V12.6211H143.081Z" fill="#C49A6C"/>
</svg>
