<svg width="42" height="44" viewBox="0 0 42 44" fill="none" xmlns="http://www.w3.org/2000/svg">
<path d="M33.7236 29.7706C32.2747 32.3778 31.5687 35.7677 28.8919 35.8122C26.2542 35.8568 25.8465 33.1581 23.8126 31.9842C23.6533 31.892 23.4931 31.8225 23.3315 31.7686C26.1238 31.0852 28.4779 29.2793 29.8901 26.8572C29.7894 27.864 29.894 28.9443 29.88 29.8136C29.8526 31.4718 29.2129 33.1136 28.1108 34.3524C28.0882 34.5266 28.2983 34.6594 28.4709 34.6266C28.6435 34.5938 28.7755 34.4571 28.8896 34.3227C29.7917 33.2581 30.3478 31.9053 30.4541 30.5134C30.5103 29.7784 30.4447 29.0388 30.497 28.3038C30.5634 27.368 30.8993 26.1683 31.8139 25.727C34.1501 24.6023 35.617 26.3675 38.5022 24.8725C39.3239 24.4468 39.923 23.7532 40.3354 22.9948C40.3526 22.9651 40.369 22.9339 40.3846 22.9034C40.6705 22.3496 40.8478 21.7443 40.9072 21.1249C40.9111 21.0859 40.9142 21.0468 40.9165 21.0085C40.9267 20.85 40.9298 20.6899 40.9259 20.529C40.9259 20.4938 40.9236 20.4579 40.9228 20.4227C40.7447 16.1057 35.8591 11.1303 37.4119 7.09762C37.4119 7.09762 31.6421 10.004 34.3555 14.5319C35.8888 17.0907 38.4718 19.3964 37.1721 21.7373C35.8919 24.0438 33.3511 23.0479 31.3172 24.2219C31.1578 24.314 31.0164 24.4179 30.8891 24.532C31.1609 23.6017 31.3093 22.6191 31.3093 21.6029C31.3093 19.7081 30.8009 17.9303 29.9159 16.3955C30.7376 16.9868 31.7249 17.4359 32.4716 17.8827C33.8939 18.7356 34.996 20.1103 35.5178 21.6842C35.6576 21.7912 35.8771 21.6756 35.9349 21.5092C35.9934 21.3428 35.9403 21.1609 35.881 20.9945C35.4108 19.6807 34.5164 18.5232 33.3643 17.7351C32.7559 17.3187 32.0826 17.0063 31.4726 16.5931C30.6954 16.0675 29.8237 15.177 29.9003 14.164C30.094 11.5786 32.3568 11.1912 32.5044 7.9443C32.5466 7.02029 32.2451 6.15408 31.7952 5.41753C31.778 5.38785 31.7592 5.35817 31.7405 5.32849C31.4038 4.8036 30.9688 4.34746 30.4619 3.9866C30.4299 3.96317 30.3978 3.9413 30.3658 3.92021C30.233 3.83195 30.0963 3.74915 29.9557 3.67183C29.9253 3.65543 29.8933 3.63824 29.862 3.62184C26.034 1.6176 19.2831 3.36096 16.5666 0C16.5666 0 16.1979 6.45011 21.4764 6.36419C24.4585 6.31576 27.7469 5.23163 29.1247 7.52799C30.4822 9.78998 28.3491 11.4919 28.3491 13.8406C28.3491 14.0289 28.3694 14.2069 28.4053 14.3772C26.5065 12.3902 23.836 11.1467 20.8797 11.1365C21.799 10.7202 22.6785 10.0923 23.4361 9.67126C24.8858 8.86519 26.6276 8.59884 28.2514 8.93392C28.4139 8.86675 28.4233 8.61837 28.3092 8.4848C28.1944 8.35124 28.0101 8.30594 27.8367 8.27391C26.4636 8.02475 25.0139 8.22002 23.7556 8.82379C23.0909 9.14247 22.4832 9.56893 21.8209 9.89152C20.9773 10.3024 19.7705 10.6109 18.9309 10.0391C16.7892 8.57853 17.5843 6.42589 14.8466 4.67394C14.0671 4.17562 13.1666 4.003 12.3043 4.02487C12.2699 4.02487 12.2347 4.02565 12.2004 4.028C11.5779 4.05768 10.9655 4.20608 10.3992 4.46462C10.3633 4.48102 10.3281 4.49742 10.2938 4.51461C10.1516 4.5849 10.011 4.66223 9.87355 4.7458C9.84387 4.76377 9.81341 4.7833 9.78295 4.80204C6.13455 7.11949 4.26857 13.8375 0 14.5092C0 14.5092 5.40191 18.053 7.96617 13.4392C9.41506 10.8319 10.1212 7.44207 12.7979 7.39755C15.4356 7.35303 15.8433 10.0516 17.8772 11.2256C18.0366 11.3178 18.1967 11.3873 18.3584 11.4412C15.566 12.1246 13.2119 13.9304 11.7997 16.3526C11.9004 15.3458 11.7958 14.2655 11.8098 13.3962C11.8372 11.738 12.4769 10.0962 13.579 8.85738C13.6016 8.6832 13.3915 8.55041 13.2189 8.58322C13.0463 8.61602 12.9143 8.75271 12.8002 8.88706C11.8981 9.95166 11.342 11.3045 11.2357 12.6964C11.1795 13.4313 11.2451 14.171 11.1928 14.906C11.1264 15.8417 10.7905 17.0415 9.8759 17.4828C7.5397 18.6075 6.07285 16.8423 3.18756 18.3373C2.36587 18.763 1.76679 19.4565 1.35438 20.215C1.3372 20.2446 1.3208 20.2759 1.30517 20.3064C1.0193 20.8601 0.841998 21.4655 0.782636 22.0849C0.778731 22.1239 0.775606 22.163 0.773263 22.2012C0.763109 22.3598 0.759985 22.5199 0.76389 22.6808C0.76389 22.716 0.766233 22.7519 0.767014 22.787C0.945099 27.104 5.83072 32.0795 4.27794 36.1122C4.27794 36.1122 10.0477 33.2058 7.33428 28.6779C5.80103 26.1191 3.21802 23.8134 4.51773 21.4725C5.79791 19.166 8.33874 20.1619 10.3727 18.9879C10.532 18.8957 10.6734 18.7919 10.8007 18.6778C10.5289 19.6081 10.3805 20.5907 10.3805 21.6068C10.3805 23.5017 10.8897 25.2794 11.7739 26.8143C10.9522 26.223 9.96494 25.7739 9.21823 25.3271C7.79512 24.4742 6.6938 23.0995 6.17204 21.5256C6.03223 21.4186 5.81275 21.5342 5.75495 21.7006C5.69637 21.8669 5.74948 22.0489 5.80885 22.2153C6.27983 23.5291 7.17338 24.6866 8.32546 25.4747C8.93392 25.891 9.60721 26.2035 10.2172 26.6166C10.9944 27.1423 11.8661 28.0327 11.7895 29.0458C11.5958 31.6311 9.33305 32.0186 9.18543 35.2655C9.14325 36.1895 9.44474 37.0557 9.89464 37.7923C9.91183 37.8219 9.93057 37.8516 9.94932 37.8813C10.286 38.4062 10.721 38.8623 11.2279 39.2224C11.26 39.2458 11.292 39.2677 11.324 39.2888C11.4568 39.3771 11.5935 39.4598 11.7341 39.5372C11.7645 39.5536 11.7966 39.5708 11.8278 39.5872C15.6558 41.5914 22.4067 39.848 25.1232 43.209C25.1232 43.209 25.4911 36.7589 20.2134 36.8448C17.2313 36.8932 13.9429 37.9774 12.5651 35.681C11.2076 33.419 13.3407 31.7171 13.3407 29.3684C13.3407 29.1801 13.3204 29.002 13.2845 28.8318C15.1833 30.8188 17.8538 32.0623 20.8101 32.0724C19.8908 32.4888 19.0113 33.1167 18.2537 33.5377C16.804 34.3438 15.0622 34.6102 13.4384 34.2751C13.2759 34.3423 13.2665 34.5906 13.3806 34.7242C13.4954 34.8578 13.6797 34.9031 13.8531 34.9351C15.2263 35.1842 16.6759 34.989 17.9342 34.3852C18.5989 34.0665 19.2066 33.6401 19.869 33.3175C20.7125 32.9066 21.9193 32.5981 22.7589 33.1699C24.9006 34.6305 24.1055 36.7831 26.8432 38.5351C27.6227 39.0334 28.5233 39.206 29.3856 39.1841C29.4199 39.1841 29.4551 39.1833 29.4894 39.181C30.112 39.1513 30.7243 39.0029 31.2906 38.7444C31.3265 38.728 31.3617 38.7116 31.396 38.6944C31.5382 38.6241 31.6788 38.5468 31.8163 38.4632C31.8459 38.4452 31.8764 38.4257 31.9069 38.407C35.5568 36.0942 37.4228 29.3762 41.6914 28.7037C41.6914 28.7037 36.2895 25.1599 33.7252 29.7737L33.7236 29.7706ZM11.1241 21.6045C11.1241 16.2448 15.4848 11.884 20.8445 11.884C26.2042 11.884 30.565 16.2448 30.565 21.6045C30.565 26.9642 26.2042 31.325 20.8445 31.325C15.4848 31.325 11.1241 26.9642 11.1241 21.6045Z" fill="#C49A6C"/>
<path d="M21.862 27.8623C25.3187 27.3012 27.666 24.0441 27.1049 20.5875C26.5438 17.1308 23.2868 14.7835 19.8301 15.3446C16.3735 15.9057 14.0261 19.1627 14.5872 22.6194C15.1483 26.076 18.4054 28.4233 21.862 27.8623Z" fill="#C49A6C"/>
</svg>
