<svg width="136" height="139" viewBox="0 0 136 139" fill="none" xmlns="http://www.w3.org/2000/svg">
<path d="M69.7839 76.361L65.6379 111.854L61.4919 76.361C60.0153 75.5583 58.797 74.3416 57.9932 72.867L22.4539 68.7264L57.9932 64.5858C58.797 63.1112 60.0153 61.8944 61.4919 61.0917L65.6379 25.599L69.7839 61.0917C71.2604 61.8944 72.4788 63.1112 73.2825 64.5858L108.822 68.7264L73.2825 72.867C72.4788 74.3416 71.2604 75.5583 69.7839 76.361ZM113.633 114.462L136 111.854L113.633 109.246C113.128 108.316 112.36 107.553 111.433 107.049L108.822 84.7112L106.211 107.049C105.28 107.553 104.516 108.32 104.01 109.246L81.6436 111.854L104.01 114.462C104.516 115.391 105.283 116.154 106.211 116.659L108.822 138.996L111.433 116.659C112.364 116.154 113.128 115.388 113.633 114.462ZM113.633 29.7504L136 27.1426L113.633 24.5347C113.128 23.6049 112.36 22.8422 111.433 22.3373L108.822 0L106.211 22.3373C105.28 22.8422 104.516 23.6086 104.01 24.5347L81.6436 27.1426L104.01 29.7504C104.516 30.6802 105.283 31.443 106.211 31.9478L108.822 54.2852L111.433 31.9478C112.364 31.443 113.128 30.6766 113.633 29.7504ZM30.6332 34.9588L44.9078 33.2953L30.6332 31.6319C30.3095 31.0398 29.8222 30.5495 29.2294 30.2299L27.5637 15.9739L25.898 30.2299C25.3052 30.5531 24.8142 31.0398 24.4942 31.6319L10.2195 33.2953L24.4942 34.9588C24.8179 35.5509 25.3052 36.0412 25.898 36.3608L27.5637 50.6168L29.2294 36.3608C29.8222 36.0376 30.3131 35.5509 30.6332 34.9588ZM26.429 114.008L44.9078 111.854L26.429 109.7C26.0107 108.934 25.3779 108.302 24.6106 107.884L22.4539 89.4293L20.2973 107.884C19.5299 108.302 18.8971 108.934 18.4788 109.7L0 111.854L18.4788 114.008C18.8971 114.774 19.5299 115.406 20.2973 115.824L22.4539 134.278L24.6106 115.824C25.3779 115.406 26.0107 114.774 26.429 114.008Z" fill="#AC805D"/>
</svg>
