<svg width="26" height="21" viewBox="0 0 26 21" fill="none" xmlns="http://www.w3.org/2000/svg">
<path fill-rule="evenodd" clip-rule="evenodd" d="M4.76986 11.9121L0.0499897 20.4255C-0.0302172 20.5709 -0.0123934 20.7425 0.0966057 20.868C0.205605 20.9927 0.373559 21.0334 0.526432 20.9714L25.7587 10.8582C25.9075 10.7983 26 10.6611 26 10.4998C26 10.3386 25.9075 10.2014 25.7587 10.1414L0.526432 0.0283104C0.372874 -0.0330314 0.205605 0.00694411 0.0966057 0.132385C-0.0123934 0.257136 -0.0309027 0.429444 0.0499897 0.574183L4.76986 9.08691L16.7186 10.362C16.8105 10.3716 16.8784 10.4302 16.8784 10.4998C16.8784 10.5695 16.8112 10.6273 16.7186 10.6377L4.76986 11.9128V11.9121Z" fill="#2B2726"/>
</svg>
