<svg width="124" height="19" viewBox="0 0 124 19" fill="none" xmlns="http://www.w3.org/2000/svg">
<path d="M16.2244 18.2911C16.3069 18.8849 15.9438 19.1653 15.3991 18.8849L10.8933 16.6253C10.3487 16.345 9.45742 16.345 8.91277 16.6253L4.39047 18.8519C3.84582 19.1158 3.48271 18.8519 3.56523 18.2417L4.32445 13.2608C4.42348 12.667 4.1429 11.8094 3.73028 11.3806L0.247785 7.78507C-0.181338 7.35625 -0.0327954 6.91094 0.561375 6.81198L5.5293 6.00382C6.12347 5.90486 6.84968 5.39358 7.13026 4.84931L9.47393 0.396183C9.75451 -0.148088 10.2166 -0.131595 10.4972 0.396183L12.8079 4.8658C13.0885 5.41007 13.7982 5.92136 14.3923 6.03681L19.3603 6.89445C19.9544 6.9934 20.103 7.43872 19.6738 7.86754L16.1253 11.4465C15.6962 11.8753 15.4156 12.7165 15.5147 13.3102L16.2409 18.2911H16.2244Z" fill="url(#paint0_radial_75_1482)"/>
<path style="mix-blend-mode:multiply" opacity="0.5" d="M9.98557 0.247884C10.0846 0.247884 10.1836 0.346842 10.2662 0.511773L12.5768 4.98139C12.8904 5.59163 13.6661 6.1524 14.3428 6.28434L19.3107 7.14198C19.4923 7.17497 19.6243 7.24094 19.6573 7.3399C19.6903 7.42236 19.6243 7.5708 19.4923 7.70274L15.9438 11.2817C15.4651 11.76 15.1516 12.6836 15.2506 13.3599L15.9768 18.3408C15.9933 18.5057 15.9768 18.6376 15.9273 18.7036C15.9273 18.7036 15.8778 18.7531 15.7952 18.7531C15.7127 18.7531 15.6137 18.7201 15.5147 18.6706L11.0089 16.4111C10.7118 16.2626 10.3157 16.1802 9.90305 16.1802C9.49043 16.1802 9.11082 16.2626 8.81374 16.4111L4.29144 18.6376C4.19241 18.6871 4.09339 18.7201 4.01086 18.7201C3.91183 18.7201 3.87882 18.6871 3.87882 18.6706C3.82931 18.6047 3.7963 18.4727 3.82931 18.3078L4.58853 13.3269C4.68756 12.6507 4.40698 11.7271 3.92834 11.2488L0.412832 7.60379C0.280794 7.47184 0.214775 7.3234 0.247785 7.24094C0.280794 7.15847 0.412832 7.07601 0.594384 7.04302L5.56231 6.23486C6.239 6.11941 7.01472 5.55865 7.34482 4.9484L9.70499 0.511773C9.78752 0.346842 9.90305 0.247884 10.0021 0.247884M9.98557 0.000488281C9.80402 0.000488281 9.62247 0.132433 9.47393 0.396322L7.13026 4.84945C6.84968 5.37722 6.12347 5.905 5.5293 6.00396L0.561375 6.81212C-0.0327954 6.91108 -0.181338 7.3399 0.247785 7.78521L3.76329 11.3972C4.19241 11.826 4.45649 12.6836 4.35746 13.2774L3.59824 18.2583C3.53223 18.7036 3.71378 18.9675 4.02737 18.9675C4.1429 18.9675 4.27494 18.9345 4.40698 18.8685L8.92927 16.642C9.19335 16.51 9.55645 16.4441 9.90305 16.4441C10.2496 16.4441 10.6293 16.51 10.8933 16.6585L15.3991 18.918C15.5477 18.984 15.6797 19.017 15.7952 19.017C16.1088 19.017 16.2904 18.7531 16.2244 18.3243L15.4982 13.3434C15.4156 12.7496 15.6962 11.892 16.1088 11.4797L19.6573 7.90066C20.0865 7.47184 19.9379 7.02653 19.3438 6.92757L14.3758 6.06993C13.7817 5.97097 13.0555 5.4432 12.7914 4.89893L10.4972 0.412815C10.3652 0.132433 10.1671 0.000488281 9.98557 0.000488281Z" fill="url(#paint1_radial_75_1482)"/>
<path d="M42.252 18.291C42.3345 18.8848 41.9714 19.1652 41.4268 18.8848L36.921 16.6252C36.3763 16.3449 35.4851 16.3449 34.9404 16.6252L30.4181 18.8518C29.8735 19.1157 29.5104 18.8518 29.5929 18.2416L30.3521 13.2607C30.4511 12.6669 30.1705 11.8093 29.7579 11.3804L26.2424 7.76847C25.8133 7.33965 25.9618 6.89434 26.556 6.79538L31.5239 5.98722C32.1181 5.88826 32.8443 5.37698 33.1249 4.83271L35.4686 0.379581C35.7491 -0.16469 36.2113 -0.148197 36.4918 0.379581L38.8025 4.8492C39.0831 5.39347 39.7928 5.90475 40.387 6.02021L45.3549 6.87784C45.9491 6.9768 46.0976 7.42212 45.6685 7.85093L42.12 11.4299C41.6908 11.8587 41.4103 12.6999 41.5093 13.2936L42.2355 18.2745L42.252 18.291Z" fill="url(#paint2_radial_75_1482)"/>
<path style="mix-blend-mode:multiply" opacity="0.5" d="M36.0134 0.247396C36.1124 0.247396 36.2115 0.346354 36.3105 0.511285L38.6212 4.9809C38.9347 5.59115 39.7105 6.15191 40.3872 6.28385L45.3551 7.14149C45.5366 7.17448 45.6687 7.24045 45.7017 7.33941C45.7347 7.42187 45.6687 7.57031 45.5366 7.70226L41.9881 11.2812C41.5095 11.7595 41.1959 12.6832 41.2949 13.3594L42.0211 18.3403C42.0376 18.5052 42.0211 18.6372 41.9716 18.7031C41.9716 18.7031 41.9221 18.7526 41.8396 18.7526C41.7571 18.7526 41.658 18.7196 41.559 18.6701L37.0532 16.4106C36.7561 16.2622 36.36 16.1797 35.9474 16.1797C35.5348 16.1797 35.1552 16.2622 34.8581 16.4106L30.3358 18.6372C30.2367 18.6866 30.1377 18.7196 30.0552 18.7196C29.9562 18.7196 29.9232 18.6866 29.9067 18.6701C29.8571 18.6042 29.8241 18.4722 29.8571 18.3073L30.6164 13.3264C30.7154 12.6502 30.4183 11.7266 29.9397 11.2483L26.4242 7.63628C26.2921 7.50434 26.2261 7.3559 26.2591 7.27344C26.2921 7.19097 26.4242 7.10851 26.6057 7.07552L31.5736 6.26736C32.2503 6.15191 33.026 5.59115 33.3561 4.9809L35.6998 0.527778C35.7823 0.362847 35.8979 0.263889 35.9969 0.263889M36.0134 0C35.8319 0 35.6503 0.131944 35.5018 0.395833L33.1581 4.84896C32.8775 5.37674 32.1513 5.90451 31.5571 6.00347L26.5892 6.81163C25.995 6.91059 25.8465 7.33941 26.2756 7.78472L29.7911 11.3967C30.2202 11.8255 30.4843 12.6832 30.3853 13.2769L29.6261 18.2578C29.5601 18.7031 29.7416 18.967 30.0552 18.967C30.1707 18.967 30.3028 18.934 30.4348 18.8681L34.9571 16.6415C35.2212 16.5095 35.5843 16.4436 35.9309 16.4436C36.2775 16.4436 36.6571 16.5095 36.9212 16.658L41.427 18.9175C41.5755 18.9835 41.7075 19.0165 41.8231 19.0165C42.1367 19.0165 42.3182 18.7526 42.2522 18.3238L41.526 13.3429C41.4435 12.7491 41.724 11.8915 42.1367 11.4792L45.6852 7.90017C46.1143 7.47135 45.9658 7.02604 45.3716 6.92708L40.4037 6.06944C39.8095 5.97049 39.0998 5.44271 38.8192 4.89844L36.5085 0.428819C36.36 0.164931 36.1785 0.0164931 35.9969 0.0164931L36.0134 0Z" fill="url(#paint3_radial_75_1482)"/>
<path d="M68.2638 18.291C68.3463 18.8848 67.9832 19.1652 67.4386 18.8848L62.9328 16.6252C62.3881 16.3449 61.4969 16.3449 60.9687 16.6252L56.4464 18.8518C55.9018 19.1157 55.5387 18.8518 55.6212 18.2416L56.3804 13.2607C56.4794 12.6669 56.1989 11.8093 55.7862 11.3804L52.2707 7.76847C51.8416 7.33965 51.9902 6.89434 52.5843 6.79538L57.5522 5.98722C58.1464 5.88826 58.8726 5.37698 59.1532 4.83271L61.4969 0.379581C61.7775 -0.16469 62.2396 -0.148197 62.5202 0.379581L64.8308 4.8492C65.1114 5.39347 65.8211 5.90475 66.4153 6.02021L71.3832 6.87784C71.9774 6.9768 72.1259 7.42212 71.6968 7.85093L68.1483 11.4299C67.7192 11.8587 67.4386 12.6999 67.5376 13.2936L68.2638 18.2745V18.291Z" fill="url(#paint4_radial_75_1482)"/>
<path style="mix-blend-mode:multiply" opacity="0.5" d="M62.0251 0.247396C62.1242 0.247396 62.2232 0.346354 62.3222 0.511285L64.6329 4.9809C64.9465 5.59115 65.7222 6.15191 66.3989 6.28385L71.3668 7.14149C71.5484 7.17448 71.6804 7.24045 71.7134 7.33941C71.7464 7.42187 71.6804 7.57031 71.5483 7.70226L67.9998 11.2812C67.5212 11.7595 67.2076 12.6832 67.3066 13.3594L68.0328 18.3403C68.0494 18.5052 68.0328 18.6372 67.9833 18.7031C67.9833 18.7031 67.9338 18.7526 67.8513 18.7526C67.7688 18.7526 67.6697 18.7196 67.5707 18.6701L63.0649 16.4106C62.7678 16.2622 62.3717 16.1797 61.9591 16.1797C61.5465 16.1797 61.1669 16.2622 60.8698 16.4106L56.3475 18.6372C56.2485 18.6866 56.1494 18.7196 56.0669 18.7196C55.9679 18.7196 55.9349 18.6866 55.9184 18.6701C55.8689 18.6042 55.8358 18.4722 55.8689 18.3073L56.6281 13.3264C56.7271 12.6502 56.43 11.7266 55.9514 11.2483L52.4359 7.63628C52.3038 7.50434 52.2378 7.3559 52.2708 7.27344C52.3038 7.19097 52.4359 7.10851 52.6174 7.07552L57.5854 6.26736C58.262 6.15191 59.0378 5.59115 59.3679 4.9809L61.7115 0.527778C61.7941 0.362847 61.9096 0.263889 62.0086 0.263889M62.0251 0C61.8436 0 61.662 0.131944 61.5135 0.395833L59.1698 4.84896C58.8892 5.37674 58.163 5.90451 57.5688 6.00347L52.6009 6.81163C52.0068 6.91059 51.8582 7.33941 52.2873 7.78472L55.8028 11.3967C56.232 11.8255 56.496 12.6832 56.397 13.2769L55.6378 18.2578C55.5718 18.7031 55.7533 18.967 56.0669 18.967C56.1825 18.967 56.3145 18.934 56.4465 18.8681L60.9688 16.6415C61.2329 16.5095 61.596 16.4436 61.9426 16.4436C62.2892 16.4436 62.6688 16.5095 62.9329 16.658L67.4387 18.9175C67.5872 18.9835 67.7193 19.0165 67.8348 19.0165C68.1484 19.0165 68.3299 18.7526 68.2639 18.3238L67.5377 13.3429C67.4552 12.7491 67.7358 11.8915 68.1484 11.4792L71.6969 7.90017C72.126 7.47135 71.9775 7.02604 71.3833 6.92708L66.4154 6.06944C65.8212 5.97049 65.095 5.44271 64.8309 4.89844L62.5203 0.428819C62.3882 0.164931 62.1902 0.0164931 62.0086 0.0164931L62.0251 0Z" fill="url(#paint5_radial_75_1482)"/>
<path d="M94.292 18.291C94.3746 18.8848 94.0115 19.1652 93.4668 18.8848L88.961 16.6252C88.4164 16.3449 87.5251 16.3449 86.9804 16.6252L82.4581 18.8518C81.9135 19.1157 81.5504 18.8518 81.6329 18.2416L82.3921 13.2607C82.4912 12.6669 82.2106 11.8093 81.798 11.3804L78.2825 7.76847C77.8533 7.33965 78.0019 6.89434 78.596 6.79538L83.564 5.98722C84.1581 5.88826 84.8843 5.37698 85.1649 4.83271L87.5086 0.379581C87.7892 -0.16469 88.2513 -0.148197 88.5319 0.379581L90.8426 4.8492C91.1231 5.39347 91.8328 5.90475 92.427 6.02021L97.3949 6.87784C97.9891 6.9768 98.1376 7.42212 97.7085 7.85093L94.16 11.4299C93.7309 11.8587 93.4503 12.6999 93.5493 13.2936L94.2755 18.2745L94.292 18.291Z" fill="url(#paint6_radial_75_1482)"/>
<path style="mix-blend-mode:multiply" opacity="0.5" d="M88.0534 0.247396C88.1525 0.247396 88.2515 0.346354 88.3505 0.511285L90.6612 4.9809C90.9748 5.59115 91.7505 6.15191 92.4272 6.28385L97.3951 7.14149C97.5767 7.17448 97.7087 7.24045 97.7417 7.33941C97.7747 7.42187 97.7087 7.57031 97.5767 7.70226L94.0282 11.2812C93.5495 11.7595 93.2359 12.6832 93.335 13.3594L94.0612 18.3403C94.0777 18.5052 94.0612 18.6372 94.0116 18.7031C94.0116 18.7031 93.9621 18.7526 93.8796 18.7526C93.7971 18.7526 93.6981 18.7196 93.599 18.6701L89.0932 16.4106C88.7962 16.2622 88.4 16.1797 87.9874 16.1797C87.5748 16.1797 87.1952 16.2622 86.8981 16.4106L82.3758 18.6372C82.2768 18.6866 82.1778 18.7196 82.0952 18.7196C81.9962 18.7196 81.9632 18.6866 81.9467 18.6701C81.8972 18.6042 81.8642 18.4722 81.8972 18.3073L82.6564 13.3264C82.7554 12.6502 82.4748 11.7266 81.9962 11.2483L78.4807 7.63628C78.3487 7.50434 78.2826 7.3559 78.3157 7.27344C78.3487 7.19097 78.4807 7.10851 78.6623 7.07552L83.6302 6.26736C84.3069 6.15191 85.0826 5.59115 85.4127 4.9809L87.7564 0.527778C87.8389 0.362847 87.9544 0.263889 88.0534 0.263889M88.0534 0C87.8719 0 87.6903 0.131944 87.5418 0.395833L85.1981 4.84896C84.9175 5.37674 84.1913 5.90451 83.5972 6.00347L78.6292 6.81163C78.0351 6.91059 77.8865 7.33941 78.3157 7.78472L81.8312 11.3967C82.2603 11.8255 82.5244 12.6832 82.4253 13.2769L81.6661 18.2578C81.6001 18.7031 81.7817 18.967 82.0952 18.967C82.2108 18.967 82.3428 18.934 82.4748 18.8681L86.9971 16.6415C87.2612 16.5095 87.6243 16.4436 87.9709 16.4436C88.3175 16.4436 88.6971 16.5095 88.9612 16.658L93.467 18.9175C93.6155 18.9835 93.7476 19.0165 93.8631 19.0165C94.1767 19.0165 94.3582 18.7526 94.2922 18.3238L93.566 13.3429C93.4835 12.7491 93.7641 11.8915 94.1767 11.4792L97.7252 7.90017C98.1543 7.47135 98.0058 7.02604 97.4116 6.92708L92.4437 6.06944C91.8495 5.97049 91.1233 5.44271 90.8592 4.89844L88.5486 0.428819C88.4165 0.164931 88.2185 0.0164931 88.0369 0.0164931L88.0534 0Z" fill="url(#paint7_radial_75_1482)"/>
<path d="M120.303 18.291C120.385 18.8848 120.022 19.1652 119.478 18.8848L114.972 16.6252C114.427 16.3449 113.536 16.3449 113.008 16.6252L108.485 18.8518C107.941 19.1157 107.578 18.8518 107.66 18.2416L108.419 13.2607C108.519 12.6669 108.238 11.8093 107.825 11.3804L104.31 7.76847C103.881 7.33965 104.029 6.89434 104.623 6.79538L109.591 5.98722C110.185 5.88826 110.912 5.37698 111.192 4.83271L113.536 0.379581C113.817 -0.16469 114.279 -0.148197 114.559 0.379581L116.87 4.8492C117.15 5.39347 117.86 5.90475 118.454 6.02021L123.422 6.87784C124.016 6.9768 124.165 7.42212 123.736 7.85093L120.187 11.4299C119.758 11.8587 119.478 12.6999 119.577 13.2936L120.303 18.2745V18.291Z" fill="url(#paint8_radial_75_1482)"/>
<path style="mix-blend-mode:multiply" opacity="0.5" d="M114.064 0.247396C114.163 0.247396 114.262 0.346354 114.361 0.511285L116.672 4.9809C116.986 5.59115 117.761 6.15191 118.438 6.28385L123.406 7.14149C123.587 7.17448 123.719 7.24045 123.752 7.33941C123.785 7.42187 123.719 7.57031 123.587 7.70226L120.039 11.2812C119.56 11.7595 119.247 12.6832 119.346 13.3594L120.072 18.3403C120.088 18.5052 120.072 18.6372 120.022 18.7031C120.022 18.7031 119.973 18.7526 119.89 18.7526C119.808 18.7526 119.709 18.7196 119.61 18.6701L115.104 16.4106C114.807 16.2622 114.411 16.1797 113.998 16.1797C113.586 16.1797 113.206 16.2622 112.909 16.4106L108.387 18.6372C108.288 18.6866 108.189 18.7196 108.106 18.7196C108.007 18.7196 107.974 18.6866 107.974 18.6701C107.908 18.6042 107.891 18.4722 107.924 18.3073L108.684 13.3264C108.783 12.6502 108.502 11.7266 108.023 11.2483L104.508 7.63628C104.376 7.50434 104.31 7.3559 104.343 7.27344C104.376 7.19097 104.508 7.10851 104.69 7.07552L109.657 6.26736C110.334 6.15191 111.11 5.59115 111.44 4.9809L113.784 0.527778C113.866 0.362847 113.982 0.263889 114.081 0.263889M114.064 0C113.883 0 113.701 0.131944 113.553 0.395833L111.209 4.84896C110.928 5.37674 110.202 5.90451 109.608 6.00347L104.64 6.81163C104.046 6.91059 103.897 7.33941 104.326 7.78472L107.842 11.3967C108.271 11.8255 108.535 12.6832 108.436 13.2769L107.677 18.2578C107.611 18.7031 107.792 18.967 108.106 18.967C108.222 18.967 108.354 18.934 108.486 18.8681L113.008 16.6415C113.272 16.5095 113.635 16.4436 113.982 16.4436C114.328 16.4436 114.708 16.5095 114.972 16.658L119.478 18.9175C119.626 18.9835 119.758 19.0165 119.874 19.0165C120.187 19.0165 120.369 18.7526 120.303 18.3238L119.577 13.3429C119.494 12.7491 119.775 11.8915 120.187 11.4792L123.736 7.90017C124.165 7.47135 124.017 7.02604 123.422 6.92708L118.454 6.06944C117.86 5.97049 117.134 5.44271 116.87 4.89844L114.559 0.428819C114.427 0.164931 114.229 0.0164931 114.048 0.0164931L114.064 0Z" fill="url(#paint9_radial_75_1482)"/>
<path d="M123.753 7.86702C124.182 7.4382 124.033 6.99289 123.439 6.89393L118.471 6.0363C117.877 5.93734 117.151 5.40956 116.887 4.86529L114.576 0.395671C114.444 0.131782 114.263 0.0493164 114.081 0.0493164V16.4269C114.411 16.4269 114.725 16.4929 114.972 16.6248L119.478 18.8844C120.023 19.1483 120.386 18.8844 120.303 18.2906L119.577 13.3097C119.495 12.716 119.775 11.8583 120.188 11.446L123.736 7.86702H123.753Z" fill="url(#paint10_radial_75_1482)"/>
<path style="mix-blend-mode:multiply" opacity="0.5" d="M123.753 7.86719C124.182 7.43837 124.033 6.99305 123.439 6.8941L118.471 6.03646C117.877 5.9375 117.151 5.40972 116.887 4.86545L114.576 0.395833C114.444 0.131944 114.263 0 114.081 0V0.247396C114.164 0.247396 114.263 0.346354 114.345 0.511285L116.656 4.9809C116.969 5.59115 117.745 6.15191 118.422 6.28385L123.39 7.14149C123.571 7.17448 123.703 7.24045 123.736 7.33941C123.769 7.42187 123.703 7.57031 123.571 7.70226L120.023 11.2812C119.544 11.7595 119.231 12.6832 119.33 13.3594L120.056 18.3403C120.072 18.5052 120.056 18.6372 120.006 18.7031C120.006 18.7031 119.957 18.7526 119.874 18.7526C119.792 18.7526 119.693 18.7196 119.594 18.6701L115.088 16.4106C114.807 16.2786 114.461 16.1962 114.081 16.1962V16.4436C114.411 16.4436 114.725 16.5095 114.972 16.6415L119.478 18.901C119.627 18.967 119.759 19 119.874 19C120.188 19 120.369 18.7361 120.303 18.3073L119.577 13.3264C119.495 12.7326 119.775 11.875 120.188 11.4627L123.736 7.88368L123.753 7.86719Z" fill="url(#paint11_radial_75_1482)"/>
<defs>
<radialGradient id="paint0_radial_75_1482" cx="0" cy="0" r="1" gradientUnits="userSpaceOnUse" gradientTransform="translate(3.38368 19.2313) scale(20.829 20.8142)">
<stop offset="0.35" stop-color="#FFC200"/>
<stop offset="0.51" stop-color="#FFBC06"/>
<stop offset="0.72" stop-color="#FFAE18"/>
<stop offset="0.98" stop-color="#FF9736"/>
<stop offset="1" stop-color="#FF953A"/>
</radialGradient>
<radialGradient id="paint1_radial_75_1482" cx="0" cy="0" r="1" gradientUnits="userSpaceOnUse" gradientTransform="translate(1.79923 24.3937) scale(30.1211 30.0998)">
<stop offset="0.35" stop-color="#FFC200"/>
<stop offset="0.51" stop-color="#FFBC06"/>
<stop offset="0.72" stop-color="#FFAE18"/>
<stop offset="0.98" stop-color="#FF9736"/>
<stop offset="1" stop-color="#FF953A"/>
</radialGradient>
<radialGradient id="paint2_radial_75_1482" cx="0" cy="0" r="1" gradientUnits="userSpaceOnUse" gradientTransform="translate(29.3948 0.824893) scale(20.829 20.8142)">
<stop offset="0.35" stop-color="#FFC200"/>
<stop offset="0.51" stop-color="#FFBC06"/>
<stop offset="0.72" stop-color="#FFAE18"/>
<stop offset="0.98" stop-color="#FF9736"/>
<stop offset="1" stop-color="#FF953A"/>
</radialGradient>
<radialGradient id="paint3_radial_75_1482" cx="0" cy="0" r="1" gradientUnits="userSpaceOnUse" gradientTransform="translate(27.8106 24.3932) scale(30.1211 30.0998)">
<stop offset="0.35" stop-color="#FFC200"/>
<stop offset="0.51" stop-color="#FFBC06"/>
<stop offset="0.72" stop-color="#FFAE18"/>
<stop offset="0.98" stop-color="#FF9736"/>
<stop offset="1" stop-color="#FF953A"/>
</radialGradient>
<radialGradient id="paint4_radial_75_1482" cx="0" cy="0" r="1" gradientUnits="userSpaceOnUse" gradientTransform="translate(55.4231 0.824893) scale(20.829 20.8142)">
<stop offset="0.35" stop-color="#FFC200"/>
<stop offset="0.51" stop-color="#FFBC06"/>
<stop offset="0.72" stop-color="#FFAE18"/>
<stop offset="0.98" stop-color="#FF9736"/>
<stop offset="1" stop-color="#FF953A"/>
</radialGradient>
<radialGradient id="paint5_radial_75_1482" cx="0" cy="0" r="1" gradientUnits="userSpaceOnUse" gradientTransform="translate(53.8388 24.3932) scale(30.1211 30.0998)">
<stop offset="0.35" stop-color="#FFC200"/>
<stop offset="0.51" stop-color="#FFBC06"/>
<stop offset="0.72" stop-color="#FFAE18"/>
<stop offset="0.98" stop-color="#FF9736"/>
<stop offset="1" stop-color="#FF953A"/>
</radialGradient>
<radialGradient id="paint6_radial_75_1482" cx="0" cy="0" r="1" gradientUnits="userSpaceOnUse" gradientTransform="translate(81.4349 0.824893) scale(20.829 20.8142)">
<stop offset="0.35" stop-color="#FFC200"/>
<stop offset="0.51" stop-color="#FFBC06"/>
<stop offset="0.72" stop-color="#FFAE18"/>
<stop offset="0.98" stop-color="#FF9736"/>
<stop offset="1" stop-color="#FF953A"/>
</radialGradient>
<radialGradient id="paint7_radial_75_1482" cx="0" cy="0" r="1" gradientUnits="userSpaceOnUse" gradientTransform="translate(79.8506 24.3932) scale(30.1211 30.0998)">
<stop offset="0.35" stop-color="#FFC200"/>
<stop offset="0.51" stop-color="#FFBC06"/>
<stop offset="0.72" stop-color="#FFAE18"/>
<stop offset="0.98" stop-color="#FF9736"/>
<stop offset="1" stop-color="#FF953A"/>
</radialGradient>
<radialGradient id="paint8_radial_75_1482" cx="0" cy="0" r="1" gradientUnits="userSpaceOnUse" gradientTransform="translate(107.462 0.824893) scale(20.829 20.8142)">
<stop offset="0.35" stop-color="#FFC200"/>
<stop offset="0.51" stop-color="#FFBC06"/>
<stop offset="0.72" stop-color="#FFAE18"/>
<stop offset="0.98" stop-color="#FF9736"/>
<stop offset="1" stop-color="#FF953A"/>
</radialGradient>
<radialGradient id="paint9_radial_75_1482" cx="0" cy="0" r="1" gradientUnits="userSpaceOnUse" gradientTransform="translate(105.878 24.3932) scale(30.1211 30.0998)">
<stop offset="0.35" stop-color="#FFC200"/>
<stop offset="0.51" stop-color="#FFBC06"/>
<stop offset="0.72" stop-color="#FFAE18"/>
<stop offset="0.98" stop-color="#FF9736"/>
<stop offset="1" stop-color="#FF953A"/>
</radialGradient>
<radialGradient id="paint10_radial_75_1482" cx="0" cy="0" r="1" gradientUnits="userSpaceOnUse" gradientTransform="translate(107.463 19.2307) scale(20.829 20.8142)">
<stop offset="0.35" stop-color="#DBDBDB"/>
<stop offset="0.55" stop-color="#D4D4D4"/>
<stop offset="0.82" stop-color="#C2C2C2"/>
<stop offset="0.99" stop-color="#B3B3B3"/>
</radialGradient>
<radialGradient id="paint11_radial_75_1482" cx="0" cy="0" r="1" gradientUnits="userSpaceOnUse" gradientTransform="translate(105.878 24.3932) scale(30.1211 30.0998)">
<stop offset="0.35" stop-color="#DBDBDB"/>
<stop offset="0.55" stop-color="#D4D4D4"/>
<stop offset="0.82" stop-color="#C2C2C2"/>
<stop offset="0.99" stop-color="#B3B3B3"/>
</radialGradient>
</defs>
</svg>
