<svg width="96" height="93" viewBox="0 0 96 93" fill="none" xmlns="http://www.w3.org/2000/svg">
<path d="M12.4236 39.5115L0 48.7688L9.26508 36.3556C14.5663 29.2533 14.5663 19.5155 9.26508 12.4161L0 0L12.4236 9.25735C19.5318 14.5542 29.2778 14.5542 36.3831 9.25735L48.8096 0L39.5445 12.4133C34.2432 19.5155 34.2432 29.2533 39.5445 36.3527L48.8096 48.766L36.3859 39.5087C29.2778 34.2118 19.5318 34.2118 12.4265 39.5087L12.4236 39.5115ZM89.0398 17.9233L96 8.59774L86.6666 15.5521C81.3284 19.5297 74.0068 19.5297 68.6686 15.5521L59.3352 8.59774L66.2954 17.9233C70.2763 23.2571 70.2763 30.5726 66.2954 35.9064L59.3352 45.2319L68.6686 38.2776C74.0068 34.3 81.3284 34.3 86.6666 38.2776L96 45.2319L89.0398 35.9064C85.0589 30.5726 85.0589 23.2571 89.0398 17.9233ZM53.2856 62.6719L45.56 68.4293C41.1408 71.7217 35.0798 71.7217 30.6607 68.4293L22.9351 62.6748L28.6973 70.394C31.9924 74.8094 31.9924 80.8654 28.6973 85.2808L22.9351 93L30.6607 87.2454C35.0798 83.953 41.1408 83.953 45.56 87.2454L53.2856 93L47.5262 85.2808C44.2311 80.8654 44.2311 74.8094 47.5262 70.394L53.2856 62.6748V62.6719Z" fill="#AC805D"/>
</svg>
